<?xml version="1.0" encoding="UTF-8" standalone="no"?>
<!-- Generator: Adobe Illustrator 17.1.0, SVG Export Plug-In . SVG Version: 6.00 Build 0)  -->

<svg
   xmlns:osb="http://www.openswatchbook.org/uri/2009/osb"
   xmlns:dc="http://purl.org/dc/elements/1.1/"
   xmlns:cc="http://creativecommons.org/ns#"
   xmlns:rdf="http://www.w3.org/1999/02/22-rdf-syntax-ns#"
   xmlns:svg="http://www.w3.org/2000/svg"
   xmlns="http://www.w3.org/2000/svg"
   xmlns:sodipodi="http://sodipodi.sourceforge.net/DTD/sodipodi-0.dtd"
   xmlns:inkscape="http://www.inkscape.org/namespaces/inkscape"
   version="1.1"
   id="Layer_1"
   x="0px"
   y="0px"
   viewBox="0 0 1471.4 460.5"
   enable-background="new 0 0 1471.4 460.5"
   xml:space="preserve"
   inkscape:version="0.91 r13725"
   sodipodi:docname="phlnodeschool1.svg"><metadata
     id="metadata4339"><rdf:RDF><cc:Work
         rdf:about=""><dc:format>image/svg+xml</dc:format><dc:type
           rdf:resource="http://purl.org/dc/dcmitype/StillImage" /><dc:title /></cc:Work></rdf:RDF></metadata><defs
     id="defs4337"><linearGradient
       id="linearGradient6787"
       osb:paint="solid"><stop
         style="stop-color:#a1c76e;stop-opacity:1;"
         offset="0"
         id="stop6789" /></linearGradient></defs><sodipodi:namedview
     pagecolor="#ffffff"
     bordercolor="#666666"
     borderopacity="1"
     objecttolerance="10"
     gridtolerance="10"
     guidetolerance="10"
     inkscape:pageopacity="0"
     inkscape:pageshadow="2"
     inkscape:window-width="1920"
     inkscape:window-height="1018"
     id="namedview4335"
     showgrid="false"
     inkscape:zoom="1.28"
     inkscape:cx="738.70846"
     inkscape:cy="230.25"
     inkscape:window-x="-30320"
     inkscape:window-y="-32000"
     inkscape:window-maximized="0"
     inkscape:current-layer="Layer_1"><inkscape:grid
       type="xygrid"
       id="grid22514" /></sodipodi:namedview><polygon
     fill="#CADEFF"
     points="890.4,336.9 704.9,444 519.3,336.9 519.3,122.6 704.9,15.4 890.4,122.6 "
     id="polygon3611"
     style="fill-opacity:1;fill:#5b6066" /><path
     fill="#231F20"
     d="M1032.3,205.8l-1-9.6c-0.1-0.7,0.2-1.2,0.8-1.6l0.1-0.1c0.6-0.3,1.2-0.3,1.7,0.1l7.8,5.7  c0.2,0.1,0.3,0.2,0.4,0.4c0.3,0.6,0.1,1.3-0.4,1.6c-0.5,0.3-1,0.2-1.5-0.1l-1.5-1.1l-4.3,2.5l0.2,2c0.1,0.5-0.2,1-0.6,1.2  c-0.6,0.3-1.2,0.1-1.6-0.4C1032.4,206.2,1032.3,206,1032.3,205.8z M1036.8,199.7l-3.2-2.4l0.5,4L1036.8,199.7z"
     id="path3613" /><path
     fill="#231F20"
     d="M1043.4,198.8c-0.3-0.6-0.1-1.3,0.5-1.7l3.4-2c1.1-0.6,2.2-0.8,3-0.6c0.7,0.2,1.2,0.6,1.6,1.3l0,0  c0.6,1.1,0.4,2-0.1,2.8c1.4-0.2,2.4,0,3.2,1.3l0,0c1,1.8,0.1,3.5-2.1,4.8l-3.5,2c-0.6,0.3-1.3,0.1-1.7-0.5L1043.4,198.8z   M1049.1,199.3c0.9-0.5,1.4-1.2,0.9-1.9l0,0c-0.4-0.6-1.1-0.7-2-0.2l-2.1,1.2l1.2,2.1L1049.1,199.3z M1052,202.9  c0.9-0.5,1.3-1.2,0.9-1.9l0,0c-0.4-0.7-1.1-0.8-2.2-0.1l-2.5,1.4l1.2,2.1L1052,202.9z"
     id="path3615" /><path
     fill="#231F20"
     d="M1059.4,204L1059.4,204c-1.6-2.8-0.8-6.2,2.1-8c1.5-0.8,2.7-1,3.8-0.9c0.3,0,0.7,0.2,0.9,0.6  c0.3,0.6,0.1,1.3-0.5,1.6c-0.3,0.2-0.5,0.2-0.8,0.2c-0.9-0.1-1.6,0-2.4,0.5c-1.6,0.9-2,3-1.1,4.6l0,0c1,1.7,2.9,2.4,4.6,1.4  c0.9-0.5,1.3-1.1,1.7-2c0.1-0.2,0.3-0.5,0.5-0.6c0.5-0.3,1.3-0.1,1.6,0.4c0.2,0.3,0.2,0.7,0.1,1c-0.4,1.3-1.2,2.3-2.7,3.2  C1064.4,207.8,1061,206.8,1059.4,204z"
     id="path3617" /><path
     fill="#231F20"
     d="M1072,198.8c-0.3-0.6-0.1-1.3,0.5-1.7l2.7-1.6c3-1.8,6.4-0.9,7.9,1.8l0,0c1.6,2.7,0.7,6.1-2.4,7.8l-2.7,1.6  c-0.6,0.3-1.3,0.1-1.7-0.5L1072,198.8z M1079.6,203.3c1.7-1,2.2-2.9,1.3-4.6l0,0c-1-1.7-2.9-2.2-4.6-1.2l-1.6,1l3.4,5.8  L1079.6,203.3z"
     id="path3619" /><path
     fill="#231F20"
     d="M1091.4,206.3l-4.4-7.6c-0.3-0.6-0.1-1.3,0.5-1.7l5.4-3.1c0.5-0.3,1.2-0.1,1.5,0.4c0.3,0.5,0.1,1.2-0.4,1.5  l-4.3,2.5l1.1,2l3.7-2.1c0.5-0.3,1.2-0.1,1.5,0.4s0.1,1.2-0.4,1.5l-3.7,2.1l1.2,2l4.4-2.5c0.5-0.3,1.2-0.1,1.5,0.4s0.1,1.2-0.4,1.5  l-5.4,3.1C1092.4,207.1,1091.7,206.9,1091.4,206.3z"
     id="path3621" /><path
     fill="#231F20"
     d="M1100.4,198.7c-0.3-0.6-0.1-1.3,0.5-1.7l5.4-3.1c0.5-0.3,1.2-0.1,1.5,0.4c0.3,0.5,0.1,1.2-0.4,1.5l-4.4,2.5  l1.2,2.1l3.7-2.2c0.5-0.3,1.2-0.1,1.5,0.4c0.3,0.5,0.1,1.2-0.4,1.5l-3.7,2.2l1.6,2.8c0.3,0.6,0.1,1.3-0.5,1.7  c-0.6,0.3-1.3,0.1-1.7-0.5L1100.4,198.7z"
     id="path3623" /><path
     fill="#231F20"
     d="M1115.4,204L1115.4,204c-1.6-2.8-0.8-6.3,2.2-8c1.5-0.8,2.6-1.1,3.9-1c0.3,0,0.7,0.2,0.9,0.6  c0.3,0.6,0.1,1.3-0.4,1.7c-0.3,0.2-0.6,0.2-0.8,0.2c-0.8-0.1-1.6,0-2.5,0.6c-1.6,0.9-2,3-1,4.6l0,0c1,1.8,3,2.4,4.7,1.4  c0.8-0.4,1.4-1,1.7-1.7l-0.8-1.4l-1.4,0.8c-0.5,0.3-1.2,0.1-1.5-0.4s-0.1-1.2,0.4-1.5l2.4-1.4c0.6-0.3,1.3-0.1,1.7,0.5l1.4,2.4  c0.4,0.6,0.4,1.2,0,1.8c-0.5,0.9-1.4,2.1-2.8,2.9C1120.4,207.8,1117.1,206.9,1115.4,204z"
     id="path3625" /><path
     fill="#231F20"
     d="M1128.6,198.6c-0.3-0.6-0.1-1.3,0.5-1.7c0.6-0.3,1.3-0.1,1.7,0.5l1.6,2.9l3.9-2.3l-1.6-2.9  c-0.3-0.6-0.1-1.3,0.5-1.7s1.3-0.1,1.7,0.5l4.5,7.7c0.3,0.6,0.1,1.3-0.5,1.7s-1.3,0.1-1.7-0.5l-1.7-2.9l-3.9,2.3l1.7,2.9  c0.3,0.6,0.1,1.3-0.5,1.7c-0.6,0.3-1.3,0.1-1.7-0.5L1128.6,198.6z"
     id="path3627" /><path
     fill="#231F20"
     d="M1143.4,198.6c-0.3-0.6-0.1-1.3,0.5-1.7c0.6-0.3,1.3-0.1,1.7,0.5l4.5,7.7c0.3,0.6,0.1,1.3-0.5,1.7  c-0.6,0.3-1.3,0.1-1.7-0.5L1143.4,198.6z"
     id="path3629" /><path
     fill="#231F20"
     d="M1156.4,206.9c-0.3,0-0.7-0.3-0.9-0.6c-0.3-0.6-0.1-1.3,0.4-1.6c0.3-0.2,0.5-0.2,0.8-0.1  c0.6,0.1,1.1,0,1.6-0.3c0.8-0.5,1.1-1.3,0.4-2.4l-3-5.3c-0.3-0.6-0.1-1.3,0.5-1.7c0.6-0.3,1.3-0.1,1.7,0.5l3.1,5.4  c0.7,1.2,0.8,2.2,0.6,3.1c-0.3,0.9-0.9,1.7-2,2.4C1158.4,206.9,1157.3,207,1156.4,206.9z"
     id="path3631" /><path
     fill="#231F20"
     d="M1164.1,198.6c-0.3-0.6-0.1-1.3,0.5-1.7c0.6-0.3,1.3-0.1,1.7,0.5l1.9,3.3l1.7-6.2c0.1-0.4,0.3-0.7,0.7-0.9  c0.6-0.3,1.2-0.1,1.6,0.4c0.2,0.3,0.2,0.7,0.1,1l-1.3,4.1l5.1,2c0.3,0.1,0.5,0.3,0.7,0.6c0.3,0.6,0.1,1.3-0.5,1.7  c-0.4,0.2-0.8,0.2-1.2,0l-4.9-2l-0.6,1.8l1.1,1.9c0.3,0.6,0.1,1.3-0.5,1.7c-0.6,0.3-1.3,0.1-1.7-0.5L1164.1,198.6z"
     id="path3633" /><path
     fill="#231F20"
     d="M1178.1,198.7c-0.3-0.6-0.1-1.3,0.5-1.7c0.6-0.3,1.3-0.1,1.7,0.5l3.9,6.8l4-2.3c0.5-0.3,1.2-0.1,1.5,0.4  c0.3,0.5,0.1,1.2-0.4,1.5l-5,2.9c-0.6,0.3-1.3,0.1-1.7-0.5L1178.1,198.7z"
     id="path3635" /><path
     fill="#231F20"
     d="M1190.9,198.6c-0.3-0.6-0.1-1.3,0.5-1.7l0.2-0.1c0.5-0.3,0.9-0.2,1.3,0l5,2.7l0.2-5.7c0-0.5,0.2-0.8,0.6-1.1  l0.2-0.1c0.6-0.3,1.3-0.1,1.7,0.5l4.5,7.7c0.3,0.6,0.1,1.3-0.5,1.7c-0.6,0.3-1.3,0.1-1.7-0.5l-2.8-4.8l-0.2,4c0,0.5-0.2,0.8-0.6,1.1  s-0.8,0.2-1.2,0l-3.5-1.8l2.8,4.8c0.3,0.6,0.1,1.3-0.5,1.6c-0.6,0.3-1.3,0.1-1.6-0.4L1190.9,198.6z"
     id="path3637" /><path
     fill="#231F20"
     d="M1207.1,198.6c-0.3-0.6-0.1-1.3,0.5-1.7l0.2-0.1c0.5-0.3,1-0.2,1.5,0l7.2,3l-2.9-5c-0.3-0.6-0.1-1.3,0.4-1.7  c0.6-0.3,1.3-0.1,1.7,0.4l4.5,7.7c0.3,0.6,0.1,1.3-0.5,1.7l-0.1,0c-0.5,0.3-1,0.2-1.5,0l-7.5-3.1l3,5.2c0.3,0.6,0.1,1.3-0.4,1.7  c-0.6,0.3-1.3,0.1-1.7-0.4L1207.1,198.6z"
     id="path3639" /><path
     fill="#231F20"
     d="M1224,204.1L1224,204.1c-1.6-2.8-0.7-6.3,2.3-8c3-1.7,6.4-0.7,8,2l0,0c1.6,2.8,0.7,6.3-2.3,8  C1229,207.8,1225.6,206.8,1224,204.1z M1232.1,199.4L1232.1,199.4c-1-1.7-3-2.4-4.7-1.4c-1.7,1-2.1,3-1.2,4.7l0,0  c1,1.7,3,2.3,4.7,1.4C1232.6,203.1,1233,201.1,1232.1,199.4z"
     id="path3641" /><path
     fill="#231F20"
     d="M1238.1,198.7c-0.3-0.6-0.1-1.3,0.5-1.7l2.9-1.7c2.3-1.3,4.5-0.8,5.7,1.2l0,0c1.3,2.2,0.2,4.4-2,5.7  l-1.6,0.9l1.1,1.9c0.3,0.6,0.1,1.3-0.5,1.7s-1.3,0.1-1.7-0.5L1238.1,198.7z M1244.2,200.3c1.1-0.6,1.3-1.6,0.8-2.4l0,0  c-0.6-1-1.5-1.1-2.6-0.5l-1.7,1l1.7,3L1244.2,200.3z"
     id="path3643" /><path
     fill="#231F20"
     d="M1253.3,204.1L1253.3,204.1c-1.6-2.8-0.7-6.3,2.3-8c3-1.7,6.4-0.7,8,2l0,0c0.6,1,0.8,2.2,0.7,3.3l0.6,0.1  c0.3,0.1,0.7,0.2,0.9,0.6c0.3,0.6,0.1,1.3-0.4,1.6c-0.3,0.2-0.6,0.2-0.9,0.1l-0.8-0.2c-0.5,1-1.3,1.9-2.4,2.5  C1258.4,207.8,1254.9,206.8,1253.3,204.1z M1259,202.3c-0.3-0.6-0.1-1.3,0.4-1.6c0.3-0.2,0.5-0.2,0.9-0.1l1.6,0.3  c-0.1-0.5-0.2-1-0.5-1.5l0,0c-1-1.7-3-2.3-4.7-1.4c-1.7,1-2.1,3-1.2,4.7l0,0c1,1.7,3,2.3,4.7,1.4c0.5-0.3,0.9-0.6,1.1-1l-1.5-0.3  C1259.5,202.8,1259.2,202.6,1259,202.3z"
     id="path3645" /><path
     fill="#231F20"
     d="M1267.5,198.7c-0.3-0.6-0.1-1.3,0.5-1.7l3.4-1.9c1.2-0.7,2.4-0.9,3.4-0.6c0.9,0.2,1.6,0.8,2.1,1.7l0,0  c0.9,1.5,0.7,2.9-0.2,4.1l2.5,0.9c0.4,0.1,0.6,0.3,0.8,0.6c0.3,0.6,0.1,1.3-0.4,1.6c-0.5,0.3-0.9,0.2-1.4,0.1l-3.6-1.4l-1.7,1  l1.2,2.1c0.3,0.6,0.1,1.3-0.5,1.7c-0.6,0.3-1.3,0.1-1.7-0.5L1267.5,198.7z M1273.9,199.8c1-0.6,1.3-1.5,0.8-2.3l0,0  c-0.5-0.9-1.4-1-2.5-0.4l-2.1,1.2l1.6,2.8L1273.9,199.8z"
     id="path3647" /><path
     fill="#231F20"
     d="M1285.9,206.9c-0.3,0-0.7-0.2-0.9-0.6c-0.3-0.6-0.1-1.2,0.4-1.6c0.3-0.2,0.5-0.2,0.7-0.2c1,0.1,2,0,3-0.6  c0.9-0.5,1.2-1.2,0.9-1.7l0,0c-0.3-0.5-0.8-0.6-2.7-0.1c-2.2,0.6-3.8,0.8-4.9-1.1l0,0c-1-1.8-0.3-3.7,1.7-4.9c1.2-0.7,2.4-1,3.6-0.9  c0.3,0,0.7,0.2,1,0.6c0.3,0.6,0.1,1.2-0.4,1.6c-0.2,0.1-0.4,0.2-0.6,0.2c-0.9,0-1.7,0.1-2.4,0.5c-0.8,0.5-1,1.1-0.8,1.6l0,0  c0.4,0.6,0.9,0.6,2.8,0.1c2.3-0.6,3.8-0.6,4.8,1.1l0,0c1.1,1.9,0.3,3.9-1.8,5.1C1288.9,206.7,1287.4,207.1,1285.9,206.9z"
     id="path3649" /><path
     fill="#231F20"
     d="M1297.5,199.6l-2.1,1.2c-0.5,0.3-1.2,0.1-1.6-0.4c-0.3-0.5-0.1-1.2,0.4-1.6l6.2-3.6c0.5-0.3,1.2-0.1,1.6,0.4  c0.3,0.5,0.1,1.2-0.4,1.6l-2.1,1.2l3.9,6.8c0.3,0.6,0.1,1.3-0.5,1.7c-0.6,0.3-1.3,0.1-1.7-0.5L1297.5,199.6z"
     id="path3651" /><path
     fill="#231F20"
     d="M1310.3,204.2l-2.6-4.6c-0.3-0.6-0.1-1.3,0.5-1.7c0.6-0.3,1.3-0.1,1.7,0.5l2.6,4.5c0.9,1.6,2.2,1.9,3.5,1.2  c1.3-0.8,1.6-2,0.7-3.5l-2.6-4.6c-0.3-0.6-0.1-1.3,0.5-1.7c0.6-0.3,1.3-0.1,1.7,0.5l2.6,4.5c1.7,2.9,0.9,5.3-1.7,6.8  C1314.3,207.6,1311.9,207.1,1310.3,204.2z"
     id="path3653" /><path
     fill="#231F20"
     d="M1329.6,206.6l-7.5-5.7c-0.2-0.1-0.3-0.3-0.4-0.4c-0.3-0.6-0.1-1.3,0.5-1.7c0.6-0.3,1.1-0.2,1.5,0.1l6.1,4.9  l-1.2-7.8c-0.1-0.4,0.1-1,0.6-1.3c0.6-0.3,1.3-0.2,1.6,0.4c0.1,0.2,0.1,0.4,0.2,0.5l1.2,9.4c0.1,0.7-0.1,1.2-0.7,1.5l-0.1,0.1  C1330.7,207.1,1330.2,207,1329.6,206.6z"
     id="path3655" /><path
     fill="#231F20"
     d="M1336.2,200.5c-0.1-0.1-0.2-0.2-0.3-0.4c-0.3-0.6-0.1-1.3,0.5-1.7c0.5-0.3,1.1-0.2,1.5,0.2l5.4,4.8l-1.5-7  c-0.1-0.6,0.1-1.2,0.6-1.5l0.2-0.1c0.5-0.3,1.1-0.2,1.6,0.2l5.3,4.8l-1.5-7.1c-0.1-0.5,0.1-1.1,0.6-1.4c0.6-0.3,1.3-0.2,1.6,0.4  c0.1,0.1,0.1,0.3,0.2,0.5l1.7,9.2c0.1,0.7-0.1,1.2-0.6,1.5l-0.2,0.1c-0.5,0.3-1.1,0.2-1.6-0.2l-5.1-4.5l1.3,6.7  c0.1,0.7-0.1,1.2-0.6,1.5l-0.2,0.1c-0.5,0.3-1.1,0.2-1.6-0.2L1336.2,200.5z"
     id="path3657" /><path
     fill="#231F20"
     d="M1359.8,205.4l0.8-4.7l-4.2-1.6c-0.3-0.1-0.6-0.3-0.8-0.6c-0.3-0.6-0.2-1.3,0.4-1.7c0.5-0.3,0.8-0.2,1.3,0  l3.8,1.6l0.5-4c0.1-0.5,0.2-0.9,0.7-1.2c0.5-0.3,1.2-0.2,1.5,0.4c0.2,0.3,0.2,0.6,0.2,1l-0.7,4.4l4.5,1.7c0.3,0.1,0.6,0.3,0.8,0.6  c0.3,0.6,0.2,1.3-0.4,1.7c-0.5,0.3-0.8,0.2-1.3,0l-4-1.7l-0.6,4.2c-0.1,0.5-0.2,0.9-0.7,1.2c-0.5,0.3-1.2,0.2-1.5-0.4  C1359.8,206.1,1359.8,205.8,1359.8,205.4z"
     id="path3659" /><path
     fill="#231F20"
     d="M1375.4,203.6l-5.6-2.4c-0.3-0.1-0.5-0.3-0.7-0.6c-0.3-0.6-0.1-1.3,0.5-1.6c0.5-0.3,0.9-0.2,1.4,0l4.3,2  l0.4-4.8c0-0.5,0.2-1,0.7-1.2c0.7-0.4,1.3-0.1,1.6,0.4c0.2,0.3,0.2,0.6,0.2,0.9l-0.7,6l1.6,2.8c0.3,0.6,0.1,1.3-0.5,1.7  c-0.6,0.3-1.3,0.1-1.7-0.5L1375.4,203.6z"
     id="path3661" /><path
     fill="#231F20"
     d="M1387.8,206.4L1387.8,206.4c-0.2-0.4-0.3-0.8-0.2-1.3l1.7-8.8l-4.3,2.5c-0.5,0.3-1.2,0.1-1.5-0.4  c-0.3-0.5-0.1-1.2,0.4-1.5l6.2-3.6c0.5-0.3,1.2-0.1,1.5,0.4l0,0c0.2,0.4,0.3,0.8,0.2,1.2l-1.7,8.8l4.5-2.6c0.5-0.3,1.2-0.1,1.5,0.4  c0.3,0.5,0.1,1.2-0.4,1.5l-6.4,3.7C1388.8,207.1,1388.1,206.9,1387.8,206.4z"
     id="path3663" /><path
     fill="#231F20"
     d="M1059.2,239.1L1059.2,239.1c-1-1.6-0.2-3.1,1.6-4.1c0.7-0.4,1.4-0.6,2-0.7l-0.1-0.1c-0.5-0.9-1.3-1-2.4-0.4  c-0.6,0.3-1,0.7-1.3,1c-0.1,0.1-0.2,0.2-0.3,0.2c-0.5,0.3-1.1,0.1-1.4-0.4c-0.2-0.4-0.2-0.8,0.1-1.1c0.5-0.6,1.2-1.2,2.1-1.8  c1.2-0.7,2.2-0.8,3-0.6c0.9,0.2,1.6,0.9,2.2,1.9l2,3.4c0.3,0.6,0.1,1.3-0.4,1.6c-0.6,0.4-1.3,0.2-1.5-0.3l0,0  c-0.2,0.9-0.7,1.6-1.7,2.2C1061.7,240.7,1060.1,240.5,1059.2,239.1z M1063.8,235.8l-0.2-0.4c-0.5,0-1,0.2-1.5,0.5  c-0.9,0.5-1.2,1.2-0.9,1.9l0,0c0.3,0.6,1,0.6,1.7,0.2C1063.9,237.5,1064.2,236.5,1063.8,235.8z"
     id="path3665" /><path
     fill="#231F20"
     d="M1068,231.6c-0.3-0.6-0.1-1.3,0.4-1.7c0.6-0.3,1.3-0.1,1.7,0.4l1.6,2.8c0.1-1,0.5-1.9,1.6-2.5  c1.7-1,4.2-0.6,5.6,1.9l0,0c1.4,2.5,0.6,4.8-1.2,5.8c-1.1,0.6-2.1,0.5-3,0.2l0,0c0.3,0.6,0.1,1.3-0.5,1.6c-0.6,0.3-1.3,0.1-1.7-0.4  L1068,231.6z M1076.8,233.7L1076.8,233.7c-0.7-1.3-2-1.6-3-1c-1,0.6-1.3,1.9-0.6,3.1l0,0c0.7,1.2,2,1.6,3,1  C1077.2,236.3,1077.5,235,1076.8,233.7z"
     id="path3667" /><path
     fill="#231F20"
     d="M1084.3,238.1L1084.3,238.1c-1.2-2.1-0.6-4.8,1.6-6.1c1.1-0.6,2.1-0.8,3-0.6c0.2,0,0.5,0.2,0.7,0.5  c0.3,0.5,0.1,1.2-0.4,1.5c-0.3,0.2-0.5,0.2-0.7,0.1c-0.5-0.1-1,0-1.6,0.3c-1.1,0.6-1.3,2-0.6,3.1l0,0c0.7,1.1,1.9,1.6,3.1,1  c0.6-0.3,0.9-0.8,1.1-1.3c0.1-0.1,0.2-0.4,0.5-0.5c0.5-0.3,1.1-0.1,1.4,0.4c0.2,0.3,0.2,0.6,0.1,0.8c-0.3,0.9-0.9,1.8-2.1,2.5  C1088.1,241,1085.5,240.2,1084.3,238.1z"
     id="path3669" /><path
     fill="#231F20"
     d="M1105.8,236.2c0.3,0.6,0.1,1.3-0.4,1.7c-0.6,0.3-1.3,0.1-1.7-0.4l-0.1-0.1c-0.1,1-0.5,1.9-1.6,2.5  c-1.7,1-4.2,0.6-5.6-1.9l0,0c-1.4-2.5-0.6-4.8,1.2-5.8c1.1-0.6,2.1-0.5,3-0.2l-1.6-2.7c-0.3-0.6-0.1-1.3,0.4-1.7  c0.6-0.3,1.3-0.1,1.7,0.4L1105.8,236.2z M1098.5,236.7L1098.5,236.7c0.7,1.3,2,1.6,3,1c1-0.6,1.3-1.9,0.6-3.1l0,0  c-0.7-1.2-2-1.6-3-1C1098.1,234.2,1097.7,235.5,1098.5,236.7z"
     id="path3671" /><path
     fill="#231F20"
     d="M1116,239.7c-2.2,1.3-4.8,0.7-6.1-1.6l0,0c-1.2-2.1-0.7-4.7,1.4-6c2.5-1.4,4.8,0,5.6,1.5  c0.4,0.6,0.2,1.3-0.4,1.6l-4.2,2.4c0.8,0.8,1.7,1,2.7,0.4c0.6-0.3,1-0.8,1.2-1.4c0.1-0.2,0.2-0.3,0.4-0.5c0.5-0.3,1-0.1,1.3,0.4  c0.2,0.3,0.2,0.6,0.1,0.8C1117.7,238.2,1117,239.1,1116,239.7z M1114.7,234.4c-0.7-0.9-1.6-1.2-2.5-0.7c-0.9,0.5-1.1,1.5-0.7,2.5  L1114.7,234.4z"
     id="path3673" /><path
     fill="#231F20"
     d="M1122.1,235.1L1122.1,235.1c-0.6,0.3-1.2,0.2-1.5-0.3c-0.3-0.5-0.1-1.1,0.4-1.4l0.1,0l-0.3-0.5  c-0.5-0.8-0.6-1.5-0.4-2.1c0.2-0.6,0.6-1.1,1.4-1.6c0.3-0.2,0.6-0.3,0.9-0.4c0.4-0.2,0.9,0,1.2,0.4c0.3,0.5,0.1,1.1-0.4,1.4  l-0.2,0.1c-0.5,0.3-0.6,0.7-0.3,1.2l0.2,0.3l0.9-0.5c0.5-0.3,1.1-0.1,1.4,0.4c0.3,0.5,0.1,1.1-0.4,1.4l-0.9,0.5l2.7,4.7  c0.3,0.6,0.1,1.3-0.4,1.7s-1.3,0.1-1.7-0.4L1122.1,235.1z"
     id="path3675" /><path
     fill="#231F20"
     d="M1136.1,240.3c-0.4,0.1-0.8-0.1-1.1-0.5c-0.3-0.5-0.1-1.1,0.4-1.4c0.1-0.1,0.3-0.1,0.4-0.1  c0.8-0.1,1.5-0.3,2.3-0.7c1.4-0.8,1.7-1.9,1-3.2l-0.2-0.4c-0.2,1.1-0.6,2-1.7,2.6c-1.7,1-4,0.6-5.3-1.6l0,0  c-1.3-2.2-0.4-4.4,1.3-5.4c1.2-0.7,2.1-0.6,3-0.3l0,0c-0.3-0.6-0.1-1.3,0.5-1.6s1.3-0.1,1.7,0.4l2.8,4.8c0.8,1.3,1,2.5,0.7,3.5  c-0.3,1.1-1.2,2-2.6,2.8C1138.1,239.9,1137.1,240.2,1136.1,240.3z M1137.5,231.8L1137.5,231.8c-0.6-1-1.8-1.3-2.8-0.7  c-1,0.6-1.4,1.7-0.8,2.8l0,0c0.6,1,1.8,1.3,2.8,0.7C1137.7,233.9,1138.1,232.8,1137.5,231.8z"
     id="path3677" /><path
     fill="#231F20"
     d="M1142.7,231.6c-0.3-0.6-0.1-1.3,0.4-1.7c0.6-0.3,1.3-0.1,1.7,0.4l1.6,2.8c0.1-0.9,0.4-1.8,1.5-2.4  c1.6-0.9,3.1-0.4,4.1,1.3l2.2,3.8c0.3,0.6,0.1,1.3-0.4,1.7c-0.6,0.3-1.3,0.1-1.7-0.4l-1.8-3.2c-0.6-1-1.3-1.2-2.1-0.8  c-0.8,0.5-1,1.3-0.4,2.3l1.8,3.2c0.3,0.6,0.1,1.3-0.4,1.7c-0.6,0.3-1.3,0.1-1.7-0.4L1142.7,231.6z"
     id="path3679" /><path
     fill="#231F20"
     d="M1155.4,231.6c-0.4-0.6-0.1-1.3,0.6-1.7c0.7-0.4,1.4-0.3,1.7,0.3l0,0c0.4,0.6,0.1,1.3-0.6,1.7  C1156.5,232.3,1155.8,232.2,1155.4,231.6L1155.4,231.6z M1157.1,234.3c-0.3-0.6-0.1-1.3,0.4-1.7s1.3-0.1,1.7,0.4l3.2,5.5  c0.3,0.6,0.1,1.3-0.4,1.7s-1.3,0.1-1.7-0.4L1157.1,234.3z"
     id="path3681" /><path
     fill="#231F20"
     d="M1170.3,240.1c-0.7,0.4-1.3,0.4-1.7-0.2c-0.3-0.5-0.1-1.1,0.3-1.3l0,0c0.3-0.2,0.4-0.5,0.1-1l-3.6-6.3  c-0.3-0.6-0.1-1.3,0.4-1.7s1.3-0.1,1.7,0.4l3.7,6.3C1172.2,238,1171.7,239.3,1170.3,240.1L1170.3,240.1z M1163.7,228.6  c-0.4-0.6-0.1-1.3,0.6-1.7c0.7-0.4,1.4-0.3,1.7,0.3l0,0c0.4,0.6,0.1,1.3-0.6,1.7C1164.9,229.3,1164.1,229.2,1163.7,228.6  L1163.7,228.6z"
     id="path3683" /><path
     fill="#231F20"
     d="M1172.1,231.6c-0.3-0.6-0.1-1.3,0.4-1.7c0.6-0.3,1.3-0.1,1.7,0.4l2.7,4.6l1.2-4c0.1-0.5,0.3-0.8,0.7-1  c0.6-0.3,1.2-0.1,1.5,0.4c0.2,0.4,0.2,0.7,0,1.2l-0.8,2.4l3.5,1.5c0.3,0.1,0.5,0.3,0.7,0.5c0.3,0.6,0.1,1.2-0.4,1.5  c-0.4,0.2-0.7,0.2-1.2,0l-3.3-1.5l-0.4,1.3l0.7,1.2c0.3,0.6,0.1,1.3-0.4,1.7c-0.6,0.3-1.3,0.1-1.7-0.4L1172.1,231.6z"
     id="path3685" /><path
     fill="#231F20"
     d="M1184.6,231.6c-0.3-0.6-0.1-1.3,0.4-1.7c0.6-0.3,1.3-0.1,1.7,0.4l4.7,8.2c0.3,0.6,0.1,1.3-0.4,1.7  c-0.6,0.3-1.3,0.1-1.7-0.4L1184.6,231.6z"
     id="path3687" /><path
     fill="#231F20"
     d="M1194.3,234.3c-0.3-0.6-0.1-1.3,0.4-1.7c0.6-0.3,1.3-0.1,1.7,0.4l0,0.1c0.1-0.9,0.4-1.8,1.5-2.5  c1-0.6,2-0.6,2.8,0c0.2-1.1,0.7-2,1.8-2.6c1.6-0.9,3.1-0.5,4.1,1.3l2.2,3.9c0.3,0.6,0.1,1.3-0.4,1.7c-0.6,0.3-1.3,0.1-1.7-0.4  l-1.8-3.2c-0.6-1-1.3-1.3-2.1-0.8s-1,1.2-0.4,2.2l1.8,3.2c0.3,0.6,0.1,1.3-0.4,1.7c-0.6,0.3-1.3,0.1-1.7-0.4l-1.8-3.2  c-0.6-1-1.3-1.3-2.1-0.8s-1,1.2-0.4,2.2l1.8,3.2c0.3,0.6,0.1,1.3-0.4,1.7c-0.6,0.3-1.3,0.1-1.7-0.4L1194.3,234.3z"
     id="path3689" /><path
     fill="#231F20"
     d="M1211.7,234.3c-0.3-0.6-0.1-1.3,0.4-1.7c0.6-0.3,1.3-0.1,1.7,0.4l0,0.1c0.1-0.9,0.4-1.8,1.5-2.4  c1.6-0.9,3.1-0.4,4.1,1.3l2.2,3.8c0.3,0.6,0.1,1.3-0.4,1.7c-0.6,0.3-1.3,0.1-1.7-0.4l-1.8-3.2c-0.6-1-1.3-1.2-2.1-0.8  c-0.8,0.5-1,1.3-0.4,2.3l1.8,3.2c0.3,0.6,0.1,1.3-0.4,1.7c-0.6,0.3-1.3,0.1-1.7-0.4L1211.7,234.3z"
     id="path3691" /><path
     fill="#231F20"
     d="M1225.7,238.2L1225.7,238.2c-1.2-2.2-0.5-4.9,1.8-6.2c2.3-1.3,5-0.6,6.2,1.5l0,0c1.2,2.1,0.5,4.9-1.8,6.2  C1229.6,241,1226.9,240.3,1225.7,238.2z M1231.7,234.7L1231.7,234.7c-0.6-1.1-2-1.6-3.2-1c-1.2,0.7-1.4,2-0.8,3.1l0,0  c0.6,1.1,2,1.6,3.1,0.9C1232.1,237.2,1232.3,235.8,1231.7,234.7z"
     id="path3693" /><path
     fill="#231F20"
     d="M1237.8,232c-0.3-0.6-0.1-1.3,0.4-1.7c0.6-0.3,1.3-0.1,1.7,0.4l0.1,0.1c0.1-1,0.5-1.9,1.6-2.5  c1.7-1,4.2-0.6,5.6,1.9l0,0c1.4,2.5,0.6,4.8-1.2,5.8c-1.1,0.6-2.1,0.5-3,0.2l1.3,2.2c0.3,0.6,0.1,1.3-0.4,1.7  c-0.6,0.3-1.3,0.1-1.7-0.4L1237.8,232z M1245.1,231.5L1245.1,231.5c-0.7-1.3-2-1.6-3-1c-1,0.6-1.3,1.9-0.6,3.1l0,0  c0.7,1.2,2,1.6,3,1C1245.5,234,1245.8,232.8,1245.1,231.5z"
     id="path3695" /><path
     fill="#231F20"
     d="M1263.2,238.4c0.3,0.6,0.1,1.3-0.4,1.7c-0.6,0.3-1.3,0.1-1.7-0.4l-1.3-2.3c-0.1,1-0.5,1.9-1.6,2.5  c-1.7,1-4.2,0.6-5.6-1.9l0,0c-1.4-2.5-0.6-4.8,1.2-5.8c1.1-0.6,2.1-0.5,3-0.2l0,0c-0.3-0.6-0.1-1.3,0.5-1.6c0.6-0.3,1.3-0.1,1.7,0.4  L1263.2,238.4z M1254.7,236.7L1254.7,236.7c0.7,1.3,2,1.6,3,1c1-0.6,1.3-1.9,0.6-3.1l0,0c-0.7-1.2-2-1.6-3-1  C1254.3,234.2,1254,235.5,1254.7,236.7z"
     id="path3697" /><path
     fill="#231F20"
     d="M1264.8,234.3c-0.3-0.6-0.1-1.3,0.4-1.7c0.6-0.3,1.3-0.1,1.7,0.4l0.2,0.3c-0.1-0.9,0-1.9,0.6-2.2  c0.7-0.4,1.3-0.2,1.6,0.4c0.3,0.6,0.2,1.1-0.2,1.4c-0.9,0.9-1,2-0.2,3.5l1.1,2c0.3,0.6,0.1,1.3-0.4,1.7c-0.6,0.3-1.3,0.1-1.7-0.4  L1264.8,234.3z"
     id="path3699" /><path
     fill="#231F20"
     d="M1277.9,240.3c-0.3,0-0.6-0.2-0.8-0.5c-0.3-0.5-0.1-1,0.4-1.3c0.2-0.1,0.3-0.1,0.5-0.1c1,0,1.8-0.2,2.4-0.5  c0.6-0.4,0.8-0.7,0.6-1.1l0,0c-0.3-0.5-1.1-0.2-2,0c-1.2,0.3-2.7,0.5-3.5-1l0,0c-0.9-1.5-0.1-3.1,1.4-3.9c0.8-0.4,1.7-0.7,2.6-0.8  c0.4,0,0.7,0.1,1,0.5c0.3,0.5,0.1,1-0.4,1.3c-0.2,0.1-0.3,0.1-0.4,0.1c-0.8,0.1-1.4,0.2-1.9,0.5c-0.5,0.3-0.6,0.7-0.5,1l0,0  c0.2,0.4,1.1,0.2,2,0c1.2-0.3,2.7-0.5,3.5,0.9l0,0c1,1.7,0.2,3.1-1.5,4C1280.3,240.1,1279.1,240.4,1277.9,240.3z"
     id="path3701" /><path
     fill="#231F20"
     d="M1288.8,238.9l-2-3.5l-0.1,0c-0.5,0.3-1.1,0.1-1.4-0.4s-0.1-1.1,0.4-1.4l0.1,0l-0.5-0.9  c-0.3-0.6-0.1-1.3,0.4-1.7c0.6-0.3,1.3-0.1,1.7,0.4l0.5,0.9l0.9-0.5c0.5-0.3,1.1-0.1,1.4,0.4s0.1,1.1-0.4,1.4l-0.9,0.5l1.8,3.2  c0.3,0.5,0.6,0.6,1.1,0.3c0.1,0,0.2-0.1,0.2-0.2c0.5-0.3,1.1-0.1,1.4,0.4c0.2,0.4,0.1,0.8-0.1,1.1c-0.3,0.4-0.6,0.6-1.1,0.9  C1290.9,240.6,1289.7,240.6,1288.8,238.9z"
     id="path3703" /><path
     fill="#231F20"
     d="M1305.7,236.3c0.3,0.6,0.1,1.3-0.4,1.7c-0.6,0.3-1.3,0.1-1.7-0.4l0-0.1c-0.1,0.9-0.4,1.8-1.5,2.4  c-1.6,0.9-3.1,0.4-4.1-1.3l-2.2-3.8c-0.3-0.6-0.1-1.3,0.4-1.7c0.6-0.3,1.3-0.1,1.7,0.4l1.8,3.2c0.6,1,1.3,1.2,2.1,0.8  c0.8-0.5,1-1.3,0.4-2.3l-1.8-3.2c-0.3-0.6-0.1-1.3,0.4-1.7c0.6-0.3,1.3-0.1,1.7,0.4L1305.7,236.3z"
     id="path3705" /><path
     fill="#231F20"
     d="M1315.6,240.1l-0.1,0.1c-0.6,0.3-1.2,0.2-1.7-0.2l-5.3-3.9c-0.1-0.1-0.3-0.3-0.4-0.4  c-0.3-0.5-0.1-1.2,0.5-1.6s1.1-0.2,1.5,0.2l4.1,3.4l-0.9-5.3c-0.1-0.4,0-1,0.6-1.3c0.6-0.3,1.3-0.2,1.6,0.4c0.1,0.2,0.2,0.4,0.2,0.6  l0.8,6.6C1316.3,239.2,1316.2,239.8,1315.6,240.1z"
     id="path3707" /><path
     fill="#231F20"
     d="M1325.5,239.9l-4.8-4.2c-0.1-0.1-0.3-0.3-0.4-0.5c-0.3-0.5-0.2-1.2,0.5-1.5c0.5-0.3,1.1-0.2,1.5,0.2l3.3,3.1  l-1-4.4c-0.1-0.6,0.1-1.2,0.6-1.5l0.1-0.1c0.5-0.3,1.1-0.2,1.6,0.2l3.4,3.1l-1-4.5c-0.1-0.5,0-1.1,0.5-1.4c0.6-0.3,1.2-0.1,1.5,0.4  c0.1,0.1,0.1,0.4,0.2,0.5l1.2,6.4c0.2,0.8-0.1,1.3-0.6,1.6l-0.1,0c-0.5,0.3-1.1,0.3-1.7-0.2l-3.3-3.1l1,4.4c0.2,0.7-0.1,1.3-0.6,1.6  l-0.1,0C1326.7,240.5,1326.1,240.4,1325.5,239.9z"
     id="path3709" /><path
     fill="#231F20"
     d="M1339.6,238.9l0.6-3.3l-2.9-1c-0.4-0.1-0.7-0.3-0.8-0.6c-0.3-0.6-0.1-1.2,0.4-1.5c0.4-0.2,0.8-0.2,1.3,0  l2.4,1l0.3-2.6c0.1-0.4,0.2-0.9,0.6-1.1c0.6-0.3,1.2-0.2,1.5,0.3c0.2,0.3,0.2,0.6,0.1,0.9l-0.6,3.1l3.1,1.1c0.4,0.1,0.7,0.3,0.8,0.6  c0.3,0.6,0.1,1.2-0.4,1.5c-0.4,0.2-0.8,0.2-1.3,0l-2.6-1.1l-0.4,2.8c-0.1,0.4-0.2,0.9-0.6,1.1c-0.6,0.3-1.2,0.2-1.5-0.3  C1339.5,239.5,1339.5,239.3,1339.6,238.9z"
     id="path3711" /><path
     fill="#231F20"
     d="M1354.2,240.3c-0.4,0.1-0.9,0-1.2-0.5c-0.3-0.5-0.1-1.1,0.3-1.3c0.2-0.1,0.3-0.1,0.4-0.1  c0.2,0,0.3-0.1,0.5-0.2c0.4-0.2,0.5-0.4,0.5-0.9l0-0.2l-5.9-4.4c-0.1-0.1-0.3-0.3-0.4-0.4c-0.3-0.6-0.1-1.3,0.5-1.6  c0.5-0.3,1-0.2,1.5,0.2l4.1,3.4l-0.9-5.2c-0.1-0.5,0-1.1,0.5-1.4c0.5-0.3,1.2-0.2,1.6,0.4c0.1,0.2,0.2,0.4,0.2,0.6l1,7.7  c0.2,1.9,0,2.8-1.3,3.5C1355,240.1,1354.7,240.3,1354.2,240.3z"
     id="path3713" /><path
     fill="#231F20"
     d="M1364.1,239.9L1364.1,239.9c-0.3-0.4-0.3-0.8-0.1-1.3l1.3-5.8l-2.9,1.7c-0.5,0.3-1.1,0.1-1.3-0.3  s-0.1-1.1,0.4-1.4l4.6-2.7c0.6-0.3,1.2-0.2,1.5,0.3l0,0c0.2,0.4,0.2,0.7,0.1,1.3l-1.3,5.8l3.1-1.8c0.5-0.3,1.1-0.1,1.4,0.4  c0.3,0.5,0.1,1.1-0.4,1.3l-4.7,2.7C1365,240.5,1364.4,240.4,1364.1,239.9z"
     id="path3715" /><g
     id="g3717"><path
       fill="#231F20"
       d="M1168.3,86.9l-0.9,0.2c-0.1,0-0.3,0.1-0.4,0.1c-0.6,0-1.1-0.5-1.1-1.1c0-0.5,0.3-0.9,0.8-1.1l1.6-0.5   c0.5-0.1,0.8-0.2,1.2-0.2h0c0.7,0,1.2,0.5,1.2,1.2v9c0,0.7-0.5,1.2-1.2,1.2c-0.7,0-1.2-0.5-1.2-1.2V86.9z"
       id="path3719" /><path
       fill="#231F20"
       d="M1173.5,93.3l3.2-2.6c1.4-1.1,1.9-1.8,1.9-2.7c0-0.9-0.6-1.5-1.5-1.5c-0.7,0-1.2,0.3-1.8,1   c-0.2,0.2-0.4,0.4-0.8,0.4c-0.6,0-1.1-0.5-1.1-1.1c0-0.3,0.1-0.6,0.3-0.8c0.9-1,2-1.6,3.6-1.6c2.3,0,3.9,1.4,3.9,3.5v0   c0,1.9-1,2.8-2.9,4.3l-1.8,1.4h3.9c0.6,0,1.1,0.5,1.1,1.1c0,0.6-0.5,1.1-1.1,1.1h-6.1c-0.8,0-1.3-0.4-1.3-1.2   C1172.9,94.1,1173.1,93.7,1173.5,93.3z"
       id="path3721" /><path
       fill="#231F20"
       d="M1183.4,94.6c-0.2-0.2-0.4-0.5-0.4-0.9c0-0.6,0.5-1.2,1.2-1.2c0.4,0,0.6,0.1,0.8,0.3   c0.6,0.5,1.3,0.8,2.2,0.8c0.9,0,1.6-0.5,1.6-1.4v0c0-0.9-0.8-1.4-2.2-1.4h-0.4c-0.6,0-1.1-0.5-1.1-1.1c0-0.3,0.1-0.6,0.5-1l2.2-2.2   h-3.4c-0.6,0-1.1-0.5-1.1-1.1s0.5-1.1,1.1-1.1h5.5c0.7,0,1.2,0.4,1.2,1.1c0,0.6-0.3,0.9-0.7,1.4l-2.2,2.1c1.5,0.3,3,1.1,3,3.1v0   c0,2.1-1.5,3.7-4,3.7C1185.6,95.9,1184.4,95.4,1183.4,94.6z"
       id="path3723" /><path
       fill="#231F20"
       d="M1198.5,93.3h-4.6c-0.7,0-1.2-0.5-1.2-1.1c0-0.5,0.2-0.9,0.6-1.3l4.9-5.7c0.5-0.5,0.8-0.8,1.5-0.8   c0.7,0,1.2,0.5,1.2,1.2v5.8h0.6c0.6,0,1,0.4,1,1s-0.4,1-1,1h-0.6v1.3c0,0.7-0.5,1.2-1.2,1.2s-1.2-0.5-1.2-1.2V93.3z M1198.5,91.3   v-3.5l-3,3.5H1198.5z"
       id="path3725" /><path
       fill="#231F20"
       d="M1204.6,94.9c-0.3-0.2-0.5-0.5-0.5-0.9c0-0.6,0.5-1.2,1.2-1.2c0.3,0,0.5,0.1,0.7,0.2   c0.7,0.5,1.3,0.7,2.1,0.7c1,0,1.8-0.6,1.8-1.6v0c0-1-0.8-1.5-2-1.5c-0.9,0-1.4,0.3-1.7,0.3c-0.4,0-0.6-0.1-1.1-0.5   c-0.3-0.2-0.5-0.6-0.4-1l0.2-3.8c0-0.6,0.5-1.1,1.1-1.1h4.9c0.6,0,1.1,0.5,1.1,1.1c0,0.6-0.5,1.1-1.1,1.1h-3.8l-0.1,1.9   c0.4-0.1,0.8-0.2,1.5-0.2c2.2,0,3.9,1.1,3.9,3.6v0c0,2.4-1.7,3.9-4.2,3.9C1206.5,95.9,1205.5,95.5,1204.6,94.9z"
       id="path3727" /><path
       fill="#231F20"
       d="M1215.4,94.7c-0.8-0.8-1.3-2-1.3-4.2v0c0-3.5,1.6-6.1,4.9-6.1c1.1,0,2,0.3,2.7,0.7c0.4,0.2,0.6,0.6,0.6,1.1   c0,0.6-0.5,1.1-1.2,1.1c-0.2,0-0.4-0.1-0.6-0.2c-0.5-0.3-1-0.4-1.6-0.4c-1.4,0-2.1,1.1-2.3,2.6c0.6-0.4,1.2-0.7,2.3-0.7   c2.2,0,3.9,1.2,3.9,3.6v0c0,2.3-1.8,3.9-4.3,3.9C1217.2,95.9,1216.2,95.5,1215.4,94.7z M1220.5,92.2L1220.5,92.2c0-1-0.7-1.7-2-1.7   c-1.2,0-1.9,0.7-1.9,1.6v0c0,0.9,0.7,1.7,2,1.7C1219.8,93.8,1220.5,93.1,1220.5,92.2z"
       id="path3729" /><path
       fill="#231F20"
       d="M1225.8,94l4.2-7.3h-4.3c-0.6,0-1.1-0.5-1.1-1.1s0.5-1.1,1.1-1.1h6.1c0.7,0,1.1,0.4,1.1,1.1   c0,0.4-0.1,0.8-0.4,1.2L1228,95c-0.3,0.6-0.7,0.8-1.2,0.8c-0.7,0-1.3-0.4-1.3-1.1C1225.5,94.5,1225.6,94.2,1225.8,94z"
       id="path3731" /><path
       fill="#231F20"
       d="M1234,92.7L1234,92.7c0-1.4,0.6-2.2,1.8-2.7c-0.9-0.5-1.4-1.2-1.4-2.4v0c0-1.7,1.6-3.1,3.9-3.1   s3.9,1.3,3.9,3.1v0c0,1.2-0.6,1.9-1.4,2.4c1.1,0.6,1.8,1.3,1.8,2.6v0c0,2.1-1.8,3.3-4.3,3.3C1235.9,95.9,1234,94.6,1234,92.7z    M1240.3,92.5L1240.3,92.5c0-0.9-0.8-1.4-1.9-1.4c-1.1,0-1.9,0.5-1.9,1.4v0c0,0.8,0.7,1.4,1.9,1.4   C1239.6,93.9,1240.3,93.2,1240.3,92.5z M1240,87.7L1240,87.7c0-0.7-0.6-1.3-1.6-1.3c-1,0-1.6,0.6-1.6,1.3v0c0,0.8,0.6,1.4,1.6,1.4   S1240,88.5,1240,87.7z"
       id="path3733" /><path
       fill="#231F20"
       d="M1245.2,95.1c-0.3-0.2-0.6-0.6-0.6-1c0-0.6,0.5-1.1,1.2-1.1c0.2,0,0.4,0.1,0.6,0.2c0.6,0.3,1.1,0.5,1.8,0.5   c1.4,0,2.1-1,2.3-2.5c-0.5,0.5-1.3,0.8-2.3,0.8c-2.4,0-4-1.3-4-3.6v0c0-2.3,1.7-3.9,4.3-3.9c1.5,0,2.4,0.4,3.2,1.2   c0.8,0.8,1.3,2,1.3,4.2v0c0,3.6-1.7,6.1-4.9,6.1C1246.9,95.9,1246,95.6,1245.2,95.1z M1250.5,88.2L1250.5,88.2c0-1-0.7-1.7-2-1.7   c-1.2,0-1.9,0.7-1.9,1.7v0c0,1,0.7,1.7,2,1.7C1249.8,89.9,1250.5,89.1,1250.5,88.2z"
       id="path3735" /><path
       fill="#231F20"
       d="M1254.8,90.2L1254.8,90.2c0-3.3,2-5.8,5-5.8c3,0,5,2.5,5,5.8v0c0,3.2-2,5.8-5,5.8S1254.8,93.4,1254.8,90.2z    M1262.2,90.2L1262.2,90.2c0-2.1-1-3.6-2.5-3.6s-2.4,1.5-2.4,3.5v0c0,2,1,3.6,2.5,3.6C1261.3,93.7,1262.2,92.2,1262.2,90.2z"
       id="path3737" /></g><g
     id="g3739"><path
       fill="#231F20"
       d="M1004.5,31.8l3.9-8.8c0.3-0.6,0.8-1,1.4-1h0.1c0.7,0,1.2,0.4,1.4,1l3.9,8.8c0.1,0.2,0.1,0.3,0.1,0.5   c0,0.7-0.5,1.2-1.2,1.2c-0.6,0-1-0.3-1.2-0.8l-0.8-1.8h-4.9l-0.8,1.8c-0.2,0.5-0.6,0.8-1.1,0.8c-0.6,0-1.1-0.5-1.1-1.2   C1004.3,32.1,1004.4,31.9,1004.5,31.8z M1011.4,28.6l-1.6-3.7l-1.6,3.7H1011.4z"
       id="path3741" /><path
       fill="#231F20"
       d="M1022.2,23.4c0-0.7,0.5-1.2,1.2-1.2h4c1.3,0,2.3,0.4,2.9,1c0.5,0.5,0.8,1.1,0.8,1.9v0c0,1.3-0.7,2-1.5,2.4   c1.3,0.5,2.1,1.2,2.1,2.8v0c0,2-1.7,3.1-4.2,3.1h-4.1c-0.7,0-1.2-0.5-1.2-1.2V23.4z M1026.8,26.7c1.1,0,1.8-0.4,1.8-1.2v0   c0-0.7-0.6-1.2-1.6-1.2h-2.4v2.4H1026.8z M1027.5,31.2c1.1,0,1.7-0.4,1.7-1.2v0c0-0.8-0.6-1.2-1.8-1.2h-2.8v2.5H1027.5z"
       id="path3743" /><path
       fill="#231F20"
       d="M1038,27.8L1038,27.8c0-3.2,2.4-5.8,5.8-5.8c1.7,0,2.8,0.4,3.7,1.1c0.3,0.2,0.5,0.5,0.5,1   c0,0.7-0.5,1.2-1.2,1.2c-0.3,0-0.6-0.1-0.7-0.2c-0.7-0.5-1.4-0.8-2.3-0.8c-1.9,0-3.2,1.6-3.2,3.5v0c0,1.9,1.3,3.5,3.2,3.5   c1,0,1.7-0.3,2.4-0.9c0.2-0.2,0.4-0.3,0.7-0.3c0.6,0,1.2,0.5,1.2,1.1c0,0.4-0.2,0.7-0.4,0.9c-1,0.9-2.2,1.4-4,1.4   C1040.5,33.5,1038,31,1038,27.8z"
       id="path3745" /><path
       fill="#231F20"
       d="M1055.1,23.4c0-0.7,0.5-1.2,1.2-1.2h3.1c3.5,0,6,2.4,6,5.6v0c0,3.2-2.4,5.6-6,5.6h-3.1   c-0.7,0-1.2-0.5-1.2-1.2V23.4z M1059.5,31.1c2,0,3.4-1.4,3.4-3.3v0c0-2-1.4-3.4-3.4-3.4h-1.9v6.8H1059.5z"
       id="path3747" /><path
       fill="#231F20"
       d="M1072.4,32.1v-8.7c0-0.7,0.5-1.2,1.2-1.2h6.2c0.6,0,1.1,0.5,1.1,1.1s-0.5,1.1-1.1,1.1h-5v2.3h4.3   c0.6,0,1.1,0.5,1.1,1.1s-0.5,1.1-1.1,1.1h-4.3v2.4h5.1c0.6,0,1.1,0.5,1.1,1.1s-0.5,1.1-1.1,1.1h-6.3   C1073,33.3,1072.4,32.8,1072.4,32.1z"
       id="path3749" /><path
       fill="#231F20"
       d="M1088,23.4c0-0.7,0.5-1.2,1.2-1.2h6.3c0.6,0,1.1,0.5,1.1,1.1c0,0.6-0.5,1.1-1.1,1.1h-5v2.4h4.3   c0.6,0,1.1,0.5,1.1,1.1c0,0.6-0.5,1.1-1.1,1.1h-4.3v3.2c0,0.7-0.5,1.2-1.2,1.2c-0.7,0-1.2-0.5-1.2-1.2V23.4z"
       id="path3751" /><path
       fill="#231F20"
       d="M1102.8,27.8L1102.8,27.8c0-3.2,2.5-5.8,5.9-5.8c1.7,0,2.8,0.4,3.8,1.1c0.2,0.2,0.5,0.5,0.5,1   c0,0.7-0.5,1.2-1.2,1.2c-0.4,0-0.6-0.1-0.8-0.3c-0.7-0.5-1.4-0.8-2.4-0.8c-1.8,0-3.2,1.6-3.2,3.5v0c0,2,1.4,3.6,3.4,3.6   c0.9,0,1.7-0.2,2.3-0.7V29h-1.7c-0.6,0-1.1-0.5-1.1-1.1s0.5-1.1,1.1-1.1h2.8c0.7,0,1.2,0.5,1.2,1.2v2.7c0,0.7-0.3,1.2-0.9,1.6   c-0.9,0.6-2.2,1.1-3.9,1.1C1105.2,33.5,1102.8,31.1,1102.8,27.8z"
       id="path3753" /><path
       fill="#231F20"
       d="M1120.6,23.3c0-0.7,0.5-1.2,1.2-1.2c0.7,0,1.2,0.5,1.2,1.2v3.3h4.5v-3.3c0-0.7,0.5-1.2,1.2-1.2   s1.2,0.5,1.2,1.2v8.9c0,0.7-0.5,1.2-1.2,1.2s-1.2-0.5-1.2-1.2v-3.4h-4.5v3.4c0,0.7-0.5,1.2-1.2,1.2c-0.7,0-1.2-0.5-1.2-1.2V23.3z"
       id="path3755" /><path
       fill="#231F20"
       d="M1137.7,23.3c0-0.7,0.5-1.2,1.2-1.2c0.7,0,1.2,0.5,1.2,1.2v8.9c0,0.7-0.5,1.2-1.2,1.2   c-0.7,0-1.2-0.5-1.2-1.2V23.3z"
       id="path3757" /><path
       fill="#231F20"
       d="M1147.3,32.5c-0.3-0.2-0.5-0.6-0.5-0.9c0-0.7,0.5-1.2,1.2-1.2c0.3,0,0.5,0.1,0.7,0.3   c0.5,0.4,0.9,0.6,1.5,0.6c1,0,1.5-0.6,1.5-1.9v-6.1c0-0.7,0.5-1.2,1.2-1.2c0.7,0,1.2,0.5,1.2,1.2v6.2c0,1.3-0.4,2.3-1.1,3   c-0.7,0.7-1.7,1-2.9,1C1149,33.5,1148,33.1,1147.3,32.5z"
       id="path3759" /><path
       fill="#231F20"
       d="M1161.6,23.3c0-0.7,0.5-1.2,1.2-1.2c0.7,0,1.2,0.5,1.2,1.2V27l4.5-4.5c0.3-0.3,0.6-0.5,1-0.5   c0.7,0,1.1,0.5,1.1,1.1c0,0.4-0.2,0.7-0.4,0.9l-3.2,2.9l3.4,4.3c0.2,0.2,0.3,0.5,0.3,0.9c0,0.7-0.5,1.2-1.2,1.2   c-0.5,0-0.8-0.2-1-0.6l-3.2-4.2L1164,30v2.2c0,0.7-0.5,1.2-1.2,1.2c-0.7,0-1.2-0.5-1.2-1.2V23.3z"
       id="path3761" /><path
       fill="#231F20"
       d="M1177.8,23.3c0-0.7,0.5-1.2,1.2-1.2c0.7,0,1.2,0.5,1.2,1.2v7.8h4.6c0.6,0,1.1,0.5,1.1,1.1   c0,0.6-0.5,1.1-1.1,1.1h-5.8c-0.7,0-1.2-0.5-1.2-1.2V23.3z"
       id="path3763" /><path
       fill="#231F20"
       d="M1192.5,23.3c0-0.7,0.5-1.2,1.2-1.2h0.3c0.5,0,0.9,0.3,1.1,0.6l3,4.8l3-4.9c0.3-0.4,0.6-0.6,1.1-0.6h0.3   c0.7,0,1.2,0.5,1.2,1.2v8.9c0,0.7-0.5,1.2-1.2,1.2c-0.7,0-1.2-0.6-1.2-1.2v-5.6l-2.2,3.3c-0.3,0.4-0.6,0.6-1,0.6s-0.8-0.2-1-0.6   l-2.1-3.3v5.6c0,0.7-0.5,1.2-1.2,1.2c-0.7,0-1.2-0.5-1.2-1.2V23.3z"
       id="path3765" /><path
       fill="#231F20"
       d="M1211.1,23.3c0-0.7,0.5-1.2,1.2-1.2h0.3c0.6,0,0.9,0.3,1.3,0.7l4.8,6.2v-5.8c0-0.7,0.5-1.2,1.2-1.2   c0.7,0,1.2,0.5,1.2,1.2v8.9c0,0.7-0.5,1.2-1.2,1.2h-0.1c-0.6,0-0.9-0.3-1.3-0.7l-4.9-6.5v6c0,0.7-0.5,1.2-1.2,1.2   c-0.7,0-1.2-0.5-1.2-1.2V23.3z"
       id="path3767" /><path
       fill="#231F20"
       d="M1228.1,27.8L1228.1,27.8c0-3.2,2.5-5.8,6-5.8c3.5,0,5.9,2.6,5.9,5.8v0c0,3.2-2.5,5.8-6,5.8   C1230.6,33.5,1228.1,31,1228.1,27.8z M1237.4,27.8L1237.4,27.8c0-2-1.4-3.6-3.4-3.6c-2,0-3.4,1.6-3.4,3.5v0c0,1.9,1.4,3.5,3.4,3.5   C1236,31.3,1237.4,29.7,1237.4,27.8z"
       id="path3769" /><path
       fill="#231F20"
       d="M1247,23.4c0-0.7,0.5-1.2,1.2-1.2h3.3c2.7,0,4.3,1.6,4.3,3.9v0c0,2.6-2,3.9-4.5,3.9h-1.9v2.2   c0,0.7-0.5,1.2-1.2,1.2s-1.2-0.5-1.2-1.2V23.4z M1251.4,27.8c1.2,0,2-0.7,2-1.7v0c0-1.1-0.8-1.7-2-1.7h-1.9v3.4H1251.4z"
       id="path3771" /><path
       fill="#231F20"
       d="M1262,27.8L1262,27.8c0-3.2,2.5-5.8,6-5.8c3.5,0,5.9,2.6,5.9,5.8v0c0,1.2-0.4,2.3-1,3.2l0.5,0.4   c0.3,0.2,0.4,0.5,0.4,0.9c0,0.6-0.5,1.2-1.2,1.2c-0.3,0-0.6-0.1-0.8-0.3l-0.6-0.5c-0.9,0.6-2.1,1-3.3,1   C1264.5,33.5,1262,31,1262,27.8z M1267.8,29c0-0.6,0.5-1.2,1.2-1.2c0.3,0,0.6,0.1,0.8,0.3l1.2,1.1c0.2-0.4,0.3-1,0.3-1.5v0   c0-1.9-1.4-3.5-3.4-3.5c-2,0-3.4,1.6-3.4,3.5v0c0,1.9,1.4,3.5,3.4,3.5c0.5,0,1-0.1,1.5-0.3l-1.2-1C1268,29.7,1267.8,29.4,1267.8,29   z"
       id="path3773" /><path
       fill="#231F20"
       d="M1280.9,23.4c0-0.7,0.5-1.2,1.2-1.2h3.9c1.4,0,2.5,0.4,3.3,1.1c0.6,0.6,1,1.5,1,2.6v0   c0,1.8-0.9,2.8-2.2,3.4l1.7,2.1c0.2,0.3,0.4,0.6,0.4,0.9c0,0.7-0.6,1.1-1.2,1.1c-0.6,0-0.9-0.3-1.2-0.6l-2.4-3h-2v2.4   c0,0.7-0.5,1.2-1.2,1.2c-0.7,0-1.2-0.5-1.2-1.2V23.4z M1285.8,27.6c1.2,0,1.9-0.6,1.9-1.6v0c0-1.1-0.7-1.6-1.9-1.6h-2.4v3.2H1285.8   z"
       id="path3775" /><path
       fill="#231F20"
       d="M1297,32.2c-0.3-0.2-0.5-0.5-0.5-0.9c0-0.6,0.5-1.1,1.2-1.1c0.3,0,0.5,0.1,0.7,0.2c0.8,0.6,1.8,1,2.9,1   c1,0,1.6-0.4,1.6-1.1v0c0-0.6-0.4-0.9-2.3-1.4c-2.3-0.6-3.7-1.2-3.7-3.4v0c0-2,1.6-3.4,3.9-3.4c1.4,0,2.5,0.4,3.6,1   c0.3,0.2,0.5,0.5,0.5,1c0,0.6-0.5,1.1-1.2,1.1c-0.2,0-0.4-0.1-0.6-0.2c-0.8-0.5-1.6-0.8-2.4-0.8c-0.9,0-1.4,0.4-1.4,1v0   c0,0.7,0.5,1,2.4,1.5c2.3,0.6,3.6,1.4,3.6,3.4v0c0,2.2-1.7,3.5-4.1,3.5C1299.8,33.5,1298.3,33,1297,32.2z"
       id="path3777" /><path
       fill="#231F20"
       d="M1314.9,24.4h-2.4c-0.6,0-1.1-0.5-1.1-1.1c0-0.6,0.5-1.1,1.1-1.1h7.2c0.6,0,1.1,0.5,1.1,1.1   c0,0.6-0.5,1.1-1.1,1.1h-2.4v7.8c0,0.7-0.5,1.2-1.2,1.2s-1.2-0.5-1.2-1.2V24.4z"
       id="path3779" /><path
       fill="#231F20"
       d="M1327.3,28.5v-5.3c0-0.7,0.5-1.2,1.2-1.2c0.7,0,1.2,0.5,1.2,1.2v5.2c0,1.8,0.9,2.8,2.4,2.8   c1.5,0,2.4-0.9,2.4-2.7v-5.3c0-0.7,0.5-1.2,1.2-1.2c0.7,0,1.2,0.5,1.2,1.2v5.2c0,3.4-1.9,5.1-4.9,5.1   C1329.1,33.5,1327.3,31.8,1327.3,28.5z"
       id="path3781" /><path
       fill="#231F20"
       d="M1347.3,32.5l-3.6-8.7c-0.1-0.2-0.1-0.4-0.1-0.6c0-0.7,0.5-1.2,1.2-1.2c0.6,0,1.1,0.4,1.2,0.9l2.8,7.3   l2.8-7.3c0.2-0.4,0.6-0.8,1.2-0.8c0.7,0,1.2,0.5,1.2,1.2c0,0.2-0.1,0.4-0.1,0.5l-3.7,8.8c-0.3,0.6-0.7,1-1.4,1h-0.2   C1348.1,33.5,1347.6,33.1,1347.3,32.5z"
       id="path3783" /><path
       fill="#231F20"
       d="M1360.1,23.7c0-0.1-0.1-0.3-0.1-0.5c0-0.7,0.6-1.2,1.3-1.2c0.6,0,1,0.4,1.2,0.9l2.2,6.9l2.2-6.8   c0.2-0.6,0.6-1,1.2-1h0.2c0.6,0,1.1,0.4,1.2,1l2.2,6.8l2.2-6.9c0.2-0.5,0.6-0.9,1.2-0.9c0.7,0,1.2,0.5,1.2,1.2c0,0.1,0,0.3-0.1,0.5   l-3.1,8.8c-0.2,0.6-0.7,1-1.3,1h-0.3c-0.6,0-1-0.4-1.3-1l-2.2-6.4l-2.2,6.4c-0.2,0.6-0.7,1-1.3,1h-0.3c-0.6,0-1.1-0.4-1.3-1   L1360.1,23.7z"
       id="path3785" /><path
       fill="#231F20"
       d="M1382.9,31.4l3-3.7l-2.8-3.5c-0.2-0.2-0.4-0.6-0.4-0.9c0-0.7,0.5-1.2,1.2-1.2c0.5,0,0.8,0.2,1.1,0.6   l2.4,3.3l2.4-3.2c0.3-0.4,0.7-0.7,1.2-0.7c0.5,0,1.1,0.4,1.1,1.1c0,0.4-0.1,0.6-0.4,0.9l-2.8,3.5l3,3.7c0.2,0.2,0.4,0.6,0.4,0.9   c0,0.7-0.5,1.2-1.2,1.2c-0.5,0-0.8-0.2-1.1-0.6l-2.6-3.4l-2.6,3.4c-0.3,0.4-0.7,0.7-1.2,0.7c-0.5,0-1.1-0.4-1.1-1.1   C1382.5,31.9,1382.6,31.7,1382.9,31.4z"
       id="path3787" /><path
       fill="#231F20"
       d="M1402.2,29l-3.6-4.9c-0.2-0.2-0.3-0.5-0.3-0.9c0-0.7,0.5-1.2,1.2-1.2c0.6,0,0.9,0.3,1.2,0.8l2.7,3.9l2.8-4   c0.3-0.4,0.7-0.7,1.2-0.7c0.8,0,1.2,0.5,1.2,1.2c0,0.3-0.2,0.6-0.3,0.9l-3.6,4.9v3.2c0,0.7-0.5,1.2-1.2,1.2s-1.2-0.5-1.2-1.2V29z"
       id="path3789" /><path
       fill="#231F20"
       d="M1414.7,32.2L1414.7,32.2c0-0.5,0.2-0.9,0.4-1.2l5.8-6.8h-5c-0.6,0-1.1-0.5-1.1-1.1c0-0.6,0.5-1.1,1.1-1.1   h7.2c0.6,0,1.1,0.5,1.1,1.1v0c0,0.4-0.2,0.8-0.4,1.2l-5.8,6.8h5.2c0.6,0,1.1,0.5,1.1,1.1c0,0.6-0.5,1.1-1.1,1.1h-7.3   C1415.2,33.3,1414.7,32.8,1414.7,32.2z"
       id="path3791" /></g><g
     id="g3793"><path
       fill="#231F20"
       d="M1034.4,58.8L1034.4,58.8c0-1.9,1.4-2.8,3.5-2.8c0.9,0,1.5,0.1,2.1,0.4v-0.1c0-1-0.6-1.6-1.8-1.6   c-0.7,0-1.2,0.1-1.7,0.2c-0.1,0-0.2,0.1-0.4,0.1c-0.6,0-1-0.4-1-1c0-0.4,0.3-0.8,0.7-0.9c0.8-0.3,1.6-0.4,2.7-0.4   c1.3,0,2.3,0.4,2.9,1c0.6,0.6,0.9,1.6,0.9,2.7v3.9c0,0.7-0.5,1.2-1.2,1.2c-0.7,0-1.2-0.5-1.2-1v0c-0.6,0.7-1.4,1.1-2.6,1.1   C1035.7,61.4,1034.4,60.5,1034.4,58.8z M1040,58.2v-0.4c-0.4-0.2-1-0.3-1.6-0.3c-1,0-1.7,0.4-1.7,1.2v0c0,0.7,0.5,1,1.3,1   C1039.2,59.7,1040,59.1,1040,58.2z"
       id="path3795" /><path
       fill="#231F20"
       d="M1049.2,50.7c0-0.7,0.5-1.2,1.2-1.2c0.7,0,1.2,0.5,1.2,1.2v3.2c0.6-0.8,1.4-1.4,2.7-1.4   c2,0,3.9,1.6,3.9,4.4v0c0,2.9-1.9,4.4-3.9,4.4c-1.3,0-2.1-0.6-2.7-1.3v0c0,0.7-0.5,1.2-1.2,1.2c-0.7,0-1.2-0.5-1.2-1.2V50.7z    M1055.7,57L1055.7,57c0-1.5-1-2.4-2.1-2.4c-1.1,0-2.1,0.9-2.1,2.4v0c0,1.4,0.9,2.4,2.1,2.4C1054.8,59.3,1055.7,58.4,1055.7,57z"
       id="path3797" /><path
       fill="#231F20"
       d="M1064.3,57L1064.3,57c0-2.5,1.9-4.5,4.5-4.5c1.3,0,2.2,0.4,2.9,1c0.2,0.1,0.4,0.4,0.4,0.8   c0,0.6-0.5,1.1-1.1,1.1c-0.3,0-0.6-0.1-0.7-0.2c-0.4-0.3-0.9-0.5-1.5-0.5c-1.2,0-2.1,1.1-2.1,2.3v0c0,1.3,0.8,2.4,2.2,2.4   c0.6,0,1.1-0.2,1.6-0.6c0.1-0.1,0.4-0.2,0.7-0.2c0.6,0,1,0.5,1,1c0,0.3-0.1,0.6-0.4,0.8c-0.7,0.7-1.6,1.1-3,1.1   C1066.2,61.4,1064.3,59.4,1064.3,57z"
       id="path3799" /><path
       fill="#231F20"
       d="M1087.3,60.1c0,0.7-0.5,1.2-1.2,1.2s-1.2-0.5-1.2-1.2V60c-0.6,0.8-1.4,1.4-2.7,1.4c-2,0-3.9-1.6-3.9-4.4v0   c0-2.9,1.9-4.4,3.9-4.4c1.3,0,2.1,0.6,2.7,1.3v-3.1c0-0.7,0.5-1.2,1.2-1.2s1.2,0.5,1.2,1.2V60.1z M1080.7,56.9L1080.7,56.9   c0,1.5,1,2.4,2.1,2.4c1.1,0,2.1-0.9,2.1-2.4v0c0-1.4-0.9-2.4-2.1-2.4C1081.7,54.6,1080.7,55.5,1080.7,56.9z"
       id="path3801" /><path
       fill="#231F20"
       d="M1098.4,61.4c-2.6,0-4.5-1.8-4.5-4.4v0c0-2.4,1.7-4.5,4.2-4.5c2.9,0,4.1,2.4,4.1,4.1c0,0.7-0.5,1.2-1.1,1.2   h-4.8c0.2,1.1,1,1.7,2.1,1.7c0.7,0,1.2-0.2,1.7-0.6c0.2-0.1,0.3-0.2,0.6-0.2c0.5,0,0.9,0.4,0.9,1c0,0.3-0.1,0.6-0.3,0.7   C1100.6,61,1099.6,61.4,1098.4,61.4z M1099.9,56.3c-0.1-1.1-0.8-1.8-1.8-1.8c-1,0-1.7,0.7-1.9,1.8H1099.9z"
       id="path3803" /><path
       fill="#231F20"
       d="M1109.3,54.7L1109.3,54.7c-0.7,0-1.1-0.4-1.1-1c0-0.6,0.4-1,1-1h0.1v-0.5c0-0.9,0.2-1.6,0.7-2.1   c0.4-0.4,1.1-0.7,2-0.7c0.4,0,0.7,0,1,0.1c0.4,0.1,0.8,0.4,0.8,1c0,0.5-0.4,1-1,1h-0.2c-0.6,0-0.9,0.3-0.9,0.9v0.3h1.1   c0.6,0,1,0.4,1,1c0,0.6-0.4,1-1,1h-1v5.4c0,0.7-0.5,1.2-1.2,1.2s-1.2-0.5-1.2-1.2V54.7z"
       id="path3805" /><path
       fill="#231F20"
       d="M1120.5,63.2c-0.4-0.2-0.7-0.5-0.7-0.9c0-0.5,0.4-1,1-1c0.2,0,0.3,0,0.4,0.1c0.7,0.3,1.5,0.5,2.4,0.5   c1.7,0,2.4-0.8,2.4-2.3v-0.4c-0.7,0.9-1.5,1.4-2.8,1.4c-2,0-3.8-1.5-3.8-4v0c0-2.6,1.8-4,3.8-4c1.3,0,2.1,0.6,2.8,1.3v0   c0-0.7,0.5-1.2,1.2-1.2s1.2,0.5,1.2,1.2v5.5c0,1.5-0.4,2.7-1.1,3.4c-0.8,0.8-2,1.2-3.7,1.2C1122.5,63.8,1121.5,63.6,1120.5,63.2z    M1126,56.5L1126,56.5c0-1.2-0.9-2-2.1-2c-1.2,0-2.1,0.8-2.1,2v0c0,1.2,0.9,2,2.1,2C1125.1,58.5,1126,57.7,1126,56.5z"
       id="path3807" /><path
       fill="#231F20"
       d="M1135.4,50.7c0-0.7,0.5-1.2,1.2-1.2c0.7,0,1.2,0.5,1.2,1.2v3.2c0.6-0.7,1.3-1.4,2.5-1.4   c1.8,0,2.9,1.2,2.9,3.2v4.4c0,0.7-0.5,1.2-1.2,1.2c-0.7,0-1.2-0.5-1.2-1.2v-3.7c0-1.2-0.5-1.7-1.5-1.7s-1.5,0.6-1.5,1.7v3.7   c0,0.7-0.5,1.2-1.2,1.2c-0.7,0-1.2-0.5-1.2-1.2V50.7z"
       id="path3809" /><path
       fill="#231F20"
       d="M1150.1,50.6c0-0.7,0.6-1.1,1.4-1.1c0.8,0,1.4,0.4,1.4,1.1v0c0,0.7-0.6,1.2-1.4,1.2   C1150.7,51.8,1150.1,51.3,1150.1,50.6L1150.1,50.6z M1150.3,53.8c0-0.7,0.5-1.2,1.2-1.2s1.2,0.5,1.2,1.2v6.3c0,0.7-0.5,1.2-1.2,1.2   s-1.2-0.5-1.2-1.2V53.8z"
       id="path3811" /><path
       fill="#231F20"
       d="M1159.7,63.8c-0.8,0-1.4-0.3-1.4-1c0-0.6,0.4-1,0.9-1h0c0.4,0,0.6-0.2,0.6-0.8v-7.3c0-0.7,0.5-1.2,1.2-1.2   s1.2,0.5,1.2,1.2v7.3C1162.3,63,1161.4,63.8,1159.7,63.8L1159.7,63.8z M1159.8,50.6c0-0.7,0.6-1.1,1.4-1.1c0.8,0,1.4,0.4,1.4,1.1v0   c0,0.7-0.6,1.2-1.4,1.2C1160.4,51.8,1159.8,51.3,1159.8,50.6L1159.8,50.6z"
       id="path3813" /><path
       fill="#231F20"
       d="M1169.4,50.7c0-0.7,0.5-1.2,1.2-1.2c0.7,0,1.2,0.5,1.2,1.2V56l3-2.9c0.4-0.3,0.6-0.5,1.1-0.5   c0.7,0,1.1,0.5,1.1,1.1c0,0.4-0.2,0.7-0.6,1.1l-1.9,1.6l2.3,3.1c0.2,0.3,0.3,0.5,0.3,0.8c0,0.7-0.5,1.1-1.1,1.1   c-0.5,0-0.8-0.2-1.1-0.6l-2.1-2.9l-1,0.9v1.4c0,0.7-0.5,1.2-1.2,1.2c-0.7,0-1.2-0.5-1.2-1.2V50.7z"
       id="path3815" /><path
       fill="#231F20"
       d="M1183.8,50.7c0-0.7,0.5-1.2,1.2-1.2c0.7,0,1.2,0.5,1.2,1.2v9.4c0,0.7-0.5,1.2-1.2,1.2   c-0.7,0-1.2-0.5-1.2-1.2V50.7z"
       id="path3817" /><path
       fill="#231F20"
       d="M1193.3,53.8c0-0.7,0.5-1.2,1.2-1.2c0.7,0,1.2,0.5,1.2,1.2v0.1c0.6-0.7,1.3-1.4,2.5-1.4   c1.1,0,2,0.5,2.4,1.4c0.8-0.9,1.6-1.4,2.8-1.4c1.8,0,2.9,1.1,2.9,3.2v4.5c0,0.7-0.5,1.2-1.2,1.2c-0.7,0-1.2-0.5-1.2-1.2v-3.7   c0-1.2-0.5-1.7-1.4-1.7s-1.5,0.6-1.5,1.7v3.7c0,0.7-0.5,1.2-1.2,1.2c-0.7,0-1.2-0.5-1.2-1.2v-3.7c0-1.2-0.5-1.7-1.4-1.7   s-1.5,0.6-1.5,1.7v3.7c0,0.7-0.5,1.2-1.2,1.2c-0.7,0-1.2-0.5-1.2-1.2V53.8z"
       id="path3819" /><path
       fill="#231F20"
       d="M1213.3,53.8c0-0.7,0.5-1.2,1.2-1.2c0.7,0,1.2,0.5,1.2,1.2v0.1c0.6-0.7,1.3-1.4,2.5-1.4   c1.8,0,2.9,1.2,2.9,3.2v4.4c0,0.7-0.5,1.2-1.2,1.2s-1.2-0.5-1.2-1.2v-3.7c0-1.2-0.5-1.7-1.5-1.7c-0.9,0-1.5,0.6-1.5,1.7v3.7   c0,0.7-0.5,1.2-1.2,1.2c-0.7,0-1.2-0.5-1.2-1.2V53.8z"
       id="path3821" /><path
       fill="#231F20"
       d="M1227.6,57L1227.6,57c0-2.5,2-4.5,4.7-4.5c2.7,0,4.6,2,4.6,4.4v0c0,2.5-2,4.5-4.7,4.5   C1229.6,61.4,1227.6,59.5,1227.6,57z M1234.5,57L1234.5,57c0-1.3-0.9-2.4-2.3-2.4c-1.4,0-2.2,1.1-2.2,2.3v0c0,1.3,0.9,2.4,2.3,2.4   C1233.7,59.3,1234.5,58.3,1234.5,57z"
       id="path3823" /><path
       fill="#231F20"
       d="M1243.5,53.8c0-0.7,0.5-1.2,1.2-1.2c0.7,0,1.2,0.5,1.2,1.2v0.1c0.6-0.8,1.4-1.4,2.7-1.4   c2,0,3.9,1.6,3.9,4.4v0c0,2.9-1.9,4.4-3.9,4.4c-1.3,0-2.1-0.6-2.7-1.3v2.6c0,0.7-0.5,1.2-1.2,1.2c-0.7,0-1.2-0.5-1.2-1.2V53.8z    M1250,57L1250,57c0-1.5-1-2.4-2.1-2.4s-2.1,0.9-2.1,2.4v0c0,1.4,0.9,2.4,2.1,2.4S1250,58.4,1250,57z"
       id="path3825" /><path
       fill="#231F20"
       d="M1267.7,62.7c0,0.7-0.5,1.2-1.2,1.2c-0.7,0-1.2-0.5-1.2-1.2V60c-0.6,0.8-1.4,1.4-2.7,1.4   c-2,0-3.9-1.6-3.9-4.4v0c0-2.9,1.9-4.4,3.9-4.4c1.3,0,2.1,0.6,2.7,1.3v0c0-0.7,0.5-1.2,1.2-1.2c0.7,0,1.2,0.5,1.2,1.2V62.7z    M1261.1,56.9L1261.1,56.9c0,1.5,1,2.4,2.1,2.4s2.1-0.9,2.1-2.4v0c0-1.4-0.9-2.4-2.1-2.4S1261.1,55.5,1261.1,56.9z"
       id="path3827" /><path
       fill="#231F20"
       d="M1274.7,53.8c0-0.7,0.5-1.2,1.2-1.2c0.7,0,1.2,0.5,1.2,1.2v0.4c0.4-0.8,0.9-1.6,1.6-1.6   c0.8,0,1.2,0.5,1.2,1.2c0,0.6-0.4,1-0.9,1.1c-1.2,0.3-1.9,1.2-1.9,3v2.3c0,0.7-0.5,1.2-1.2,1.2c-0.7,0-1.2-0.5-1.2-1.2V53.8z"
       id="path3829" /><path
       fill="#231F20"
       d="M1285.9,60.4c-0.3-0.2-0.5-0.4-0.5-0.8c0-0.5,0.4-1,1-1c0.2,0,0.4,0,0.5,0.1c0.8,0.5,1.6,0.8,2.3,0.8   c0.7,0,1-0.3,1-0.6v0c0-0.5-0.8-0.7-1.8-1c-1.2-0.4-2.6-0.9-2.6-2.6v0c0-1.7,1.4-2.7,3.1-2.7c0.9,0,1.8,0.2,2.7,0.7   c0.4,0.2,0.6,0.5,0.6,0.9c0,0.5-0.4,1-1,1c-0.2,0-0.3,0-0.4-0.1c-0.7-0.3-1.3-0.5-1.9-0.5c-0.6,0-0.9,0.3-0.9,0.6v0   c0,0.5,0.8,0.7,1.7,1c1.2,0.4,2.6,1,2.6,2.5v0c0,1.9-1.4,2.8-3.3,2.8C1288.1,61.4,1287,61.1,1285.9,60.4z"
       id="path3831" /><path
       fill="#231F20"
       d="M1299.4,58.8v-4.1h-0.1c-0.6,0-1-0.5-1-1s0.5-1,1-1h0.1v-1.1c0-0.7,0.5-1.2,1.2-1.2c0.7,0,1.2,0.5,1.2,1.2   v1.1h1.1c0.6,0,1,0.5,1,1s-0.5,1-1,1h-1.1v3.7c0,0.6,0.2,0.8,0.8,0.8c0.1,0,0.2,0,0.3,0c0.5,0,1,0.4,1,1c0,0.4-0.3,0.8-0.6,0.9   c-0.4,0.2-0.9,0.2-1.4,0.2C1300.4,61.4,1299.4,60.8,1299.4,58.8z"
       id="path3833" /><path
       fill="#231F20"
       d="M1318.2,60.1c0,0.7-0.5,1.2-1.2,1.2c-0.7,0-1.2-0.5-1.2-1.2V60c-0.6,0.7-1.3,1.4-2.5,1.4   c-1.8,0-2.9-1.2-2.9-3.2v-4.4c0-0.7,0.5-1.2,1.2-1.2s1.2,0.5,1.2,1.2v3.7c0,1.2,0.5,1.7,1.5,1.7c0.9,0,1.5-0.6,1.5-1.7v-3.7   c0-0.7,0.5-1.2,1.2-1.2c0.7,0,1.2,0.5,1.2,1.2V60.1z"
       id="path3835" /><path
       fill="#231F20"
       d="M1328.9,61.4h-0.1c-0.7,0-1.1-0.4-1.4-1.1l-2.6-6.1c-0.1-0.2-0.1-0.4-0.1-0.6c0-0.6,0.5-1.1,1.2-1.1   s1,0.4,1.2,0.9l1.8,5l1.9-5c0.2-0.4,0.5-0.8,1.1-0.8s1.2,0.5,1.2,1.2c0,0.2-0.1,0.5-0.1,0.6l-2.6,6.1   C1330,61,1329.5,61.4,1328.9,61.4z"
       id="path3837" /><path
       fill="#231F20"
       d="M1341,60.3l-2.1-6.1c0-0.1-0.1-0.4-0.1-0.6c0-0.6,0.4-1.1,1.2-1.1c0.6,0,1,0.4,1.2,0.9l1.3,4.4l1.3-4.3   c0.2-0.6,0.6-1,1.2-1h0.1c0.6,0,1.1,0.4,1.2,1l1.4,4.4l1.3-4.4c0.2-0.5,0.5-0.9,1.2-0.9c0.7,0,1.1,0.5,1.1,1.1c0,0.2,0,0.4-0.1,0.5   l-2.2,6.1c-0.3,0.8-0.8,1.1-1.3,1.1h-0.1c-0.6,0-1.1-0.3-1.3-1l-1.4-4.3l-1.4,4.3c-0.2,0.7-0.7,1-1.3,1h-0.1   C1341.7,61.4,1341.2,61.1,1341,60.3z"
       id="path3839" /><path
       fill="#231F20"
       d="M1357.7,59.5l2.2-2.6l-2-2.3c-0.3-0.3-0.4-0.6-0.4-0.9c0-0.7,0.5-1.1,1.1-1.1c0.5,0,0.8,0.2,1.1,0.6   l1.6,2.1l1.6-2.1c0.3-0.4,0.6-0.6,1.1-0.6c0.6,0,1.1,0.4,1.1,1.1c0,0.3-0.1,0.6-0.3,0.8l-2.1,2.4l2.1,2.5c0.3,0.3,0.4,0.6,0.4,0.9   c0,0.7-0.5,1.1-1.1,1.1c-0.5,0-0.8-0.2-1.1-0.6l-1.7-2.3l-1.7,2.3c-0.3,0.4-0.6,0.6-1.1,0.6c-0.6,0-1.1-0.4-1.1-1.1   C1357.3,60,1357.5,59.7,1357.7,59.5z"
       id="path3841" /><path
       fill="#231F20"
       d="M1372.2,63.6c-0.4-0.1-0.8-0.4-0.8-1c0-0.6,0.5-1,1-1c0.2,0,0.3,0,0.4,0.1c0.2,0.1,0.3,0.1,0.5,0.1   c0.4,0,0.6-0.1,0.9-0.5l0.1-0.2l-2.9-6.8c-0.1-0.2-0.1-0.4-0.1-0.6c0-0.7,0.5-1.2,1.2-1.2c0.6,0,1,0.3,1.2,0.9l1.9,5l1.8-5   c0.2-0.5,0.5-0.9,1.2-0.9c0.6,0,1.2,0.5,1.2,1.1c0,0.2-0.1,0.5-0.1,0.6l-3,7.2c-0.7,1.7-1.4,2.4-2.9,2.4   C1373,63.8,1372.6,63.8,1372.2,63.6z"
       id="path3843" /><path
       fill="#231F20"
       d="M1385.6,60.3L1385.6,60.3c0-0.5,0.2-0.8,0.5-1.2l4-4.4h-3.4c-0.5,0-1-0.4-1-1s0.4-1,1-1h5.3   c0.7,0,1.2,0.4,1.2,1v0c0,0.5-0.2,0.8-0.5,1.2l-4,4.4h3.6c0.5,0,1,0.4,1,1c0,0.5-0.4,1-1,1h-5.5   C1386.1,61.2,1385.6,60.8,1385.6,60.3z"
       id="path3845" /></g><path
     fill="#231F20"
     d="M1160.5,442.9l-0.9-0.2c-0.1,0-0.3-0.1-0.4-0.2c-0.5-0.3-0.7-1-0.4-1.5c0.2-0.4,0.7-0.6,1.2-0.5l1.6,0.4  c0.5,0.1,0.8,0.2,1.1,0.4l0,0c0.6,0.3,0.8,1.1,0.4,1.7l-4.5,7.8c-0.3,0.6-1.1,0.8-1.7,0.4c-0.6-0.3-0.8-1.1-0.4-1.7L1160.5,442.9z"
     id="path3847" /><path
     fill="#231F20"
     d="M1167.4,445.8l4.1-0.7c1.8-0.3,2.6-0.6,3-1.4c0.5-0.8,0.2-1.6-0.6-2c-0.6-0.4-1.2-0.3-2.1-0.1  c-0.2,0.1-0.6,0.1-0.9-0.1c-0.5-0.3-0.7-1-0.4-1.5c0.1-0.2,0.4-0.4,0.6-0.5c1.3-0.5,2.5-0.5,4,0.4c2,1.2,2.7,3.1,1.6,4.9l0,0  c-0.9,1.6-2.2,1.9-4.7,2.3l-2.3,0.3l3.4,2c0.5,0.3,0.7,1,0.4,1.5c-0.3,0.5-0.9,0.7-1.5,0.4l-5.3-3c-0.7-0.4-0.9-1-0.6-1.7  C1166.5,446.1,1166.9,445.9,1167.4,445.8z"
     id="path3849" /><path
     fill="#231F20"
     d="M1177.9,447.8c-0.1-0.3-0.1-0.7,0.1-1c0.3-0.6,1.1-0.8,1.6-0.4c0.3,0.2,0.4,0.4,0.5,0.7  c0.3,0.8,0.7,1.4,1.5,1.8c0.8,0.5,1.6,0.3,2.1-0.4l0,0c0.5-0.8,0-1.6-1.2-2.3l-0.3-0.2c-0.5-0.3-0.7-0.9-0.4-1.4  c0.2-0.3,0.4-0.5,1-0.6l3-0.8l-3-1.7c-0.5-0.3-0.7-0.9-0.4-1.4c0.3-0.5,0.9-0.7,1.4-0.4l4.7,2.7c0.6,0.4,0.9,1,0.5,1.6  c-0.3,0.5-0.7,0.7-1.3,0.8l-2.9,0.7c1.2,1,2.1,2.4,1,4.2l0,0c-1.1,1.8-3.2,2.4-5.3,1.2C1179,450,1178.3,448.9,1177.9,447.8z"
     id="path3851" /><path
     fill="#231F20"
     d="M1194.5,448.5l-4-2.3c-0.6-0.3-0.8-1-0.5-1.6c0.3-0.4,0.6-0.7,1.2-0.9l7-2.5c0.7-0.2,1.1-0.3,1.7,0  c0.6,0.3,0.8,1,0.4,1.6l-2.9,5l0.5,0.3c0.5,0.3,0.6,0.9,0.4,1.4c-0.3,0.5-0.9,0.6-1.4,0.4l-0.5-0.3l-0.7,1.2c-0.3,0.6-1,0.7-1.6,0.4  s-0.8-1-0.4-1.6L1194.5,448.5z M1195.5,446.8l1.7-3l-4.3,1.5L1195.5,446.8z"
     id="path3853" /><path
     fill="#231F20"
     d="M1201.5,448.1c-0.1-0.3-0.2-0.7,0-1.1c0.3-0.6,1-0.8,1.6-0.4c0.2,0.1,0.4,0.3,0.5,0.5  c0.3,0.8,0.8,1.3,1.5,1.7c0.9,0.5,1.8,0.4,2.3-0.4l0,0c0.5-0.8,0.1-1.7-1-2.3c-0.8-0.5-1.3-0.4-1.6-0.6c-0.3-0.2-0.5-0.4-0.7-1  c-0.2-0.4-0.1-0.7,0.1-1.1l2.1-3.2c0.3-0.5,1-0.7,1.5-0.4l4.2,2.4c0.5,0.3,0.7,1,0.4,1.5c-0.3,0.5-1,0.7-1.5,0.4l-3.3-1.9l-1.1,1.6  c0.4,0.1,0.8,0.3,1.4,0.6c1.9,1.1,2.9,2.9,1.6,5.1l0,0c-1.2,2.1-3.4,2.5-5.6,1.3C1202.7,450,1202,449.1,1201.5,448.1z"
     id="path3855" /><path
     fill="#231F20"
     d="M1213.6,448.1c-0.3-1.1-0.1-2.4,1-4.3l0,0c1.7-3,4.4-4.5,7.3-2.8c1,0.6,1.6,1.3,2,1.9c0.2,0.4,0.3,0.8,0,1.2  c-0.3,0.6-1,0.7-1.6,0.4c-0.2-0.1-0.3-0.3-0.4-0.5c-0.3-0.5-0.6-0.9-1.2-1.2c-1.2-0.7-2.4-0.1-3.3,1.1c0.7,0,1.4,0,2.4,0.5  c1.9,1.1,2.8,3,1.6,5.1l0,0c-1.1,2-3.5,2.4-5.6,1.2C1214.5,450,1213.9,449.2,1213.6,448.1z M1219.3,448.4L1219.3,448.4  c0.5-0.8,0.2-1.8-0.9-2.4c-1.1-0.6-2-0.4-2.5,0.4l0,0c-0.5,0.8-0.2,1.8,0.9,2.4C1217.8,449.5,1218.8,449.2,1219.3,448.4z"
     id="path3857" /><path
     fill="#231F20"
     d="M1225.7,449.1l7.3-4.2l-3.7-2.1c-0.5-0.3-0.7-0.9-0.4-1.5s1-0.7,1.5-0.4l5.3,3c0.6,0.3,0.8,0.9,0.4,1.5  c-0.2,0.3-0.5,0.6-0.9,0.9l-8,4.8c-0.6,0.4-1,0.4-1.4,0.1c-0.6-0.3-0.9-1-0.5-1.6C1225.2,449.5,1225.5,449.2,1225.7,449.1z"
     id="path3859" /><path
     fill="#231F20"
     d="M1237.5,445.6L1237.5,445.6c0.7-1.2,1.6-1.6,2.9-1.5c-0.5-0.9-0.6-1.8,0-2.8l0,0c0.9-1.5,2.9-1.9,4.9-0.7  s2.7,3.1,1.9,4.6l0,0c-0.6,1-1.4,1.4-2.5,1.4c0.7,1.1,0.9,2,0.2,3.2l0,0c-1,1.8-3.2,1.9-5.4,0.7  C1237.4,449.4,1236.5,447.3,1237.5,445.6z M1243,448.6L1243,448.6c0.4-0.8,0-1.6-1-2.2c-1-0.6-1.9-0.5-2.4,0.2l0,0  c-0.4,0.7-0.1,1.6,1,2.2C1241.7,449.5,1242.6,449.3,1243,448.6z M1245,444.4L1245,444.4c0.4-0.6,0.2-1.5-0.7-2  c-0.9-0.5-1.7-0.3-2,0.3l0,0c-0.4,0.7-0.1,1.5,0.7,2S1244.7,445,1245,444.4z"
     id="path3861" /><path
     fill="#231F20"
     d="M1248.9,448.6c-0.2-0.3-0.2-0.8,0-1.2c0.3-0.6,1-0.7,1.6-0.4c0.2,0.1,0.3,0.3,0.5,0.5c0.3,0.6,0.7,1,1.3,1.3  c1.2,0.7,2.3,0.2,3.2-1.1c-0.7,0.1-1.5,0-2.4-0.5c-2.1-1.2-2.8-3.2-1.7-5.1l0,0c1.1-2,3.5-2.5,5.7-1.3c1.3,0.8,1.9,1.5,2.2,2.7  c0.3,1.1,0.1,2.4-1,4.3l0,0c-1.8,3.1-4.5,4.4-7.3,2.8C1250,450.1,1249.4,449.4,1248.9,448.6z M1257,445.2L1257,445.2  c0.5-0.9,0.2-1.9-0.8-2.5c-1.1-0.6-2-0.3-2.5,0.5l0,0c-0.5,0.9-0.2,1.8,0.9,2.4C1255.5,446.3,1256.5,446.1,1257,445.2z"
     id="path3863" /><path
     fill="#231F20"
     d="M1261.6,443.3L1261.6,443.3c1.6-2.8,4.7-4,7.2-2.5c2.6,1.5,3,4.7,1.4,7.5l0,0c-1.6,2.8-4.6,4-7.2,2.5  S1259.9,446.1,1261.6,443.3z M1268,447L1268,447c1-1.8,0.9-3.6-0.3-4.4s-2.9,0.1-3.9,1.8l0,0c-1,1.8-0.9,3.6,0.3,4.3  C1265.4,449.6,1267,448.8,1268,447z"
     id="path3865" /><path
     fill="#231F20"
     d="M1029.8,370.3l7.8-5.7c0.5-0.4,1.2-0.5,1.7-0.1l0.1,0.1c0.6,0.3,0.8,0.9,0.7,1.6l-1,9.6  c0,0.2-0.1,0.4-0.1,0.5c-0.3,0.6-1,0.8-1.6,0.4c-0.5-0.3-0.7-0.8-0.6-1.3l0.2-1.9l-4.3-2.5l-1.6,1.2c-0.4,0.3-0.9,0.4-1.4,0.1  c-0.6-0.3-0.7-1-0.4-1.6C1029.5,370.5,1029.6,370.4,1029.8,370.3z M1037.3,371.1l0.5-4l-3.2,2.4L1037.3,371.1z"
     id="path3867" /><path
     fill="#231F20"
     d="M1049.3,364.6c0.3-0.6,1.1-0.8,1.7-0.5l3.4,2c1.1,0.6,1.8,1.4,2,2.3c0.2,0.7,0.1,1.4-0.3,2l0,0  c-0.6,1.1-1.6,1.4-2.5,1.4c0.9,1.1,1.2,2.1,0.4,3.4l0,0c-1,1.8-3,1.8-5.2,0.6l-3.5-2c-0.6-0.3-0.8-1.1-0.5-1.7L1049.3,364.6z   M1051.7,369.8c0.9,0.5,1.7,0.6,2.1-0.1l0,0c0.4-0.6,0.1-1.3-0.8-1.8l-2.1-1.2l-1.2,2.1L1051.7,369.8z M1050,374  c0.9,0.5,1.7,0.5,2.1-0.2l0,0c0.4-0.7,0.1-1.3-1-2l-2.5-1.4l-1.2,2.1L1050,374z"
     id="path3869" /><path
     fill="#231F20"
     d="M1060.8,368L1060.8,368c1.6-2.8,5-3.8,8-2.1c1.5,0.8,2.2,1.8,2.7,2.9c0.1,0.3,0.1,0.7-0.1,1.1  c-0.3,0.6-1.1,0.8-1.7,0.4c-0.3-0.2-0.4-0.4-0.5-0.6c-0.3-0.8-0.8-1.4-1.6-1.8c-1.6-0.9-3.6-0.3-4.6,1.4l0,0c-1,1.7-0.6,3.7,1.1,4.7  c0.9,0.5,1.7,0.6,2.5,0.5c0.2,0,0.5,0,0.8,0.1c0.5,0.3,0.7,1,0.4,1.6c-0.2,0.3-0.5,0.5-0.8,0.6c-1.3,0.3-2.6,0.1-4.2-0.8  C1060.1,374.2,1059.2,370.8,1060.8,368z"
     id="path3871" /><path
     fill="#231F20"
     d="M1077.8,365.1c0.3-0.6,1.1-0.8,1.7-0.5l2.7,1.6c3,1.8,3.9,5.1,2.4,7.8l0,0c-1.6,2.7-4.9,3.6-8,1.9l-2.7-1.6  c-0.6-0.3-0.8-1.1-0.5-1.7L1077.8,365.1z M1077.7,374c1.7,1,3.6,0.5,4.6-1.2l0,0c1-1.7,0.5-3.6-1.2-4.6l-1.6-1l-3.4,5.8L1077.7,374z  "
     id="path3873" /><path
     fill="#231F20"
     d="M1088.5,371.8l4.4-7.6c0.3-0.6,1.1-0.8,1.7-0.5l5.4,3.1c0.5,0.3,0.7,1,0.4,1.5s-1,0.7-1.5,0.4l-4.3-2.5  l-1.1,2l3.7,2.1c0.5,0.3,0.7,1,0.4,1.5s-1,0.7-1.5,0.4l-3.7-2.1l-1.2,2l4.4,2.5c0.5,0.3,0.7,1,0.4,1.5s-1,0.7-1.5,0.4l-5.4-3.1  C1088.3,373.1,1088.1,372.4,1088.5,371.8z"
     id="path3875" /><path
     fill="#231F20"
     d="M1106.3,367.3c0.3-0.6,1.1-0.8,1.7-0.5l5.4,3.1c0.5,0.3,0.7,1,0.4,1.5c-0.3,0.5-1,0.7-1.5,0.4l-4.4-2.5  l-1.2,2.1l3.7,2.2c0.5,0.3,0.7,1,0.4,1.5c-0.3,0.5-1,0.7-1.5,0.4l-3.7-2.2l-1.6,2.8c-0.3,0.6-1.1,0.8-1.7,0.5  c-0.6-0.3-0.8-1.1-0.5-1.7L1106.3,367.3z"
     id="path3877" /><path
     fill="#231F20"
     d="M1116.9,367.9L1116.9,367.9c1.6-2.8,5.1-3.8,8-2.1c1.5,0.8,2.2,1.7,2.8,2.9c0.1,0.3,0.2,0.7-0.1,1.1  c-0.3,0.6-1.1,0.8-1.7,0.4c-0.3-0.2-0.4-0.4-0.5-0.6c-0.3-0.8-0.8-1.4-1.7-1.9c-1.6-0.9-3.6-0.2-4.5,1.4l0,0c-1,1.8-0.6,3.8,1.2,4.8  c0.8,0.4,1.6,0.7,2.3,0.6l0.8-1.4l-1.4-0.8c-0.5-0.3-0.7-0.9-0.4-1.5s1-0.7,1.5-0.4l2.4,1.4c0.6,0.3,0.8,1.1,0.5,1.7l-1.4,2.4  c-0.4,0.6-0.8,0.9-1.5,0.9c-1.1,0-2.5-0.2-4-1C1116.1,374,1115.2,370.7,1116.9,367.9z"
     id="path3879" /><path
     fill="#231F20"
     d="M1134.6,363.7c0.3-0.6,1.1-0.8,1.7-0.5c0.6,0.3,0.8,1.1,0.5,1.7l-1.6,2.9l3.9,2.3l1.6-2.9  c0.3-0.6,1.1-0.8,1.7-0.5c0.6,0.3,0.8,1.1,0.5,1.7l-4.5,7.7c-0.3,0.6-1.1,0.8-1.7,0.5c-0.6-0.3-0.8-1.1-0.5-1.7l1.7-2.9l-3.9-2.3  l-1.7,2.9c-0.3,0.6-1.1,0.8-1.7,0.5c-0.6-0.3-0.8-1.1-0.5-1.7L1134.6,363.7z"
     id="path3881" /><path
     fill="#231F20"
     d="M1149.4,367.2c0.3-0.6,1.1-0.8,1.7-0.5c0.6,0.3,0.8,1.1,0.5,1.7l-4.5,7.7c-0.3,0.6-1.1,0.8-1.7,0.5  c-0.6-0.3-0.8-1.1-0.5-1.7L1149.4,367.2z"
     id="path3883" /><path
     fill="#231F20"
     d="M1153.1,373.8c-0.1-0.3-0.1-0.7,0.1-1.1c0.3-0.6,1-0.8,1.6-0.4c0.3,0.2,0.4,0.3,0.5,0.6  c0.2,0.6,0.5,0.9,1,1.2c0.8,0.5,1.6,0.3,2.3-0.8l3-5.3c0.3-0.6,1.1-0.8,1.7-0.5c0.6,0.3,0.8,1.1,0.5,1.7l-3.1,5.4  c-0.7,1.2-1.5,1.8-2.4,2.1c-0.9,0.3-2,0.1-3-0.6C1154.1,375.5,1153.4,374.6,1153.1,373.8z"
     id="path3885" /><path
     fill="#231F20"
     d="M1170,363.7c0.3-0.6,1.1-0.8,1.7-0.5c0.6,0.3,0.8,1.1,0.5,1.7l-1.9,3.3l6.2-1.6c0.4-0.1,0.8-0.1,1.1,0.1  c0.6,0.3,0.7,1,0.4,1.6c-0.2,0.3-0.5,0.5-0.9,0.6l-4.2,1l0.8,5.5c0,0.3,0,0.6-0.1,0.9c-0.3,0.6-1.1,0.8-1.7,0.4  c-0.4-0.2-0.5-0.6-0.6-1l-0.7-5.2l-1.9,0.4l-1.1,1.9c-0.3,0.6-1.1,0.8-1.7,0.5c-0.6-0.3-0.8-1.1-0.5-1.7L1170,363.7z"
     id="path3887" /><path
     fill="#231F20"
     d="M1184.1,364.4c0.3-0.6,1.1-0.8,1.7-0.5c0.6,0.3,0.8,1.1,0.5,1.7l-3.9,6.8l4,2.3c0.5,0.3,0.7,1,0.4,1.5  c-0.3,0.5-1,0.7-1.5,0.4l-5-2.9c-0.6-0.3-0.8-1.1-0.5-1.7L1184.1,364.4z"
     id="path3889" /><path
     fill="#231F20"
     d="M1196.8,362.9c0.3-0.6,1.1-0.8,1.7-0.5l0.2,0.1c0.5,0.3,0.6,0.7,0.6,1.1l0.2,5.7l5-2.7  c0.4-0.2,0.8-0.2,1.3,0l0.2,0.1c0.6,0.3,0.8,1.1,0.5,1.7l-4.5,7.7c-0.3,0.6-1.1,0.8-1.7,0.5c-0.6-0.3-0.8-1.1-0.4-1.7l2.8-4.8  l-3.5,1.8c-0.4,0.2-0.8,0.3-1.2,0c-0.4-0.2-0.5-0.6-0.6-1.1l-0.2-3.9l-2.8,4.8c-0.3,0.6-1.1,0.8-1.7,0.4c-0.6-0.3-0.8-1.1-0.4-1.6  L1196.8,362.9z"
     id="path3891" /><path
     fill="#231F20"
     d="M1213,363.5c0.3-0.6,1.1-0.8,1.7-0.5l0.2,0.1c0.5,0.3,0.7,0.7,0.7,1.3l1,7.8l2.9-5c0.3-0.6,1.1-0.8,1.7-0.4  c0.6,0.3,0.8,1.1,0.4,1.7l-4.5,7.7c-0.3,0.6-1.1,0.8-1.7,0.5l-0.1,0c-0.5-0.3-0.7-0.7-0.7-1.3l-1-8.1l-3,5.2  c-0.3,0.6-1.1,0.8-1.7,0.4c-0.6-0.3-0.8-1.1-0.4-1.7L1213,363.5z"
     id="path3893" /><path
     fill="#231F20"
     d="M1225.4,368L1225.4,368c1.6-2.8,5.1-3.8,8.1-2.1c3,1.7,3.9,5.2,2.3,8l0,0c-1.6,2.8-5.1,3.8-8.1,2  C1224.7,374.2,1223.8,370.7,1225.4,368z M1233.5,372.6L1233.5,372.6c1-1.7,0.6-3.8-1.2-4.8c-1.7-1-3.7-0.3-4.7,1.3l0,0  c-1,1.7-0.5,3.8,1.2,4.7C1230.6,375,1232.5,374.3,1233.5,372.6z"
     id="path3895" /><path
     fill="#231F20"
     d="M1244,367.3c0.3-0.6,1.1-0.8,1.7-0.5l2.9,1.7c2.3,1.3,2.9,3.5,1.8,5.5l0,0c-1.3,2.2-3.7,2.4-5.9,1.1  l-1.6-0.9l-1.1,1.9c-0.3,0.6-1.1,0.8-1.7,0.5c-0.6-0.3-0.8-1.1-0.5-1.7L1244,367.3z M1245.6,373.3c1.1,0.6,2.1,0.3,2.5-0.5l0,0  c0.6-1,0.2-1.9-0.9-2.5l-1.7-1l-1.7,3L1245.6,373.3z"
     id="path3897" /><path
     fill="#231F20"
     d="M1254.8,366.4L1254.8,366.4c1.6-2.8,5.1-3.8,8.1-2.1c3,1.7,3.9,5.2,2.3,8l0,0c-0.6,1-1.5,1.8-2.5,2.3  l0.2,0.6c0.1,0.3,0.1,0.7-0.1,1c-0.3,0.6-1,0.8-1.6,0.4c-0.3-0.2-0.5-0.4-0.5-0.7l-0.3-0.8c-1.1,0.1-2.3-0.2-3.4-0.8  C1254,372.6,1253.2,369.1,1254.8,366.4z M1259.2,370.4c0.3-0.6,1-0.8,1.6-0.4c0.3,0.2,0.4,0.4,0.5,0.7l0.5,1.6  c0.4-0.3,0.8-0.7,1-1.2l0,0c1-1.7,0.5-3.8-1.2-4.7c-1.7-1-3.7-0.3-4.7,1.3l0,0c-1,1.7-0.5,3.8,1.2,4.7c0.5,0.3,0.9,0.4,1.4,0.5  l-0.5-1.4C1259,371.1,1259,370.7,1259.2,370.4z"
     id="path3899" /><path
     fill="#231F20"
     d="M1273.3,363.9c0.3-0.6,1.1-0.8,1.7-0.5l3.4,1.9c1.2,0.7,2,1.6,2.3,2.6c0.2,0.9,0.1,1.8-0.4,2.7l0,0  c-0.9,1.5-2.2,2-3.6,1.8l0.4,2.7c0.1,0.4,0.1,0.7-0.1,1c-0.3,0.6-1.1,0.7-1.6,0.4c-0.5-0.3-0.7-0.7-0.7-1.2l-0.6-3.8l-1.7-1  l-1.2,2.1c-0.3,0.6-1.1,0.8-1.7,0.5c-0.6-0.3-0.8-1.1-0.5-1.7L1273.3,363.9z M1275.5,370c1,0.6,2,0.4,2.4-0.4l0,0  c0.5-0.9,0.2-1.8-0.9-2.4l-2.1-1.2l-1.6,2.8L1275.5,370z"
     id="path3901" /><path
     fill="#231F20"
     d="M1282.9,372.8c-0.1-0.3-0.1-0.7,0.1-1c0.3-0.6,1-0.7,1.6-0.4c0.3,0.2,0.4,0.4,0.5,0.5c0.4,1,1,1.8,2,2.3  c0.9,0.5,1.6,0.5,1.9-0.1l0,0c0.3-0.5,0.1-1-1.2-2.4c-1.7-1.6-2.6-2.9-1.5-4.8l0,0c1-1.8,3.1-2.1,5.1-1c1.2,0.7,2,1.6,2.6,2.6  c0.2,0.3,0.2,0.7,0,1.1c-0.3,0.6-1,0.7-1.6,0.4c-0.2-0.1-0.3-0.3-0.5-0.5c-0.5-0.8-1-1.4-1.7-1.8c-0.8-0.5-1.5-0.3-1.7,0.1l0,0  c-0.4,0.6-0.1,1.1,1.4,2.5c1.7,1.6,2.4,3,1.4,4.7l0,0c-1.1,1.9-3.2,2.2-5.3,1C1284.6,375.3,1283.5,374.2,1282.9,372.8z"
     id="path3903" /><path
     fill="#231F20"
     d="M1302.3,368.2l-2.1-1.2c-0.5-0.3-0.7-1-0.4-1.6c0.3-0.5,1-0.7,1.6-0.4l6.2,3.6c0.5,0.3,0.7,1,0.4,1.6  c-0.3,0.5-1,0.7-1.6,0.4l-2.1-1.2l-3.9,6.8c-0.3,0.6-1.1,0.8-1.7,0.5c-0.6-0.3-0.8-1.1-0.5-1.7L1302.3,368.2z"
     id="path3905" /><path
     fill="#231F20"
     d="M1310.9,369.2l2.6-4.6c0.3-0.6,1.1-0.8,1.7-0.5c0.6,0.3,0.8,1.1,0.5,1.7l-2.6,4.5c-0.9,1.6-0.6,2.9,0.7,3.6  c1.3,0.8,2.5,0.4,3.4-1.1l2.6-4.6c0.3-0.6,1.1-0.8,1.7-0.5c0.6,0.3,0.8,1.1,0.5,1.7l-2.6,4.5c-1.7,2.9-4.2,3.4-6.8,1.9  C1310,374.5,1309.3,372.1,1310.9,369.2z"
     id="path3907" /><path
     fill="#231F20"
     d="M1326.3,375l1.2-9.3c0-0.2,0.1-0.4,0.2-0.6c0.3-0.6,1.1-0.8,1.7-0.4c0.6,0.3,0.7,0.8,0.6,1.4l-1.2,7.7  l6.1-4.9c0.3-0.3,0.9-0.4,1.4-0.1c0.6,0.3,0.8,1.1,0.5,1.6c-0.1,0.2-0.3,0.3-0.4,0.4l-7.6,5.8c-0.5,0.4-1.1,0.5-1.7,0.1l-0.1-0.1  C1326.4,376.2,1326.2,375.6,1326.3,375z"
     id="path3909" /><path
     fill="#231F20"
     d="M1341.7,362.2c0-0.1,0.1-0.3,0.1-0.4c0.3-0.6,1.1-0.8,1.7-0.4c0.5,0.3,0.7,0.8,0.6,1.4l-1.5,7.1l5.3-4.8  c0.5-0.4,1-0.5,1.6-0.2l0.2,0.1c0.5,0.3,0.7,0.9,0.6,1.5l-1.5,7l5.4-4.8c0.4-0.3,0.9-0.5,1.5-0.2c0.6,0.3,0.8,1.1,0.5,1.6  c-0.1,0.1-0.2,0.3-0.3,0.4l-7.1,6.1c-0.5,0.4-1.1,0.5-1.6,0.2l-0.2-0.1c-0.5-0.3-0.7-0.8-0.6-1.5l1.3-6.7l-5.1,4.5  c-0.5,0.4-1.1,0.5-1.6,0.2l-0.2-0.1c-0.5-0.3-0.7-0.9-0.6-1.5L1341.7,362.2z"
     id="path3911" /><path
     fill="#231F20"
     d="M1357.7,370.7l4.5-1.7l-0.7-4.4c0-0.3,0-0.7,0.1-1c0.3-0.6,1.1-0.8,1.7-0.4c0.5,0.3,0.6,0.6,0.7,1.1l0.5,4.1  l3.7-1.6c0.5-0.2,0.9-0.3,1.4,0c0.5,0.3,0.8,0.9,0.4,1.5c-0.2,0.3-0.4,0.5-0.8,0.6l-4.2,1.6l0.8,4.7c0,0.3,0,0.7-0.1,1  c-0.3,0.6-1.1,0.8-1.7,0.4c-0.5-0.3-0.6-0.6-0.7-1.1l-0.6-4.3l-3.9,1.6c-0.5,0.2-0.9,0.3-1.4,0c-0.5-0.3-0.8-0.9-0.4-1.5  C1357.1,371,1357.3,370.8,1357.7,370.7z"
     id="path3913" /><path
     fill="#231F20"
     d="M1375.6,372.2l-0.7-6.1c0-0.3,0-0.6,0.2-0.9c0.3-0.6,1.1-0.8,1.7-0.4c0.5,0.3,0.6,0.7,0.7,1.3l0.4,4.8l4.4-2  c0.5-0.2,1-0.3,1.4,0c0.7,0.4,0.8,1.1,0.4,1.6c-0.2,0.3-0.5,0.5-0.7,0.6l-5.6,2.4l-1.6,2.8c-0.3,0.6-1.1,0.8-1.7,0.5  s-0.8-1.1-0.5-1.7L1375.6,372.2z"
     id="path3915" /><path
     fill="#231F20"
     d="M1384.8,371.5L1384.8,371.5c0.2-0.4,0.6-0.7,1-0.8l8.4-2.9l-4.3-2.5c-0.5-0.3-0.7-1-0.4-1.5  c0.3-0.5,1-0.7,1.5-0.4l6.2,3.6c0.5,0.3,0.7,1,0.4,1.5l0,0c-0.2,0.4-0.5,0.6-1,0.8l-8.4,2.9l4.5,2.6c0.5,0.3,0.7,1,0.4,1.5  c-0.3,0.5-1,0.7-1.5,0.4l-6.4-3.7C1384.6,372.7,1384.5,372,1384.8,371.5z"
     id="path3917" /><path
     fill="#231F20"
     d="M1057.7,409.9L1057.7,409.9c1-1.6,2.6-1.7,4.4-0.7c0.7,0.4,1.2,0.9,1.6,1.4l0.1-0.1c0.5-0.9,0.2-1.7-0.8-2.3  c-0.6-0.3-1.1-0.5-1.6-0.6c-0.1,0-0.2-0.1-0.3-0.1c-0.5-0.3-0.7-0.9-0.4-1.4c0.2-0.4,0.6-0.6,1-0.5c0.8,0.1,1.6,0.4,2.6,1  c1.2,0.7,1.8,1.4,2,2.3c0.2,0.9,0,1.8-0.6,2.8l-2,3.4c-0.3,0.6-1,0.7-1.6,0.4c-0.6-0.4-0.8-1-0.5-1.5l0,0c-0.8,0.3-1.8,0.2-2.8-0.4  C1057.5,412.9,1056.8,411.4,1057.7,409.9z M1062.8,412.2l0.2-0.4c-0.3-0.4-0.7-0.8-1.2-1.1c-0.9-0.5-1.7-0.5-2,0.2l0,0  c-0.3,0.6,0,1.2,0.6,1.6C1061.4,413.1,1062.3,413,1062.8,412.2z"
     id="path3919" /><path
     fill="#231F20"
     d="M1074.5,403.3c0.3-0.6,1.1-0.8,1.7-0.4c0.6,0.3,0.8,1.1,0.4,1.7l-1.6,2.8c0.9-0.4,1.9-0.5,3,0.1  c1.7,1,2.6,3.3,1.2,5.8l0,0c-1.4,2.5-3.8,2.9-5.6,1.9c-1.1-0.6-1.5-1.6-1.7-2.4l0,0c-0.3,0.6-1.1,0.8-1.7,0.4  c-0.6-0.3-0.8-1.1-0.4-1.7L1074.5,403.3z M1077.1,412L1077.1,412c0.7-1.3,0.4-2.6-0.6-3.1c-1-0.6-2.3-0.2-3,1l0,0  c-0.7,1.2-0.4,2.5,0.6,3.1C1075,413.6,1076.3,413.3,1077.1,412z"
     id="path3921" /><path
     fill="#231F20"
     d="M1084.5,408.9L1084.5,408.9c1.2-2.1,3.9-3,6.1-1.6c1.1,0.6,1.7,1.4,2.1,2.3c0.1,0.2,0.1,0.6-0.1,0.9  c-0.3,0.5-1,0.7-1.5,0.4c-0.3-0.2-0.4-0.4-0.5-0.6c-0.2-0.5-0.5-0.9-1-1.2c-1.1-0.6-2.3-0.1-3,1l0,0c-0.7,1.1-0.5,2.5,0.7,3.1  c0.6,0.3,1.1,0.4,1.7,0.3c0.2,0,0.4,0,0.7,0.1c0.5,0.3,0.7,0.9,0.4,1.4c-0.2,0.3-0.4,0.4-0.7,0.5c-1,0.2-2,0.1-3.2-0.6  C1083.9,413.7,1083.3,411,1084.5,408.9z"
     id="path3923" /><path
     fill="#231F20"
     d="M1102.8,415c-0.3,0.6-1.1,0.8-1.7,0.4s-0.8-1.1-0.4-1.7l0.1-0.1c-0.9,0.4-1.9,0.5-3-0.1  c-1.7-1-2.6-3.3-1.2-5.8l0,0c1.4-2.5,3.8-2.9,5.6-1.9c1.1,0.6,1.5,1.6,1.7,2.4l1.6-2.7c0.3-0.6,1.1-0.8,1.7-0.4s0.8,1.1,0.4,1.7  L1102.8,415z M1098.7,409L1098.7,409c-0.7,1.3-0.4,2.6,0.6,3.1c1,0.6,2.3,0.2,3-1l0,0c0.7-1.2,0.4-2.5-0.6-3.1  C1100.7,407.4,1099.5,407.7,1098.7,409z"
     id="path3925" /><path
     fill="#231F20"
     d="M1111.7,415c-2.2-1.3-3-3.8-1.7-6.1l0,0c1.2-2.1,3.7-3,5.9-1.7c2.5,1.4,2.4,4.1,1.5,5.6  c-0.4,0.6-1,0.8-1.6,0.4l-4.2-2.4c-0.3,1.1,0,2,1,2.5c0.6,0.3,1.2,0.4,1.8,0.4c0.2,0,0.4,0,0.6,0.1c0.5,0.3,0.6,0.8,0.3,1.3  c-0.2,0.3-0.4,0.4-0.6,0.5C1113.9,415.8,1112.8,415.6,1111.7,415z M1115.7,411.3c0.4-1,0.2-2-0.7-2.5c-0.9-0.5-1.8-0.2-2.5,0.7  L1115.7,411.3z"
     id="path3927" /><path
     fill="#231F20"
     d="M1124.6,409.2L1124.6,409.2c-0.6-0.3-0.7-0.9-0.5-1.4c0.3-0.5,0.9-0.6,1.4-0.4l0.1,0l0.3-0.5  c0.5-0.8,1-1.3,1.6-1.5c0.6-0.2,1.3,0,2,0.4c0.3,0.2,0.6,0.4,0.8,0.6c0.3,0.3,0.5,0.8,0.2,1.3c-0.3,0.5-0.9,0.6-1.4,0.4l-0.2-0.1  c-0.5-0.3-0.9-0.2-1.2,0.4l-0.2,0.3l0.9,0.5c0.5,0.3,0.7,0.9,0.4,1.4c-0.3,0.5-0.9,0.6-1.4,0.4l-0.9-0.5l-2.7,4.7  c-0.3,0.6-1.1,0.8-1.7,0.4c-0.6-0.3-0.8-1.1-0.4-1.7L1124.6,409.2z"
     id="path3929" /><path
     fill="#231F20"
     d="M1130,412.6c-0.3-0.3-0.3-0.8-0.1-1.2c0.3-0.5,0.9-0.6,1.4-0.4c0.1,0.1,0.2,0.2,0.3,0.3  c0.4,0.6,1,1.2,1.8,1.6c1.4,0.8,2.5,0.5,3.3-0.8l0.2-0.4c-1.1,0.4-2,0.5-3.1-0.2c-1.7-1-2.6-3.2-1.3-5.4l0,0  c1.3-2.2,3.6-2.5,5.3-1.6c1.2,0.7,1.5,1.5,1.8,2.5l0,0c0.3-0.6,1.1-0.8,1.7-0.4c0.6,0.3,0.8,1.1,0.4,1.7l-2.8,4.8  c-0.8,1.3-1.6,2.1-2.6,2.4c-1.1,0.3-2.3,0-3.8-0.8C1131.5,414.1,1130.7,413.5,1130,412.6z M1138.2,409.6L1138.2,409.6  c0.6-1,0.2-2.2-0.8-2.8c-1-0.6-2.2-0.3-2.8,0.7l0,0c-0.6,1-0.2,2.2,0.8,2.8C1136.4,410.8,1137.6,410.6,1138.2,409.6z"
     id="path3931" /><path
     fill="#231F20"
     d="M1149.2,402.9c0.3-0.6,1.1-0.8,1.7-0.4c0.6,0.3,0.8,1.1,0.4,1.7l-1.6,2.8c0.8-0.3,1.8-0.6,2.9,0.1  c1.6,0.9,1.9,2.5,0.9,4.2l-2.2,3.8c-0.3,0.6-1.1,0.8-1.7,0.4c-0.6-0.3-0.8-1.1-0.4-1.7l1.8-3.2c0.6-1,0.4-1.8-0.4-2.2  c-0.8-0.5-1.6-0.2-2.2,0.8l-1.8,3.2c-0.3,0.6-1.1,0.8-1.7,0.4c-0.6-0.3-0.8-1.1-0.4-1.7L1149.2,402.9z"
     id="path3933" /><path
     fill="#231F20"
     d="M1162,405.5c0.4-0.6,1.1-0.7,1.7-0.3c0.7,0.4,1,1.1,0.6,1.7l0,0c-0.4,0.6-1.1,0.7-1.8,0.3  C1161.9,406.8,1161.6,406.2,1162,405.5L1162,405.5z M1160.5,408.3c0.3-0.6,1.1-0.8,1.7-0.4s0.8,1.1,0.4,1.7l-3.2,5.5  c-0.3,0.6-1.1,0.8-1.7,0.4s-0.8-1.1-0.4-1.7L1160.5,408.3z"
     id="path3935" /><path
     fill="#231F20"
     d="M1163.7,415.2c-0.7-0.4-1-1-0.7-1.5c0.3-0.5,0.9-0.6,1.3-0.4l0,0c0.3,0.2,0.6,0.1,0.9-0.4l3.6-6.3  c0.3-0.6,1.1-0.8,1.7-0.4c0.6,0.3,0.8,1.1,0.4,1.7l-3.7,6.3C1166.4,415.8,1165.1,416,1163.7,415.2L1163.7,415.2z M1170.3,403.8  c0.4-0.6,1.1-0.7,1.7-0.3c0.7,0.4,1,1.1,0.6,1.7l0,0c-0.4,0.6-1.1,0.7-1.8,0.3C1170.3,405.1,1170,404.4,1170.3,403.8L1170.3,403.8z"
     id="path3937" /><path
     fill="#231F20"
     d="M1178.7,403c0.3-0.6,1.1-0.8,1.7-0.4c0.6,0.3,0.8,1.1,0.4,1.7l-2.7,4.6l4.1-1c0.5-0.1,0.8-0.2,1.2,0.1  c0.6,0.3,0.7,1,0.4,1.5c-0.2,0.4-0.6,0.5-1,0.6l-2.5,0.5l0.4,3.8c0,0.4,0,0.6-0.1,0.8c-0.3,0.6-1,0.7-1.5,0.4  c-0.4-0.2-0.6-0.5-0.6-1l-0.4-3.6l-1.3,0.3l-0.7,1.2c-0.3,0.6-1.1,0.8-1.7,0.4c-0.6-0.3-0.8-1.1-0.4-1.7L1178.7,403z"
     id="path3939" /><path
     fill="#231F20"
     d="M1191.1,405.6c0.3-0.6,1.1-0.8,1.7-0.4c0.6,0.3,0.8,1.1,0.4,1.7l-4.7,8.2c-0.3,0.6-1.1,0.8-1.7,0.4  c-0.6-0.3-0.8-1.1-0.4-1.7L1191.1,405.6z"
     id="path3941" /><path
     fill="#231F20"
     d="M1197.8,403c0.3-0.6,1.1-0.8,1.7-0.4c0.6,0.3,0.8,1.1,0.4,1.7l0,0.1c0.8-0.3,1.8-0.5,2.9,0.1  c1,0.6,1.5,1.4,1.4,2.4c1.1-0.4,2.1-0.4,3.1,0.2c1.6,0.9,2,2.4,0.9,4.2l-2.2,3.9c-0.3,0.6-1.1,0.8-1.7,0.4c-0.6-0.3-0.8-1.1-0.4-1.7  l1.8-3.2c0.6-1,0.4-1.8-0.4-2.2s-1.6-0.2-2.1,0.8l-1.8,3.2c-0.3,0.6-1.1,0.8-1.7,0.4c-0.6-0.3-0.8-1.1-0.4-1.7l1.8-3.2  c0.6-1,0.4-1.8-0.4-2.2s-1.6-0.2-2.1,0.8l-1.8,3.2c-0.3,0.6-1.1,0.8-1.7,0.4c-0.6-0.3-0.8-1.1-0.4-1.7L1197.8,403z"
     id="path3943" /><path
     fill="#231F20"
     d="M1215.1,405.6c0.3-0.6,1.1-0.8,1.7-0.4c0.6,0.3,0.8,1.1,0.4,1.7l0,0.1c0.8-0.3,1.8-0.6,2.9,0.1  c1.6,0.9,1.9,2.5,0.9,4.2l-2.2,3.8c-0.3,0.6-1.1,0.8-1.7,0.4c-0.6-0.3-0.8-1.1-0.4-1.7l1.8-3.2c0.6-1,0.4-1.8-0.4-2.2  c-0.8-0.5-1.6-0.2-2.2,0.8l-1.8,3.2c-0.3,0.6-1.1,0.8-1.7,0.4c-0.6-0.3-0.8-1.1-0.4-1.7L1215.1,405.6z"
     id="path3945" /><path
     fill="#231F20"
     d="M1225.9,408.8L1225.9,408.8c1.2-2.2,4-2.9,6.3-1.6c2.3,1.3,3,4,1.8,6.2l0,0c-1.2,2.1-4,2.9-6.3,1.5  C1225.4,413.7,1224.7,411,1225.9,408.8z M1231.9,412.3L1231.9,412.3c0.6-1.1,0.4-2.5-0.8-3.2c-1.2-0.7-2.5-0.2-3.1,0.9l0,0  c-0.6,1.1-0.4,2.5,0.8,3.2C1230,413.9,1231.2,413.4,1231.9,412.3z"
     id="path3947" /><path
     fill="#231F20"
     d="M1241.2,406c0.3-0.6,1.1-0.8,1.7-0.4c0.6,0.3,0.8,1.1,0.4,1.7l-0.1,0.1c0.9-0.4,1.9-0.5,3,0.1  c1.7,1,2.6,3.3,1.2,5.8l0,0c-1.4,2.5-3.8,2.9-5.6,1.9c-1.1-0.6-1.5-1.6-1.7-2.4l-1.3,2.2c-0.3,0.6-1.1,0.8-1.7,0.4  c-0.6-0.3-0.8-1.1-0.4-1.7L1241.2,406z M1245.3,412L1245.3,412c0.7-1.3,0.4-2.6-0.6-3.1c-1-0.6-2.3-0.2-3,1l0,0  c-0.7,1.2-0.4,2.5,0.6,3.1C1243.3,413.6,1244.6,413.3,1245.3,412z"
     id="path3949" /><path
     fill="#231F20"
     d="M1257.8,415c-0.3,0.6-1.1,0.8-1.7,0.4c-0.6-0.3-0.8-1.1-0.4-1.7l1.3-2.3c-0.9,0.4-1.9,0.5-3-0.1  c-1.7-1-2.6-3.3-1.2-5.8l0,0c1.4-2.5,3.8-2.9,5.6-1.9c1.1,0.6,1.5,1.6,1.7,2.4l0,0c0.3-0.6,1.1-0.8,1.7-0.4c0.6,0.3,0.8,1.1,0.4,1.7  L1257.8,415z M1254.9,406.8L1254.9,406.8c-0.7,1.3-0.4,2.6,0.6,3.1c1,0.6,2.3,0.2,3-1l0,0c0.7-1.2,0.4-2.5-0.6-3.1  C1257,405.2,1255.7,405.5,1254.9,406.8z"
     id="path3951" /><path
     fill="#231F20"
     d="M1268.3,408.3c0.3-0.6,1.1-0.8,1.7-0.4c0.6,0.3,0.8,1.1,0.4,1.7l-0.2,0.3c0.7-0.5,1.6-0.9,2.2-0.6  c0.7,0.4,0.8,1,0.4,1.6c-0.3,0.6-0.9,0.7-1.4,0.5c-1.2-0.4-2.3,0.1-3.1,1.6l-1.1,2c-0.3,0.6-1.1,0.8-1.7,0.4  c-0.6-0.3-0.8-1.1-0.4-1.7L1268.3,408.3z"
     id="path3953" /><path
     fill="#231F20"
     d="M1274.7,412.6c-0.1-0.3-0.2-0.6,0-1c0.3-0.5,0.8-0.6,1.3-0.4c0.2,0.1,0.3,0.2,0.4,0.4c0.5,0.9,1,1.5,1.6,1.8  c0.6,0.4,1,0.3,1.2,0l0,0c0.3-0.5-0.4-1-1-1.7c-0.9-0.9-1.8-2.1-0.9-3.5l0,0c0.9-1.5,2.6-1.7,4.1-0.8c0.8,0.4,1.5,1.1,2,1.9  c0.2,0.3,0.3,0.7,0,1.1c-0.3,0.5-0.9,0.6-1.3,0.3c-0.2-0.1-0.2-0.2-0.3-0.3c-0.4-0.6-0.9-1.1-1.3-1.4c-0.5-0.3-0.9-0.2-1.1,0.1l0,0  c-0.2,0.4,0.4,1,1,1.8c0.8,0.9,1.8,2.1,1,3.5l0,0c-1,1.7-2.6,1.7-4.2,0.8C1276.1,414.5,1275.3,413.7,1274.7,412.6z"
     id="path3955" /><path
     fill="#231F20"
     d="M1287.2,411.7l2-3.5l-0.1,0c-0.5-0.3-0.7-0.9-0.4-1.4c0.3-0.5,0.9-0.7,1.4-0.4l0.1,0l0.5-0.9  c0.3-0.6,1.1-0.8,1.7-0.4c0.6,0.3,0.8,1.1,0.4,1.7l-0.5,0.9l0.9,0.5c0.5,0.3,0.7,0.9,0.4,1.4c-0.3,0.5-0.9,0.7-1.4,0.4l-0.9-0.5  l-1.8,3.2c-0.3,0.5-0.2,0.8,0.3,1.1c0.1,0,0.2,0.1,0.3,0.1c0.5,0.3,0.6,0.9,0.4,1.4c-0.2,0.4-0.6,0.5-1,0.5  c-0.5-0.1-0.9-0.2-1.3-0.5C1286.7,414.4,1286.2,413.4,1287.2,411.7z"
     id="path3957" /><path
     fill="#231F20"
     d="M1302.8,415c-0.3,0.6-1.1,0.8-1.7,0.4c-0.6-0.3-0.8-1.1-0.4-1.7l0-0.1c-0.8,0.3-1.8,0.6-2.9-0.1  c-1.6-0.9-1.9-2.5-0.9-4.2l2.2-3.8c0.3-0.6,1.1-0.8,1.7-0.4c0.6,0.3,0.8,1.1,0.4,1.7l-1.8,3.2c-0.6,1-0.4,1.8,0.4,2.2  c0.8,0.5,1.6,0.2,2.2-0.8l1.8-3.2c0.3-0.6,1.1-0.8,1.7-0.4c0.6,0.3,0.8,1.1,0.4,1.7L1302.8,415z"
     id="path3959" /><path
     fill="#231F20"
     d="M1311.4,415.5l-0.1-0.1c-0.6-0.3-0.7-0.9-0.7-1.6l0.8-6.6c0-0.2,0.1-0.4,0.2-0.6c0.3-0.5,1-0.7,1.6-0.4  c0.6,0.3,0.7,0.8,0.6,1.3l-0.9,5.2l4.1-3.4c0.3-0.3,0.8-0.5,1.4-0.2s0.8,1,0.4,1.6c-0.1,0.2-0.3,0.4-0.4,0.4l-5.3,3.9  C1312.6,415.6,1312,415.8,1311.4,415.5z"
     id="path3961" /><path
     fill="#231F20"
     d="M1322.4,411.1l1.2-6.3c0-0.1,0.1-0.4,0.2-0.6c0.3-0.5,0.9-0.7,1.6-0.4c0.5,0.3,0.7,0.8,0.6,1.4l-1,4.4  l3.3-3.1c0.4-0.4,1-0.5,1.6-0.2l0.1,0.1c0.5,0.3,0.7,0.9,0.6,1.5l-1,4.5l3.4-3.1c0.4-0.4,0.9-0.5,1.5-0.2c0.6,0.3,0.7,1,0.4,1.5  c-0.1,0.1-0.2,0.3-0.3,0.4l-4.9,4.2c-0.6,0.5-1.2,0.6-1.7,0.3l-0.1,0c-0.5-0.3-0.8-0.8-0.6-1.6l1-4.4l-3.4,3.1  c-0.5,0.5-1.1,0.5-1.7,0.2l-0.1,0C1322.5,412.4,1322.3,411.9,1322.4,411.1z"
     id="path3963" /><path
     fill="#231F20"
     d="M1337.3,410.6l3.2-1.1l-0.6-3c-0.1-0.4,0-0.7,0.1-1c0.3-0.6,1-0.7,1.5-0.4c0.4,0.2,0.6,0.6,0.7,1.1l0.3,2.6  l2.5-1c0.4-0.2,0.9-0.2,1.2,0c0.6,0.3,0.8,1,0.5,1.5c-0.2,0.3-0.4,0.4-0.7,0.6l-3,1.1l0.6,3.2c0.1,0.4,0,0.7-0.1,1  c-0.3,0.6-1,0.7-1.5,0.4c-0.4-0.2-0.6-0.6-0.7-1.1l-0.4-2.8l-2.6,1.1c-0.4,0.2-0.9,0.2-1.2,0c-0.6-0.3-0.8-1-0.5-1.5  C1336.8,410.9,1337,410.7,1337.3,410.6z"
     id="path3965" /><path
     fill="#231F20"
     d="M1347.8,414.4c-0.2-0.3-0.5-0.7-0.2-1.3c0.3-0.5,0.9-0.6,1.3-0.4c0.2,0.1,0.2,0.2,0.3,0.3  c0.1,0.2,0.2,0.3,0.4,0.3c0.4,0.2,0.6,0.3,1,0l0.2-0.1l0.9-7.3c0-0.2,0.1-0.4,0.2-0.5c0.3-0.6,1-0.7,1.6-0.4  c0.5,0.3,0.7,0.8,0.6,1.4l-0.9,5.3l4-3.4c0.4-0.3,0.9-0.5,1.5-0.2c0.5,0.3,0.8,1,0.4,1.5c-0.1,0.2-0.3,0.4-0.4,0.4l-6.2,4.7  c-1.5,1.2-2.4,1.4-3.7,0.6C1348.4,415,1348.1,414.7,1347.8,414.4z"
     id="path3967" /><path
     fill="#231F20"
     d="M1361.1,411.3L1361.1,411.3c0.3-0.4,0.5-0.6,1.1-0.8l5.7-1.8l-2.9-1.7c-0.5-0.3-0.6-0.9-0.4-1.3  s0.9-0.6,1.4-0.4l4.6,2.7c0.6,0.3,0.8,0.9,0.5,1.4l0,0c-0.2,0.4-0.5,0.6-1.1,0.8l-5.7,1.8l3.1,1.8c0.5,0.3,0.6,0.9,0.4,1.4  c-0.3,0.5-0.9,0.6-1.3,0.3l-4.7-2.7C1361,412.4,1360.8,411.8,1361.1,411.3z"
     id="path3969" /><path
     fill="#231F20"
     d="M1157.6,264.2l-0.6,0.6c-0.1,0.1-0.2,0.2-0.3,0.3c-0.5,0.3-1.2,0.1-1.5-0.4c-0.2-0.4-0.2-1,0.2-1.3l1.1-1.2  c0.3-0.3,0.6-0.6,0.9-0.8l0,0c0.6-0.3,1.3-0.1,1.7,0.4l4.5,7.8c0.3,0.6,0.1,1.3-0.4,1.7c-0.6,0.3-1.3,0.1-1.7-0.4L1157.6,264.2z"
     id="path3971" /><path
     fill="#231F20"
     d="M1169.3,269.6l1.5-3.9c0.6-1.7,0.8-2.5,0.3-3.3c-0.5-0.8-1.3-0.9-2-0.5c-0.6,0.4-0.9,0.9-1.1,1.8  c-0.1,0.2-0.2,0.5-0.5,0.7c-0.5,0.3-1.2,0.1-1.5-0.4c-0.1-0.2-0.2-0.5-0.1-0.8c0.3-1.3,0.9-2.4,2.3-3.3c2-1.2,4-0.8,5.1,1.1l0,0  c0.9,1.6,0.6,2.9-0.4,5.2l-0.9,2.1l3.4-2c0.5-0.3,1.2-0.1,1.5,0.4c0.3,0.5,0.1,1.2-0.4,1.5l-5.3,3c-0.7,0.4-1.4,0.3-1.7-0.3  C1169.2,270.5,1169.1,270.1,1169.3,269.6z"
     id="path3973" /><path
     fill="#231F20"
     d="M1182.7,271.4c-0.3-0.1-0.6-0.2-0.8-0.6c-0.3-0.6-0.1-1.3,0.4-1.6c0.3-0.2,0.6-0.2,0.8-0.1  c0.8,0.2,1.6,0.1,2.3-0.4c0.8-0.5,1.1-1.2,0.7-2l0,0c-0.5-0.8-1.4-0.8-2.6-0.1l-0.3,0.2c-0.5,0.3-1.2,0.1-1.4-0.4  c-0.2-0.3-0.2-0.6,0-1.1l0.8-3l-3,1.7c-0.5,0.3-1.2,0.1-1.4-0.4c-0.3-0.5-0.1-1.2,0.4-1.4l4.7-2.7c0.6-0.4,1.3-0.3,1.6,0.3  c0.3,0.5,0.2,1,0.1,1.6l-0.9,2.9c1.4-0.5,3.1-0.6,4.2,1.2l0,0c1.1,1.8,0.5,3.9-1.7,5.2C1185.1,271.5,1183.8,271.7,1182.7,271.4z"
     id="path3975" /><path
     fill="#231F20"
     d="M1196.6,269l-4,2.3c-0.6,0.3-1.3,0.2-1.6-0.4c-0.3-0.4-0.3-0.9-0.2-1.5l1.4-7.3c0.1-0.7,0.3-1.1,0.9-1.5  c0.6-0.3,1.3-0.1,1.6,0.4l2.9,5l0.5-0.3c0.5-0.3,1.1-0.1,1.4,0.4s0.1,1.1-0.4,1.4l-0.5,0.3l0.7,1.2c0.3,0.6,0.1,1.3-0.4,1.6  c-0.6,0.3-1.3,0.1-1.6-0.4L1196.6,269z M1195.6,267.3l-1.7-3l-0.8,4.5L1195.6,267.3z"
     id="path3977" /><path
     fill="#231F20"
     d="M1206.6,271.5c-0.4,0-0.7-0.2-0.9-0.6c-0.3-0.6-0.1-1.3,0.4-1.6c0.2-0.1,0.5-0.2,0.7-0.1  c0.8,0.1,1.5,0,2.2-0.4c0.9-0.5,1.3-1.4,0.8-2.2l0,0c-0.5-0.8-1.5-0.9-2.5-0.3c-0.8,0.5-1,0.9-1.3,1.1c-0.3,0.2-0.6,0.2-1.2,0.1  c-0.4,0-0.7-0.3-0.9-0.6l-1.7-3.4c-0.3-0.5-0.1-1.2,0.4-1.5l4.2-2.4c0.5-0.3,1.2-0.1,1.5,0.4c0.3,0.5,0.1,1.2-0.4,1.5l-3.3,1.9  l0.9,1.7c0.3-0.3,0.6-0.6,1.2-0.9c1.9-1.1,3.9-1,5.2,1.1l0,0c1.2,2.1,0.5,4.2-1.7,5.4C1208.8,271.4,1207.7,271.6,1206.6,271.5z"
     id="path3979" /><path
     fill="#231F20"
     d="M1218.5,271.4c-1.1-0.3-2.2-1.1-3.3-3l0,0c-1.7-3-1.7-6.1,1.2-7.8c1-0.6,1.9-0.8,2.7-0.8  c0.4,0,0.8,0.2,1.1,0.6c0.3,0.6,0.1,1.2-0.4,1.6c-0.2,0.1-0.4,0.1-0.6,0.2c-0.6,0-1.1,0.1-1.7,0.4c-1.2,0.7-1.3,2-0.7,3.4  c0.3-0.6,0.7-1.2,1.7-1.8c1.9-1.1,4-0.9,5.2,1.1l0,0c1.1,2,0.3,4.3-1.8,5.5C1220.7,271.5,1219.6,271.7,1218.5,271.4z M1221.6,266.6  L1221.6,266.6c-0.5-0.8-1.5-1.1-2.5-0.5c-1.1,0.6-1.3,1.5-0.9,2.4l0,0c0.5,0.8,1.5,1.1,2.5,0.5  C1221.8,268.4,1222.1,267.5,1221.6,266.6z"
     id="path3981" /><path
     fill="#231F20"
     d="M1232.6,270.2l0-8.4l-3.7,2.1c-0.5,0.3-1.2,0.1-1.5-0.4s-0.1-1.2,0.4-1.5l5.3-3c0.6-0.3,1.2-0.2,1.5,0.4  c0.2,0.3,0.3,0.8,0.3,1.2l0.2,9.3c0,0.7-0.2,1.1-0.6,1.3c-0.6,0.3-1.3,0.3-1.6-0.3C1232.6,270.8,1232.6,270.5,1232.6,270.2z"
     id="path3983" /><path
     fill="#231F20"
     d="M1240.4,270.1L1240.4,270.1c-0.7-1.2-0.6-2.2,0.2-3.3c-1,0-1.9-0.4-2.5-1.4l0,0c-0.9-1.5-0.2-3.4,1.9-4.6  c2.1-1.2,4.1-0.8,4.9,0.7l0,0c0.6,1,0.5,1.9,0,2.8c1.3-0.1,2.2,0.2,2.9,1.4l0,0c1,1.8,0.1,3.8-2.1,5  C1243.6,272,1241.4,271.8,1240.4,270.1z M1245.8,266.8L1245.8,266.8c-0.4-0.8-1.4-0.8-2.4-0.3c-1,0.6-1.4,1.4-1,2.2l0,0  c0.4,0.7,1.3,0.8,2.4,0.2C1245.8,268.4,1246.2,267.5,1245.8,266.8z M1243.1,262.9L1243.1,262.9c-0.4-0.6-1.2-0.9-2.1-0.4  c-0.9,0.5-1.1,1.3-0.7,1.9l0,0c0.4,0.7,1.2,0.9,2.1,0.4C1243.2,264.4,1243.5,263.5,1243.1,262.9z"
     id="path3985" /><path
     fill="#231F20"
     d="M1254.8,271.5c-0.4,0-0.8-0.2-1-0.6c-0.3-0.6-0.1-1.2,0.5-1.6c0.2-0.1,0.4-0.2,0.7-0.2  c0.7,0,1.2-0.1,1.8-0.5c1.2-0.7,1.3-2,0.7-3.3c-0.2,0.7-0.7,1.3-1.6,1.8c-2.1,1.2-4.1,0.8-5.3-1.1l0,0c-1.1-2-0.4-4.3,1.7-5.5  c1.3-0.8,2.3-0.9,3.4-0.6c1.1,0.3,2.2,1.1,3.3,3l0,0c1.8,3.1,1.6,6.2-1.2,7.7C1256.6,271.4,1255.7,271.5,1254.8,271.5z   M1255.9,262.8L1255.9,262.8c-0.5-0.9-1.5-1.1-2.6-0.5c-1.1,0.6-1.3,1.6-0.8,2.4l0,0c0.5,0.9,1.5,1.1,2.5,0.5  C1256.1,264.6,1256.4,263.7,1255.9,262.8z"
     id="path3987" /><path
     fill="#231F20"
     d="M1262.7,268.4L1262.7,268.4c-1.6-2.8-1.2-6.1,1.4-7.5c2.6-1.5,5.6-0.3,7.2,2.5l0,0c1.6,2.8,1.2,6-1.4,7.5  C1267.2,272.4,1264.3,271.2,1262.7,268.4z M1269.1,264.7L1269.1,264.7c-1-1.8-2.7-2.6-3.9-1.9c-1.3,0.7-1.4,2.5-0.3,4.3l0,0  c1,1.8,2.6,2.6,3.9,1.9C1270,268.2,1270.1,266.4,1269.1,264.7z"
     id="path3989" /><g
     id="g3993"
     inkscape:export-xdpi="90"
     inkscape:export-ydpi="90"><path
       d="M781.8,87.3l-75.9-43.8c0,0,0,0,0,0c-0.1-0.1-0.2-0.1-0.3-0.1c0,0,0,0,0,0c0,0,0,0,0,0c0,0-0.1,0-0.1,0   c0,0-0.1,0-0.1,0c-0.1,0-0.2,0-0.3,0c0,0,0,0-0.1,0c0,0-0.1,0-0.1,0c-0.1,0-0.3,0-0.4,0c0,0,0,0,0,0c0,0,0,0,0,0c0,0,0,0,0,0   c-0.1,0-0.2,0.1-0.3,0.1c0,0,0,0,0,0l-74.7,43.1c-0.9,0.5-1.2,1.6-0.7,2.5c0.5,0.9,1.7,1.2,2.5,0.7l66.4-38.3l-28.2,36   c-0.6,0.8-0.5,2,0.3,2.6c0.8,0.6,2,0.5,2.6-0.3l30.8-39.3v38.4c0,1,0.8,1.9,1.9,1.9s1.9-0.8,1.9-1.9V50.5l30.8,39.3   c0.4,0.5,0.9,0.7,1.5,0.7c0.4,0,0.8-0.1,1.1-0.4c0.8-0.6,0.9-1.8,0.3-2.6l-28.2-36l67.6,39c0.3,0.2,0.6,0.2,0.9,0.2   c0.6,0,1.3-0.3,1.6-0.9C783,89,782.7,87.8,781.8,87.3z"
       id="path3999"
       style="fill:#ffe51f;fill-opacity:1"
       fill="#0055FF" /><path
       d="M781.3,370.2c-0.5-0.9-1.7-1.2-2.5-0.7l-66.3,38.3l28.2-36c0.6-0.8,0.5-2-0.3-2.6c-0.8-0.6-2-0.5-2.6,0.3   l-30.8,39.3v-38.4c0-1-0.8-1.9-1.9-1.9s-1.9,0.8-1.9,1.9v38.4l-30.8-39.3c-0.6-0.8-1.8-0.9-2.6-0.3c-0.8,0.6-0.9,1.8-0.3,2.6   l28.2,36l-67.6-39c-0.9-0.5-2-0.2-2.5,0.7c-0.5,0.9-0.2,2,0.7,2.5l75.9,43.8c0,0,0,0,0.1,0c0.1,0,0.1,0.1,0.2,0.1c0,0,0,0,0.1,0   c0,0,0,0,0.1,0c0,0,0.1,0,0.1,0c0.1,0,0.3,0.1,0.4,0.1l0,0l0,0l0,0c0,0,0,0,0,0c0.2,0,0.3,0,0.4-0.1c0,0,0.1,0,0.1,0   c0,0,0.1,0,0.1,0c0.1,0,0.1-0.1,0.2-0.1c0,0,0,0,0.1,0l74.7-43.1C781.5,372.3,781.8,371.1,781.3,370.2z"
       id="path4001"
       style="fill:#ffe51f;fill-opacity:1"
       fill="#0055FF" /><path
       d="M 894,117.5 708.4,10.4 c -2.1,-1.2 -4.7,-1.2 -6.8,0 L 516,117.5 c -2.1,1.2 -3.4,3.5 -3.4,5.9 l 0,214.3 c 0,2.4 1.3,4.7 3.4,5.9 l 185.6,107.1 c 1.1,0.6 2.2,0.9 3.4,0.9 1.2,0 2.4,-0.3 3.4,-0.9 L 894,343.6 c 2.1,-1.2 3.4,-3.5 3.4,-5.9 l 0,-214.3 c 0,-2.4 -1.3,-4.7 -3.4,-5.9 z M 883.9,333.8 705,437 526.3,333.8 526,127.3 705,24.1 883.8,127.3"
       id="path4013"
       style="fill:#ffe51f;fill-opacity:1"
       inkscape:connector-curvature="0"
       sodipodi:nodetypes="ccccssccsccssccccccc" /><path
       d="m 638.1,119.62421 c 0.8,0 1.4,-0.6 1.4,-1.4 l 0,-7.1 5.8,7.6 c 0.4,0.5 0.8,0.9 1.5,0.9 l 0.1,0 c 0.8,0 1.5,-0.6 1.5,-1.5 l 0,-10.5 c 0,-0.8 -0.6,-1.4 -1.4,-1.4 -0.8,0 -1.4,0.6 -1.4,1.4 l 0,6.8 -5.6,-7.4 c -0.4,-0.5 -0.8,-0.9 -1.5,-0.9 l -0.3,0 c -0.8,0 -1.5,0.6 -1.5,1.5 l 0,10.5 c 0,0.9 0.6,1.5 1.4,1.5 z"
       id="path4015"
       style="fill:#ffe51f;fill-opacity:1"
       inkscape:connector-curvature="0" /><path
       d="m 658,119.72421 c 4.1,0 7.1,-3.1 7.1,-6.8 l 0,0 c 0,-3.8 -2.9,-6.8 -7,-6.8 -4.1,0 -7.1,3.1 -7.1,6.8 l 0,0 c 0,3.8 2.9,6.8 7,6.8 z m -3.9,-6.8 c 0,-2.3 1.6,-4.1 4,-4.1 2.3,0 4,1.9 4,4.2 l 0,0 c 0,2.3 -1.6,4.1 -4,4.1 -2.4,-0.1 -4,-1.9 -4,-4.2 l 0,0 z"
       id="path4017"
       style="fill:#ffe51f;fill-opacity:1"
       inkscape:connector-curvature="0" /><path
       d="m 669.1,119.52421 3.7,0 c 4.2,0 7,-2.9 7,-6.6 l 0,0 c 0,-3.7 -2.9,-6.6 -7,-6.6 l -3.7,0 c -0.8,0 -1.5,0.6 -1.5,1.5 l 0,10.2 c 0.1,0.9 0.7,1.5 1.5,1.5 z m 1.5,-10.6 2.2,0 c 2.4,0 4,1.6 4,4 l 0,0 c 0,2.3 -1.6,4 -4,4 l -2.2,0 0,-8 z"
       id="path4019"
       style="fill:#ffe51f;fill-opacity:1"
       inkscape:connector-curvature="0" /><path
       d="m 683.9,119.52421 7.4,0 c 0.7,0 1.3,-0.6 1.3,-1.3 0,-0.7 -0.6,-1.3 -1.3,-1.3 l -6,0 0,-2.8 5,0 c 0.7,0 1.3,-0.6 1.3,-1.3 0,-0.7 -0.6,-1.3 -1.3,-1.3 l -5,0 0,-2.7 5.9,0 c 0.7,0 1.3,-0.6 1.3,-1.3 0,-0.7 -0.6,-1.3 -1.3,-1.3 l -7.3,0 c -0.8,0 -1.5,0.6 -1.5,1.5 l 0,10.3 c 0.1,0.9 0.7,1.5 1.5,1.5 z"
       id="path4021"
       style="fill:#ffe51f;fill-opacity:1"
       inkscape:connector-curvature="0" /><path
       d="m 694.9,118.12421 c 1.5,1.1 3.2,1.6 5,1.6 2.9,0 4.9,-1.5 4.9,-4.1 l 0,0 c 0,-2.3 -1.5,-3.3 -4.2,-4 -2.3,-0.6 -2.9,-0.9 -2.9,-1.7 l 0,0 c 0,-0.6 0.6,-1.2 1.7,-1.2 0.9,0 1.8,0.3 2.8,0.9 0.2,0.1 0.5,0.2 0.7,0.2 0.8,0 1.4,-0.6 1.4,-1.3 0,-0.6 -0.3,-1 -0.6,-1.2 -1.2,-0.8 -2.6,-1.2 -4.2,-1.2 -2.7,0 -4.6,1.6 -4.6,4 l 0,0 c 0,2.6 1.7,3.4 4.4,4 2.2,0.6 2.7,0.9 2.7,1.7 l 0,0 c 0,0.8 -0.7,1.2 -1.9,1.2 -1.3,0 -2.4,-0.5 -3.4,-1.2 -0.2,-0.1 -0.5,-0.3 -0.8,-0.3 -0.8,0 -1.4,0.6 -1.4,1.3 -0.2,0.7 0.1,1.1 0.4,1.3 z"
       id="path4023"
       style="fill:#ffe51f;fill-opacity:1"
       inkscape:connector-curvature="0" /><path
       d="m 713.4,119.72421 c 2.1,0 3.5,-0.6 4.7,-1.7 0.3,-0.2 0.5,-0.6 0.5,-1 0,-0.7 -0.6,-1.3 -1.4,-1.3 -0.3,0 -0.6,0.1 -0.9,0.3 -0.8,0.7 -1.6,1 -2.9,1 -2.3,0 -3.8,-1.9 -3.8,-4.2 l 0,0 c 0,-2.3 1.6,-4.1 3.8,-4.1 1,0 1.9,0.3 2.7,0.9 0.2,0.1 0.5,0.3 0.9,0.3 0.8,0 1.4,-0.6 1.4,-1.4 0,-0.5 -0.3,-0.9 -0.6,-1.2 -1.1,-0.8 -2.4,-1.3 -4.4,-1.3 -4.1,0 -6.9,3.1 -6.9,6.8 l 0,0 c 0.2,3.9 3.1,6.9 6.9,6.9 z"
       id="path4025"
       style="fill:#ffe51f;fill-opacity:1"
       inkscape:connector-curvature="0" /><path
       d="m 722.7,119.62421 c 0.8,0 1.5,-0.6 1.5,-1.5 l 0,-4 5.4,0 0,4 c 0,0.8 0.6,1.5 1.5,1.5 0.8,0 1.5,-0.6 1.5,-1.5 l 0,-10.5 c 0,-0.8 -0.6,-1.5 -1.5,-1.5 -0.8,0 -1.5,0.6 -1.5,1.5 l 0,3.9 -5.4,0 0,-3.9 c 0,-0.8 -0.6,-1.5 -1.5,-1.5 -0.8,0 -1.5,0.6 -1.5,1.5 l 0,10.5 c 0,0.9 0.6,1.5 1.5,1.5 z"
       id="path4027"
       style="fill:#ffe51f;fill-opacity:1"
       inkscape:connector-curvature="0" /><path
       d="m 742,119.72421 c 4.1,0 7,-3.1 7,-6.8 l 0,0 c 0,-3.8 -2.9,-6.8 -7,-6.8 -4.1,0 -7.1,3.1 -7.1,6.8 l 0,0 c 0.1,3.8 3,6.8 7.1,6.8 z m -4,-6.8 c 0,-2.3 1.6,-4.1 4,-4.1 2.3,0 4,1.9 4,4.2 l 0,0 c 0,2.3 -1.6,4.1 -4,4.1 -2.3,-0.1 -4,-1.9 -4,-4.2 l 0,0 z"
       id="path4029"
       style="fill:#ffe51f;fill-opacity:1"
       inkscape:connector-curvature="0" /><path
       d="m 758.1,119.72421 c 4.1,0 7.1,-3.1 7.1,-6.8 l 0,0 c 0,-3.8 -2.9,-6.8 -7,-6.8 -4.1,0 -7.1,3.1 -7.1,6.8 l 0,0 c 0,3.8 2.9,6.8 7,6.8 z m -4,-6.8 c 0,-2.3 1.6,-4.1 4,-4.1 2.3,0 4,1.9 4,4.2 l 0,0 c 0,2.3 -1.6,4.1 -4,4.1 -2.3,-0.1 -4,-1.9 -4,-4.2 l 0,0 z"
       id="path4031"
       style="fill:#ffe51f;fill-opacity:1"
       inkscape:connector-curvature="0" /><path
       d="m 769.2,119.52421 6.8,0 c 0.7,0 1.3,-0.6 1.3,-1.3 0,-0.7 -0.6,-1.3 -1.3,-1.3 l -5.4,0 0,-9.2 c 0,-0.8 -0.6,-1.5 -1.5,-1.5 -0.8,0 -1.5,0.6 -1.5,1.5 l 0,10.3 c 0.1,0.9 0.8,1.5 1.6,1.5 z"
       id="path4033"
       style="fill:#ffe51f;fill-opacity:1"
       inkscape:connector-curvature="0" /></g><text
     transform="matrix(1 0 0 1 1185.6284 160.599)"
     fill="#919DAF"
     font-family="'GothamRounded-Bold'"
     font-size="16"
     id="text4035">Left 30</text>
<text
     transform="matrix(1 0 0 1 1174.2467 328.599)"
     fill="#919DAF"
     font-family="'GothamRounded-Bold'"
     font-size="16"
     id="text4037">Right -30</text>
<path
     inkscape:connector-curvature="0"
     style="fill:#ffe51f;fill-opacity:1"
     d="m 660.05844,360.77058 c -0.38834,-0.54699 -0.29788,-1.26936 0.23379,-1.75651 l 2.60549,-2.12401 c 2.07383,-1.63685 4.32444,-1.4796 5.81653,0.31305 l 0,0 c 1.62155,1.97501 0.87137,4.31749 -1.10362,5.93904 l -1.44332,1.13438 1.37795,1.70916 c 0.38835,0.54698 0.29788,1.26936 -0.2338,1.7565 -0.53168,0.48717 -1.26934,0.29789 -1.7565,-0.23379 l -5.49652,-6.73782 z m 6.27306,0.64709 c 0.99514,-0.76136 1.03967,-1.78019 0.42306,-2.4942 l 0,0 c -0.74604,-0.89633 -1.65074,-0.85735 -2.64589,-0.096 l -1.52683,1.24851 2.13931,2.70432 1.61035,-1.36265 z"
     id="path3643-0" /><path
     inkscape:connector-curvature="0"
     style="fill:#ffe51f;fill-opacity:1"
     d="m 700.46361,353.17031 c 0,-0.7 0.5,-1.2 1.2,-1.2 0.7,0 1.2,0.5 1.2,1.2 l 0,3.3 4.5,0 0,-3.3 c 0,-0.7 0.5,-1.2 1.2,-1.2 0.7,0 1.2,0.5 1.2,1.2 l 0,8.9 c 0,0.7 -0.5,1.2 -1.2,1.2 -0.7,0 -1.2,-0.5 -1.2,-1.2 l 0,-3.4 -4.5,0 0,3.4 c 0,0.7 -0.5,1.2 -1.2,1.2 -0.7,0 -1.2,-0.5 -1.2,-1.2 l 0,-8.9 z"
     id="path3755-9" /><path
     inkscape:connector-curvature="0"
     style="fill:#ffe51f;fill-opacity:1"
     d="m 746.0142,355.72364 c 0.37896,-0.55353 1.19875,-0.64263 1.75228,-0.26366 0.55353,0.37895 0.64264,1.19874 0.26366,1.75226 l -4.79025,6.2051 3.64928,2.82363 c 0.45445,0.36534 0.55718,1.08607 0.1919,1.54051 -0.36534,0.45446 -1.08607,0.5572 -1.54051,0.19191 l -4.55818,-3.55429 c -0.55353,-0.37897 -0.64265,-1.19876 -0.26368,-1.75228 l 5.29554,-6.94315 z"
     id="path3889-8" /><path
     style="fill:#ffe51f;fill-opacity:1"
     d="m 697.59195,137.08876 c -1.03125,0 -1.875,0.42187 -1.875,0.9375 0,0.51562 -0.81515,0.9375 -1.81054,0.9375 -1.1554,0 -1.91812,0.75361 -2.10938,2.08399 -0.22595,1.57178 -1.79629,2.71691 -6.39258,4.6582 -5.21465,2.20246 -7.41239,2.57792 -15.23437,2.60352 l -9.14063,0.0293 0,-2.8125 c 0,-2.5 -0.3125,-2.8125 -2.8125,-2.8125 -2.5,0 -2.8125,0.3125 -2.8125,2.8125 0,2.7841 -0.0521,2.8125 -5.15625,2.8125 -4.875,0 -5.15625,-0.12784 -5.15625,-2.34375 0,-2.10938 -0.375,-2.34375 -3.75,-2.34375 -3.375,0 -3.75,0.23437 -3.75,2.34375 0,1.45833 -0.53125,2.34375 -1.40625,2.34375 -0.77344,0 -1.49172,0.10548 -1.5957,0.23438 -0.10399,0.12891 -0.42039,9.72656 -0.70312,21.32812 l -0.51368,21.09375 -3.28125,0.46875 -3.28125,0.46875 -0.26367,10.99414 -0.26562,10.99414 14.5625,-0.49609 c 12.74956,-0.43438 14.56054,-0.31536 14.56054,0.95898 0,0.98089 0.88491,1.45508 2.7168,1.45508 2.49124,0 2.76193,-0.33254 3.23828,-3.98437 1.33027,-10.19816 1.4288,-10.40356 6.30664,-13.12695 4.29773,-2.39951 4.61328,-2.8237 4.61328,-6.23633 0,-3.52302 0.16562,-3.72061 4.38477,-5.15821 6.09532,-2.07689 6.77668,-1.93194 8.31836,1.75782 2.7064,6.47734 1.2402,15.49804 -2.51953,15.49804 -1.12762,0 -3.77501,1.01128 -5.88281,2.2461 -2.10781,1.23482 -5.61815,2.72512 -7.80079,3.3125 -2.18264,0.58738 -4.34768,1.7929 -4.81054,2.67773 -0.7808,1.49262 -1.23189,7.55712 -2.5625,34.41992 -1.24004,25.03421 -5.73817,36.9563 -16.55078,43.87305 -6.62728,4.23941 -12.62104,11.20856 -14.20313,16.51172 -1.20544,4.04064 -1.16101,4.4384 0.71875,6.50586 3.04293,3.34675 9.95136,6.48963 19.56836,8.90234 8.05679,2.0213 8.70521,2.35901 8.98047,4.67774 0.2569,2.16414 0.72792,2.49804 3.51562,2.49804 2.84381,0 3.21875,-0.28417 3.21875,-2.44336 0,-1.85924 0.35951,-2.30512 1.50586,-1.86523 0.82862,0.31797 9.0343,0.85034 18.23438,1.18359 l 16.72656,0.60547 -1.91992,-6.39844 c -1.05589,-3.51956 -2.90912,-7.90984 -4.11914,-9.75585 -1.21002,-1.84603 -3.09212,-6.73243 -4.1836,-10.85743 -1.09145,-4.125 -2.81799,-8.91969 -3.83593,-10.65625 -1.39691,-2.38309 -1.72807,-4.20383 -1.34961,-7.42187 0.70137,-5.96356 1.4414,-6.12918 1.4414,-0.32227 0,3.11387 0.71427,6.28344 1.97461,8.75391 1.08659,2.12991 2.9477,7.21381 4.13477,11.29687 1.18706,4.08308 3.06561,8.39055 4.17578,9.57227 1.11017,1.18173 2.99573,5.0461 4.18945,8.58789 l 2.16993,6.43945 12.06836,0 c 3.96019,0 8.80093,-0.12548 13.13867,-0.30664 l 0,0.002 c 0.23673,-0.0101 0.43771,-0.0211 0.67187,-0.0312 1.11512,-0.049 2.19606,-0.0981 3.19336,-0.1543 5.85393,-0.29444 10.37999,-0.62535 10.97461,-0.85352 0.0114,-0.004 0.02,-0.006 0.0312,-0.01 l 0.95313,-0.0801 c 0.2322,0.1153 0.37328,0.39231 0.44921,0.84766 l 0,1.49023 c 0,2.08371 0.39689,2.37695 3.22071,2.37695 2.22786,0 2.94223,-0.15931 3.27539,-1.42382 0.14676,-0.34945 0.23993,-0.79549 0.31054,-1.39063 0.27527,-2.31873 0.92368,-2.65643 8.98047,-4.67773 1.37885,0.20612 15.13922,-3.59685 18.56836,-9.16407 1.26548,-1.5274 1.17377,-2.2682 0.11524,-5.8164 -1.58209,-5.30316 -7.57585,-12.27231 -14.20313,-16.51172 -7.23836,-4.63033 -11.63518,-11.52752 -14.13086,-23.07617 0.0197,-0.0139 0.0349,-0.0311 0.0547,-0.0449 -1.22565,-5.68689 -1.99997,-12.47912 -2.4082,-20.7207 -1.36563,-10.48803 -1.908,-34.21442 -7.37305,-37.09765 -2.18264,-0.58738 -5.69297,-2.07768 -7.80078,-3.3125 -1.77339,-1.03892 -3.91769,-1.91078 -5.22852,-2.16407 l 0,0.13477 c -1.02716,-0.38601 -1.93932,-0.63086 -2.48632,-0.63086 -0.44749,0 -0.86241,-0.13026 -1.24024,-0.36914 -0.37783,-0.23888 -0.71858,-0.58637 -1.02344,-1.01953 l -0.0664,0 c -1.75014,-2.93358 -2.01094,-9.01786 -0.0312,-13.75586 0.43165,-1.0331 0.79793,-1.77882 1.23242,-2.28516 1.09688,-0.98333 2.54551,-0.82116 5.44922,0.01 0.32515,0.093 0.58245,0.17838 0.87695,0.26758 0.26039,0.0867 0.47665,0.15352 0.75977,0.25 0.78484,0.26741 1.39058,0.48822 1.91992,0.69921 1.03269,0.45924 1.72282,0.94119 2.13281,1.54102 0.30133,0.63717 0.33203,1.50958 0.33203,2.91797 0,0.5292 0.0161,0.96909 0.0449,1.37304 -0.13362,2.13192 0.54954,2.7078 4.54883,4.96485 1.91275,1.07949 3.05401,1.79068 3.80664,2.56055 0.002,0.002 0.004,0.005 0.006,0.008 0.72184,0.87901 1.15138,2.06615 1.5293,3.92969 0.0325,0.21739 0.0647,0.40721 0.0977,0.64843 0.33312,2.43037 0.60546,5.63214 0.60546,7.11524 0,2.00522 0.2192,2.51615 1.72461,2.52539 0.42407,0.17358 0.98385,0.22265 1.79493,0.22265 1.83189,0 2.71679,-0.47418 2.71679,-1.45507 0,-1.27436 1.81099,-1.39337 14.56055,-0.95899 l 14.5625,0.4961 -0.26563,-10.99415 -0.26367,-10.99414 -3.28125,-0.46875 -3.28125,-0.46875 -0.51367,-21.09375 c -0.28273,-11.60156 -0.59913,-21.19921 -0.70312,-21.32812 -0.10398,-0.1289 -0.82227,-0.23438 -1.59571,-0.23438 -0.875,0 -1.40625,-0.88542 -1.40625,-2.34375 0,-1.65998 -0.25622,-2.15382 -2,-2.29101 -0.55149,-0.10075 -1.29427,-0.13477 -2.36133,-0.13477 -3.375,0 -3.75,0.23437 -3.75,2.34375 0,2.21591 -0.28125,2.34375 -5.15625,2.34375 -1.51552,0 -2.54712,-0.0115 -3.30273,-0.0879 -1.21436,-0.26022 -1.24219,-0.92466 -1.24219,-2.64258 0,-2.11957 -0.2401,-2.65989 -1.83203,-2.77734 -0.39551,-0.0861 -0.90491,-0.11719 -1.5918,-0.11719 -2.5,0 -2.8125,0.3125 -2.8125,2.8125 l 0,2.8125 -8.76367,0 c -7.38569,0 -9.68679,-0.39118 -15.07422,-2.58398 -4.53403,-1.92064 -6.09373,-3.06245 -6.31836,-4.625 -0.17569,-1.22211 -0.83827,-1.94895 -1.83984,-2.06055 -0.13619,-0.0614 -0.27399,-0.10547 -0.41406,-0.10547 -0.73758,0 -1.33985,-0.42188 -1.33985,-0.9375 0,-0.51563 -0.84375,-0.9375 -1.875,-0.9375 -0.34746,0 -0.65575,0.0613 -0.93554,0.14453 -0.73087,0.1282 -1.26563,0.4672 -1.26563,0.875 0,0.24563 -0.15075,0.46716 -0.38476,0.63477 -0.32291,0.13151 -0.71763,0.2207 -1.16407,0.2207 -1.25,0 -1.875,0.625 -1.875,1.875 0,1.45833 -0.625,1.875 -2.8125,1.875 -2.1875,0 -2.8125,-0.41667 -2.8125,-1.875 0,-1.04167 -0.625,-1.875 -1.40625,-1.875 -0.77344,0 -1.40625,-0.42188 -1.40625,-0.9375 0,-0.51563 -0.84375,-0.9375 -1.875,-0.9375 z m 1.875,38.4375 c 0.51563,0 0.9375,1.26562 0.9375,2.8125 0,1.54687 -0.42187,2.8125 -0.9375,2.8125 -0.51562,0 -0.9375,-1.26563 -0.9375,-2.8125 0,-1.54688 0.42188,-2.8125 0.9375,-2.8125 z m 11.5625,0.24414 c 0.44015,0.12924 0.89235,0.72243 1.17579,1.76172 0.0322,0.28318 0.0605,0.57389 0.0605,0.88867 0,1.28684 -0.29444,2.36838 -0.68945,2.69922 -0.10125,0.0197 -0.20867,0.0312 -0.32813,0.0312 -0.0551,0 -0.1025,-0.0123 -0.15429,-0.0176 -0.40268,-0.31532 -0.70313,-1.40967 -0.70313,-2.71289 0,-1.2317 0.26937,-2.27227 0.63867,-2.65039 z m -13.80859,14.75586 c 1.76143,0 2.24609,0.49776 2.24609,2.31055 0,1.36192 -0.78178,2.73038 -1.90234,3.33008 -1.04569,0.55964 -1.67129,1.3877 -1.39062,1.84179 0.28066,0.45412 0.11145,1.07318 -0.37696,1.375 -0.4884,0.30187 -1.06226,0.22521 -1.27539,-0.16992 -0.21315,-0.39513 -0.19849,-2.51171 0.0332,-4.70312 0.3659,-3.46115 0.71558,-3.98438 2.66602,-3.98438 z m 16.35352,0.082 c 1.95043,0 2.30011,0.52323 2.66601,3.98438 0.0371,0.35103 0.06,0.68692 0.0859,1.02734 -0.0342,1.87332 -0.28161,3.4385 -0.62695,4.01953 -0.22213,0.0203 -0.47004,-0.031 -0.70118,-0.17382 -0.48841,-0.30185 -0.65761,-0.92088 -0.37695,-1.375 0.28067,-0.45413 -0.34493,-1.28216 -1.39062,-1.8418 -0.0873,-0.0467 -0.16896,-0.1064 -0.25196,-0.16211 -0.12902,-0.13585 -0.24951,-0.28013 -0.38672,-0.4043 -0.20664,-0.18701 -0.39165,-0.37159 -0.56445,-0.55664 -0.43379,-0.64051 -0.69922,-1.42287 -0.69922,-2.20703 0,-1.81279 0.48468,-2.31055 2.2461,-2.31055 z"
     id="path3607-3"
     inkscape:connector-curvature="0"
     sodipodi:nodetypes="sssssccsssssssssccccccssssssssssssssssssssscccssssssssccsccccccccssccccssccccsccssccsccccccscsccccscsssccccccssscssscscsscscscssscscsssssssscssscsscscscsscccccsscsccsccccsssss" /><rect
     style="fill:none"
     id="rect3639"
     width="87.747032"
     height="209.48618"
     x="205.92885"
     y="113.85968"
     ry="4.347826" /><rect
     style="fill:none"
     id="rect3655"
     width="180.71053"
     height="211.01439"
     x="325.02325"
     y="124.09708"
     ry="4.3478298" /><rect
     style="fill:none"
     id="rect3658"
     width="180.11343"
     height="211.01439"
     x="325.02325"
     y="124.09708"
     ry="4.3478298" /><rect
     style="fill:none"
     id="rect3726"
     width="83.844009"
     height="103.62117"
     x="208.07799"
     y="114.81755"
     ry="4.3478298" /><rect
     style="fill:none"
     id="rect3728"
     width="72.980499"
     height="213.92758"
     x="223.67688"
     y="107.29665"
     ry="4.3478298" /><rect
     style="fill:none"
     id="rect3749"
     width="58.349705"
     height="78.781929"
     x="190.7662"
     y="239.47839"
     ry="4.3478298" /><rect
     style="fill:none"
     id="rect3751"
     width="62.475441"
     height="148.33006"
     x="187.42633"
     y="173.27014"
     ry="4.3478298" /><rect
     style="fill:none"
     id="rect3769"
     width="64.440079"
     height="62.671906"
     x="280.94302"
     y="258.14243"
     ry="4.3478298" /><rect
     style="fill:none"
     id="rect3795"
     width="65.810844"
     height="87.348938"
     x="340.67795"
     y="193.15413"
     ry="4.3478298" /><rect
     style="fill:none"
     id="rect3812"
     width="79.656761"
     height="107.69047"
     x="256.57681"
     y="178.62447"
     ry="4.3478298" /></svg>