<?xml version="1.0" encoding="utf-8"?>
<!-- Generator: Adobe Illustrator 19.2.0, SVG Export Plug-In . SVG Version: 6.00 Build 0)  -->
<svg version="1.1"
	 id="Layer_1" inkscape:version="0.91 r13725" sodipodi:docname="phlnodeschool.svg" xmlns:cc="http://creativecommons.org/ns#" xmlns:dc="http://purl.org/dc/elements/1.1/" xmlns:inkscape="http://www.inkscape.org/namespaces/inkscape" xmlns:osb="http://www.openswatchbook.org/uri/2009/osb" xmlns:rdf="http://www.w3.org/1999/02/22-rdf-syntax-ns#" xmlns:sodipodi="http://sodipodi.sourceforge.net/DTD/sodipodi-0.dtd" xmlns:svg="http://www.w3.org/2000/svg"
	 xmlns="http://www.w3.org/2000/svg" xmlns:xlink="http://www.w3.org/1999/xlink" x="0px" y="0px" viewBox="0 0 1471.4 460.5"
	 style="enable-background:new 0 0 1471.4 460.5;" xml:space="preserve">
<style type="text/css">
	.st0{fill:#5B6066;}
	.st1{fill:#231F20;}
	.st2{fill:#FFE51F;}
	.st3{fill:#919DAF;}
	.st4{font-family:'ArialMT';}
	.st5{font-size:16px;}
	.st6{fill:none;}
	.st7{fill:none;stroke:#FFE51F;stroke-width:2;}
	.st8{fill:none;stroke:#FFE51F;stroke-width:3;stroke-miterlimit:10;}
	.st9{fill:none;stroke:#FFE51F;stroke-width:2;stroke-miterlimit:10;}
	.st10{fill:none;stroke:#FFE51F;stroke-miterlimit:10;}
</style>
<sodipodi:namedview  bordercolor="#666666" borderopacity="1" gridtolerance="10" guidetolerance="10" id="namedview4335" inkscape:current-layer="Layer_1" inkscape:cx="693.16231" inkscape:cy="241.16022" inkscape:pageopacity="0" inkscape:pageshadow="2" inkscape:window-height="1155" inkscape:window-maximized="0" inkscape:window-width="937" inkscape:window-x="0" inkscape:window-y="0" inkscape:zoom="2.06" objecttolerance="10" pagecolor="#ffffff" showgrid="false">
	<inkscape:grid  id="grid22514" type="xygrid"></inkscape:grid>
</sodipodi:namedview>
<polygon id="polygon3611" class="st0" points="890.4,336.9 704.9,444 519.3,336.9 519.3,122.6 704.9,15.4 890.4,122.6 "/>
<path id="path3613" class="st1" d="M1032.3,205.8l-1-9.6c-0.1-0.7,0.2-1.2,0.8-1.6l0.1-0.1c0.6-0.3,1.2-0.3,1.7,0.1l7.8,5.7
	c0.2,0.1,0.3,0.2,0.4,0.4c0.3,0.6,0.1,1.3-0.4,1.6s-1,0.2-1.5-0.1l-1.5-1.1l-4.3,2.5l0.2,2c0.1,0.5-0.2,1-0.6,1.2
	c-0.6,0.3-1.2,0.1-1.6-0.4C1032.4,206.2,1032.3,206,1032.3,205.8z M1036.8,199.7l-3.2-2.4l0.5,4L1036.8,199.7z"/>
<path id="path3615" class="st1" d="M1043.4,198.8c-0.3-0.6-0.1-1.3,0.5-1.7l3.4-2c1.1-0.6,2.2-0.8,3-0.6c0.7,0.2,1.2,0.6,1.6,1.3
	l0,0c0.6,1.1,0.4,2-0.1,2.8c1.4-0.2,2.4,0,3.2,1.3l0,0c1,1.8,0.1,3.5-2.1,4.8l-3.5,2c-0.6,0.3-1.3,0.1-1.7-0.5L1043.4,198.8z
	 M1049.1,199.3c0.9-0.5,1.4-1.2,0.9-1.9l0,0c-0.4-0.6-1.1-0.7-2-0.2l-2.1,1.2l1.2,2.1L1049.1,199.3z M1052,202.9
	c0.9-0.5,1.3-1.2,0.9-1.9l0,0c-0.4-0.7-1.1-0.8-2.2-0.1l-2.5,1.4l1.2,2.1L1052,202.9z"/>
<path id="path3617" class="st1" d="M1059.4,204L1059.4,204c-1.6-2.8-0.8-6.2,2.1-8c1.5-0.8,2.7-1,3.8-0.9c0.3,0,0.7,0.2,0.9,0.6
	c0.3,0.6,0.1,1.3-0.5,1.6c-0.3,0.2-0.5,0.2-0.8,0.2c-0.9-0.1-1.6,0-2.4,0.5c-1.6,0.9-2,3-1.1,4.6l0,0c1,1.7,2.9,2.4,4.6,1.4
	c0.9-0.5,1.3-1.1,1.7-2c0.1-0.2,0.3-0.5,0.5-0.6c0.5-0.3,1.3-0.1,1.6,0.4c0.2,0.3,0.2,0.7,0.1,1c-0.4,1.3-1.2,2.3-2.7,3.2
	C1064.4,207.8,1061,206.8,1059.4,204z"/>
<path id="path3619" class="st1" d="M1072,198.8c-0.3-0.6-0.1-1.3,0.5-1.7l2.7-1.6c3-1.8,6.4-0.9,7.9,1.8l0,0
	c1.6,2.7,0.7,6.1-2.4,7.8l-2.7,1.6c-0.6,0.3-1.3,0.1-1.7-0.5L1072,198.8z M1079.6,203.3c1.7-1,2.2-2.9,1.3-4.6l0,0
	c-1-1.7-2.9-2.2-4.6-1.2l-1.6,1l3.4,5.8L1079.6,203.3z"/>
<path id="path3621" class="st1" d="M1091.4,206.3l-4.4-7.6c-0.3-0.6-0.1-1.3,0.5-1.7l5.4-3.1c0.5-0.3,1.2-0.1,1.5,0.4
	s0.1,1.2-0.4,1.5l-4.3,2.5l1.1,2l3.7-2.1c0.5-0.3,1.2-0.1,1.5,0.4s0.1,1.2-0.4,1.5l-3.7,2.1l1.2,2l4.4-2.5c0.5-0.3,1.2-0.1,1.5,0.4
	s0.1,1.2-0.4,1.5l-5.4,3.1C1092.4,207.1,1091.7,206.9,1091.4,206.3z"/>
<path id="path3623" class="st1" d="M1100.4,198.7c-0.3-0.6-0.1-1.3,0.5-1.7l5.4-3.1c0.5-0.3,1.2-0.1,1.5,0.4s0.1,1.2-0.4,1.5
	l-4.4,2.5l1.2,2.1l3.7-2.2c0.5-0.3,1.2-0.1,1.5,0.4s0.1,1.2-0.4,1.5l-3.7,2.2l1.6,2.8c0.3,0.6,0.1,1.3-0.5,1.7
	c-0.6,0.3-1.3,0.1-1.7-0.5L1100.4,198.7z"/>
<path id="path3625" class="st1" d="M1115.4,204L1115.4,204c-1.6-2.8-0.8-6.3,2.2-8c1.5-0.8,2.6-1.1,3.9-1c0.3,0,0.7,0.2,0.9,0.6
	c0.3,0.6,0.1,1.3-0.4,1.7c-0.3,0.2-0.6,0.2-0.8,0.2c-0.8-0.1-1.6,0-2.5,0.6c-1.6,0.9-2,3-1,4.6l0,0c1,1.8,3,2.4,4.7,1.4
	c0.8-0.4,1.4-1,1.7-1.7l-0.8-1.4l-1.4,0.8c-0.5,0.3-1.2,0.1-1.5-0.4s-0.1-1.2,0.4-1.5l2.4-1.4c0.6-0.3,1.3-0.1,1.7,0.5l1.4,2.4
	c0.4,0.6,0.4,1.2,0,1.8c-0.5,0.9-1.4,2.1-2.8,2.9C1120.4,207.8,1117.1,206.9,1115.4,204z"/>
<path id="path3627" class="st1" d="M1128.6,198.6c-0.3-0.6-0.1-1.3,0.5-1.7c0.6-0.3,1.3-0.1,1.7,0.5l1.6,2.9l3.9-2.3l-1.6-2.9
	c-0.3-0.6-0.1-1.3,0.5-1.7s1.3-0.1,1.7,0.5l4.5,7.7c0.3,0.6,0.1,1.3-0.5,1.7s-1.3,0.1-1.7-0.5l-1.7-2.9l-3.9,2.3l1.7,2.9
	c0.3,0.6,0.1,1.3-0.5,1.7c-0.6,0.3-1.3,0.1-1.7-0.5L1128.6,198.6z"/>
<path id="path3629" class="st1" d="M1143.4,198.6c-0.3-0.6-0.1-1.3,0.5-1.7c0.6-0.3,1.3-0.1,1.7,0.5l4.5,7.7
	c0.3,0.6,0.1,1.3-0.5,1.7c-0.6,0.3-1.3,0.1-1.7-0.5L1143.4,198.6z"/>
<path id="path3631" class="st1" d="M1156.4,206.9c-0.3,0-0.7-0.3-0.9-0.6c-0.3-0.6-0.1-1.3,0.4-1.6c0.3-0.2,0.5-0.2,0.8-0.1
	c0.6,0.1,1.1,0,1.6-0.3c0.8-0.5,1.1-1.3,0.4-2.4l-3-5.3c-0.3-0.6-0.1-1.3,0.5-1.7c0.6-0.3,1.3-0.1,1.7,0.5l3.1,5.4
	c0.7,1.2,0.8,2.2,0.6,3.1c-0.3,0.9-0.9,1.7-2,2.4C1158.4,206.9,1157.3,207,1156.4,206.9z"/>
<path id="path3633" class="st1" d="M1164.1,198.6c-0.3-0.6-0.1-1.3,0.5-1.7c0.6-0.3,1.3-0.1,1.7,0.5l1.9,3.3l1.7-6.2
	c0.1-0.4,0.3-0.7,0.7-0.9c0.6-0.3,1.2-0.1,1.6,0.4c0.2,0.3,0.2,0.7,0.1,1l-1.3,4.1l5.1,2c0.3,0.1,0.5,0.3,0.7,0.6
	c0.3,0.6,0.1,1.3-0.5,1.7c-0.4,0.2-0.8,0.2-1.2,0l-4.9-2l-0.6,1.8l1.1,1.9c0.3,0.6,0.1,1.3-0.5,1.7c-0.6,0.3-1.3,0.1-1.7-0.5
	L1164.1,198.6z"/>
<path id="path3635" class="st1" d="M1178.1,198.7c-0.3-0.6-0.1-1.3,0.5-1.7c0.6-0.3,1.3-0.1,1.7,0.5l3.9,6.8l4-2.3
	c0.5-0.3,1.2-0.1,1.5,0.4s0.1,1.2-0.4,1.5l-5,2.9c-0.6,0.3-1.3,0.1-1.7-0.5L1178.1,198.7z"/>
<path id="path3637" class="st1" d="M1190.9,198.6c-0.3-0.6-0.1-1.3,0.5-1.7l0.2-0.1c0.5-0.3,0.9-0.2,1.3,0l5,2.7l0.2-5.7
	c0-0.5,0.2-0.8,0.6-1.1l0.2-0.1c0.6-0.3,1.3-0.1,1.7,0.5l4.5,7.7c0.3,0.6,0.1,1.3-0.5,1.7c-0.6,0.3-1.3,0.1-1.7-0.5l-2.8-4.8l-0.2,4
	c0,0.5-0.2,0.8-0.6,1.1s-0.8,0.2-1.2,0l-3.5-1.8l2.8,4.8c0.3,0.6,0.1,1.3-0.5,1.6s-1.3,0.1-1.6-0.4L1190.9,198.6z"/>
<path id="path3639" class="st1" d="M1207.1,198.6c-0.3-0.6-0.1-1.3,0.5-1.7l0.2-0.1c0.5-0.3,1-0.2,1.5,0l7.2,3l-2.9-5
	c-0.3-0.6-0.1-1.3,0.4-1.7c0.6-0.3,1.3-0.1,1.7,0.4l4.5,7.7c0.3,0.6,0.1,1.3-0.5,1.7h-0.1c-0.5,0.3-1,0.2-1.5,0l-7.5-3.1l3,5.2
	c0.3,0.6,0.1,1.3-0.4,1.7c-0.6,0.3-1.3,0.1-1.7-0.4L1207.1,198.6z"/>
<path id="path3641" class="st1" d="M1224,204.1L1224,204.1c-1.6-2.8-0.7-6.3,2.3-8s6.4-0.7,8,2l0,0c1.6,2.8,0.7,6.3-2.3,8
	S1225.6,206.8,1224,204.1z M1232.1,199.4L1232.1,199.4c-1-1.7-3-2.4-4.7-1.4s-2.1,3-1.2,4.7l0,0c1,1.7,3,2.3,4.7,1.4
	C1232.6,203.1,1233,201.1,1232.1,199.4z"/>
<path id="path3643" class="st1" d="M1238.1,198.7c-0.3-0.6-0.1-1.3,0.5-1.7l2.9-1.7c2.3-1.3,4.5-0.8,5.7,1.2l0,0
	c1.3,2.2,0.2,4.4-2,5.7l-1.6,0.9l1.1,1.9c0.3,0.6,0.1,1.3-0.5,1.7s-1.3,0.1-1.7-0.5L1238.1,198.7z M1244.2,200.3
	c1.1-0.6,1.3-1.6,0.8-2.4l0,0c-0.6-1-1.5-1.1-2.6-0.5l-1.7,1l1.7,3L1244.2,200.3z"/>
<path id="path3645" class="st1" d="M1253.3,204.1L1253.3,204.1c-1.6-2.8-0.7-6.3,2.3-8s6.4-0.7,8,2l0,0c0.6,1,0.8,2.2,0.7,3.3
	l0.6,0.1c0.3,0.1,0.7,0.2,0.9,0.6c0.3,0.6,0.1,1.3-0.4,1.6c-0.3,0.2-0.6,0.2-0.9,0.1l-0.8-0.2c-0.5,1-1.3,1.9-2.4,2.5
	C1258.4,207.8,1254.9,206.8,1253.3,204.1z M1259,202.3c-0.3-0.6-0.1-1.3,0.4-1.6c0.3-0.2,0.5-0.2,0.9-0.1l1.6,0.3
	c-0.1-0.5-0.2-1-0.5-1.5l0,0c-1-1.7-3-2.3-4.7-1.4c-1.7,1-2.1,3-1.2,4.7l0,0c1,1.7,3,2.3,4.7,1.4c0.5-0.3,0.9-0.6,1.1-1l-1.5-0.3
	C1259.5,202.8,1259.2,202.6,1259,202.3z"/>
<path id="path3647" class="st1" d="M1267.5,198.7c-0.3-0.6-0.1-1.3,0.5-1.7l3.4-1.9c1.2-0.7,2.4-0.9,3.4-0.6
	c0.9,0.2,1.6,0.8,2.1,1.7l0,0c0.9,1.5,0.7,2.9-0.2,4.1l2.5,0.9c0.4,0.1,0.6,0.3,0.8,0.6c0.3,0.6,0.1,1.3-0.4,1.6s-0.9,0.2-1.4,0.1
	l-3.6-1.4l-1.7,1l1.2,2.1c0.3,0.6,0.1,1.3-0.5,1.7c-0.6,0.3-1.3,0.1-1.7-0.5L1267.5,198.7z M1273.9,199.8c1-0.6,1.3-1.5,0.8-2.3l0,0
	c-0.5-0.9-1.4-1-2.5-0.4l-2.1,1.2l1.6,2.8L1273.9,199.8z"/>
<path id="path3649" class="st1" d="M1285.9,206.9c-0.3,0-0.7-0.2-0.9-0.6c-0.3-0.6-0.1-1.2,0.4-1.6c0.3-0.2,0.5-0.2,0.7-0.2
	c1,0.1,2,0,3-0.6c0.9-0.5,1.2-1.2,0.9-1.7l0,0c-0.3-0.5-0.8-0.6-2.7-0.1c-2.2,0.6-3.8,0.8-4.9-1.1l0,0c-1-1.8-0.3-3.7,1.7-4.9
	c1.2-0.7,2.4-1,3.6-0.9c0.3,0,0.7,0.2,1,0.6c0.3,0.6,0.1,1.2-0.4,1.6c-0.2,0.1-0.4,0.2-0.6,0.2c-0.9,0-1.7,0.1-2.4,0.5
	c-0.8,0.5-1,1.1-0.8,1.6l0,0c0.4,0.6,0.9,0.6,2.8,0.1c2.3-0.6,3.8-0.6,4.8,1.1l0,0c1.1,1.9,0.3,3.9-1.8,5.1
	C1288.9,206.7,1287.4,207.1,1285.9,206.9z"/>
<path id="path3651" class="st1" d="M1297.5,199.6l-2.1,1.2c-0.5,0.3-1.2,0.1-1.6-0.4c-0.3-0.5-0.1-1.2,0.4-1.6l6.2-3.6
	c0.5-0.3,1.2-0.1,1.6,0.4c0.3,0.5,0.1,1.2-0.4,1.6l-2.1,1.2l3.9,6.8c0.3,0.6,0.1,1.3-0.5,1.7c-0.6,0.3-1.3,0.1-1.7-0.5L1297.5,199.6
	z"/>
<path id="path3653" class="st1" d="M1310.3,204.2l-2.6-4.6c-0.3-0.6-0.1-1.3,0.5-1.7c0.6-0.3,1.3-0.1,1.7,0.5l2.6,4.5
	c0.9,1.6,2.2,1.9,3.5,1.2c1.3-0.8,1.6-2,0.7-3.5l-2.6-4.6c-0.3-0.6-0.1-1.3,0.5-1.7c0.6-0.3,1.3-0.1,1.7,0.5l2.6,4.5
	c1.7,2.9,0.9,5.3-1.7,6.8C1314.3,207.6,1311.9,207.1,1310.3,204.2z"/>
<path id="path3655" class="st1" d="M1329.6,206.6l-7.5-5.7c-0.2-0.1-0.3-0.3-0.4-0.4c-0.3-0.6-0.1-1.3,0.5-1.7
	c0.6-0.3,1.1-0.2,1.5,0.1l6.1,4.9l-1.2-7.8c-0.1-0.4,0.1-1,0.6-1.3c0.6-0.3,1.3-0.2,1.6,0.4c0.1,0.2,0.1,0.4,0.2,0.5l1.2,9.4
	c0.1,0.7-0.1,1.2-0.7,1.5l-0.1,0.1C1330.7,207.1,1330.2,207,1329.6,206.6z"/>
<path id="path3657" class="st1" d="M1336.2,200.5c-0.1-0.1-0.2-0.2-0.3-0.4c-0.3-0.6-0.1-1.3,0.5-1.7c0.5-0.3,1.1-0.2,1.5,0.2
	l5.4,4.8l-1.5-7c-0.1-0.6,0.1-1.2,0.6-1.5l0.2-0.1c0.5-0.3,1.1-0.2,1.6,0.2l5.3,4.8l-1.5-7.1c-0.1-0.5,0.1-1.1,0.6-1.4
	c0.6-0.3,1.3-0.2,1.6,0.4c0.1,0.1,0.1,0.3,0.2,0.5l1.7,9.2c0.1,0.7-0.1,1.2-0.6,1.5l-0.2,0.1c-0.5,0.3-1.1,0.2-1.6-0.2l-5.1-4.5
	l1.3,6.7c0.1,0.7-0.1,1.2-0.6,1.5l-0.2,0.1c-0.5,0.3-1.1,0.2-1.6-0.2L1336.2,200.5z"/>
<path id="path3659" class="st1" d="M1359.8,205.4l0.8-4.7l-4.2-1.6c-0.3-0.1-0.6-0.3-0.8-0.6c-0.3-0.6-0.2-1.3,0.4-1.7
	c0.5-0.3,0.8-0.2,1.3,0l3.8,1.6l0.5-4c0.1-0.5,0.2-0.9,0.7-1.2s1.2-0.2,1.5,0.4c0.2,0.3,0.2,0.6,0.2,1l-0.7,4.4l4.5,1.7
	c0.3,0.1,0.6,0.3,0.8,0.6c0.3,0.6,0.2,1.3-0.4,1.7c-0.5,0.3-0.8,0.2-1.3,0l-4-1.7l-0.6,4.2c-0.1,0.5-0.2,0.9-0.7,1.2
	s-1.2,0.2-1.5-0.4C1359.8,206.1,1359.8,205.8,1359.8,205.4z"/>
<path id="path3661" class="st1" d="M1375.4,203.6l-5.6-2.4c-0.3-0.1-0.5-0.3-0.7-0.6c-0.3-0.6-0.1-1.3,0.5-1.6
	c0.5-0.3,0.9-0.2,1.4,0l4.3,2l0.4-4.8c0-0.5,0.2-1,0.7-1.2c0.7-0.4,1.3-0.1,1.6,0.4c0.2,0.3,0.2,0.6,0.2,0.9l-0.7,6l1.6,2.8
	c0.3,0.6,0.1,1.3-0.5,1.7c-0.6,0.3-1.3,0.1-1.7-0.5L1375.4,203.6z"/>
<path id="path3663" class="st1" d="M1387.8,206.4L1387.8,206.4c-0.2-0.4-0.3-0.8-0.2-1.3l1.7-8.8l-4.3,2.5c-0.5,0.3-1.2,0.1-1.5-0.4
	s-0.1-1.2,0.4-1.5l6.2-3.6c0.5-0.3,1.2-0.1,1.5,0.4l0,0c0.2,0.4,0.3,0.8,0.2,1.2l-1.7,8.8l4.5-2.6c0.5-0.3,1.2-0.1,1.5,0.4
	s0.1,1.2-0.4,1.5l-6.4,3.7C1388.8,207.1,1388.1,206.9,1387.8,206.4z"/>
<path id="path3665" class="st1" d="M1059.2,239.1L1059.2,239.1c-1-1.6-0.2-3.1,1.6-4.1c0.7-0.4,1.4-0.6,2-0.7l-0.1-0.1
	c-0.5-0.9-1.3-1-2.4-0.4c-0.6,0.3-1,0.7-1.3,1c-0.1,0.1-0.2,0.2-0.3,0.2c-0.5,0.3-1.1,0.1-1.4-0.4c-0.2-0.4-0.2-0.8,0.1-1.1
	c0.5-0.6,1.2-1.2,2.1-1.8c1.2-0.7,2.2-0.8,3-0.6c0.9,0.2,1.6,0.9,2.2,1.9l2,3.4c0.3,0.6,0.1,1.3-0.4,1.6c-0.6,0.4-1.3,0.2-1.5-0.3
	l0,0c-0.2,0.9-0.7,1.6-1.7,2.2C1061.7,240.7,1060.1,240.5,1059.2,239.1z M1063.8,235.8l-0.2-0.4c-0.5,0-1,0.2-1.5,0.5
	c-0.9,0.5-1.2,1.2-0.9,1.9l0,0c0.3,0.6,1,0.6,1.7,0.2C1063.9,237.5,1064.2,236.5,1063.8,235.8z"/>
<path id="path3667" class="st1" d="M1068,231.6c-0.3-0.6-0.1-1.3,0.4-1.7c0.6-0.3,1.3-0.1,1.7,0.4l1.6,2.8c0.1-1,0.5-1.9,1.6-2.5
	c1.7-1,4.2-0.6,5.6,1.9l0,0c1.4,2.5,0.6,4.8-1.2,5.8c-1.1,0.6-2.1,0.5-3,0.2l0,0c0.3,0.6,0.1,1.3-0.5,1.6s-1.3,0.1-1.7-0.4
	L1068,231.6z M1076.8,233.7L1076.8,233.7c-0.7-1.3-2-1.6-3-1s-1.3,1.9-0.6,3.1l0,0c0.7,1.2,2,1.6,3,1
	C1077.2,236.3,1077.5,235,1076.8,233.7z"/>
<path id="path3669" class="st1" d="M1084.3,238.1L1084.3,238.1c-1.2-2.1-0.6-4.8,1.6-6.1c1.1-0.6,2.1-0.8,3-0.6
	c0.2,0,0.5,0.2,0.7,0.5c0.3,0.5,0.1,1.2-0.4,1.5c-0.3,0.2-0.5,0.2-0.7,0.1c-0.5-0.1-1,0-1.6,0.3c-1.1,0.6-1.3,2-0.6,3.1l0,0
	c0.7,1.1,1.9,1.6,3.1,1c0.6-0.3,0.9-0.8,1.1-1.3c0.1-0.1,0.2-0.4,0.5-0.5c0.5-0.3,1.1-0.1,1.4,0.4c0.2,0.3,0.2,0.6,0.1,0.8
	c-0.3,0.9-0.9,1.8-2.1,2.5C1088.1,241,1085.5,240.2,1084.3,238.1z"/>
<path id="path3671" class="st1" d="M1105.8,236.2c0.3,0.6,0.1,1.3-0.4,1.7c-0.6,0.3-1.3,0.1-1.7-0.4l-0.1-0.1
	c-0.1,1-0.5,1.9-1.6,2.5c-1.7,1-4.2,0.6-5.6-1.9l0,0c-1.4-2.5-0.6-4.8,1.2-5.8c1.1-0.6,2.1-0.5,3-0.2l-1.6-2.7
	c-0.3-0.6-0.1-1.3,0.4-1.7c0.6-0.3,1.3-0.1,1.7,0.4L1105.8,236.2z M1098.5,236.7L1098.5,236.7c0.7,1.3,2,1.6,3,1s1.3-1.9,0.6-3.1
	l0,0c-0.7-1.2-2-1.6-3-1S1097.7,235.5,1098.5,236.7z"/>
<path id="path3673" class="st1" d="M1116,239.7c-2.2,1.3-4.8,0.7-6.1-1.6l0,0c-1.2-2.1-0.7-4.7,1.4-6c2.5-1.4,4.8,0,5.6,1.5
	c0.4,0.6,0.2,1.3-0.4,1.6l-4.2,2.4c0.8,0.8,1.7,1,2.7,0.4c0.6-0.3,1-0.8,1.2-1.4c0.1-0.2,0.2-0.3,0.4-0.5c0.5-0.3,1-0.1,1.3,0.4
	c0.2,0.3,0.2,0.6,0.1,0.8C1117.7,238.2,1117,239.1,1116,239.7z M1114.7,234.4c-0.7-0.9-1.6-1.2-2.5-0.7s-1.1,1.5-0.7,2.5
	L1114.7,234.4z"/>
<path id="path3675" class="st1" d="M1122.1,235.1L1122.1,235.1c-0.6,0.3-1.2,0.2-1.5-0.3s-0.1-1.1,0.4-1.4h0.1l-0.3-0.5
	c-0.5-0.8-0.6-1.5-0.4-2.1s0.6-1.1,1.4-1.6c0.3-0.2,0.6-0.3,0.9-0.4c0.4-0.2,0.9,0,1.2,0.4c0.3,0.5,0.1,1.1-0.4,1.4l-0.2,0.1
	c-0.5,0.3-0.6,0.7-0.3,1.2l0.2,0.3l0.9-0.5c0.5-0.3,1.1-0.1,1.4,0.4s0.1,1.1-0.4,1.4l-0.9,0.5l2.7,4.7c0.3,0.6,0.1,1.3-0.4,1.7
	s-1.3,0.1-1.7-0.4L1122.1,235.1z"/>
<path id="path3677" class="st1" d="M1136.1,240.3c-0.4,0.1-0.8-0.1-1.1-0.5c-0.3-0.5-0.1-1.1,0.4-1.4c0.1-0.1,0.3-0.1,0.4-0.1
	c0.8-0.1,1.5-0.3,2.3-0.7c1.4-0.8,1.7-1.9,1-3.2l-0.2-0.4c-0.2,1.1-0.6,2-1.7,2.6c-1.7,1-4,0.6-5.3-1.6l0,0
	c-1.3-2.2-0.4-4.4,1.3-5.4c1.2-0.7,2.1-0.6,3-0.3l0,0c-0.3-0.6-0.1-1.3,0.5-1.6s1.3-0.1,1.7,0.4l2.8,4.8c0.8,1.3,1,2.5,0.7,3.5
	c-0.3,1.1-1.2,2-2.6,2.8C1138.1,239.9,1137.1,240.2,1136.1,240.3z M1137.5,231.8L1137.5,231.8c-0.6-1-1.8-1.3-2.8-0.7
	s-1.4,1.7-0.8,2.8l0,0c0.6,1,1.8,1.3,2.8,0.7C1137.7,233.9,1138.1,232.8,1137.5,231.8z"/>
<path id="path3679" class="st1" d="M1142.7,231.6c-0.3-0.6-0.1-1.3,0.4-1.7c0.6-0.3,1.3-0.1,1.7,0.4l1.6,2.8
	c0.1-0.9,0.4-1.8,1.5-2.4c1.6-0.9,3.1-0.4,4.1,1.3l2.2,3.8c0.3,0.6,0.1,1.3-0.4,1.7c-0.6,0.3-1.3,0.1-1.7-0.4l-1.8-3.2
	c-0.6-1-1.3-1.2-2.1-0.8c-0.8,0.5-1,1.3-0.4,2.3l1.8,3.2c0.3,0.6,0.1,1.3-0.4,1.7c-0.6,0.3-1.3,0.1-1.7-0.4L1142.7,231.6z"/>
<path id="path3681" class="st1" d="M1155.4,231.6c-0.4-0.6-0.1-1.3,0.6-1.7s1.4-0.3,1.7,0.3l0,0c0.4,0.6,0.1,1.3-0.6,1.7
	C1156.5,232.3,1155.8,232.2,1155.4,231.6L1155.4,231.6z M1157.1,234.3c-0.3-0.6-0.1-1.3,0.4-1.7s1.3-0.1,1.7,0.4l3.2,5.5
	c0.3,0.6,0.1,1.3-0.4,1.7s-1.3,0.1-1.7-0.4L1157.1,234.3z"/>
<path id="path3683" class="st1" d="M1170.3,240.1c-0.7,0.4-1.3,0.4-1.7-0.2c-0.3-0.5-0.1-1.1,0.3-1.3l0,0c0.3-0.2,0.4-0.5,0.1-1
	l-3.6-6.3c-0.3-0.6-0.1-1.3,0.4-1.7s1.3-0.1,1.7,0.4l3.7,6.3C1172.2,238,1171.7,239.3,1170.3,240.1L1170.3,240.1z M1163.7,228.6
	c-0.4-0.6-0.1-1.3,0.6-1.7s1.4-0.3,1.7,0.3l0,0c0.4,0.6,0.1,1.3-0.6,1.7C1164.9,229.3,1164.1,229.2,1163.7,228.6L1163.7,228.6z"/>
<path id="path3685" class="st1" d="M1172.1,231.6c-0.3-0.6-0.1-1.3,0.4-1.7c0.6-0.3,1.3-0.1,1.7,0.4l2.7,4.6l1.2-4
	c0.1-0.5,0.3-0.8,0.7-1c0.6-0.3,1.2-0.1,1.5,0.4c0.2,0.4,0.2,0.7,0,1.2l-0.8,2.4l3.5,1.5c0.3,0.1,0.5,0.3,0.7,0.5
	c0.3,0.6,0.1,1.2-0.4,1.5c-0.4,0.2-0.7,0.2-1.2,0l-3.3-1.5l-0.4,1.3l0.7,1.2c0.3,0.6,0.1,1.3-0.4,1.7c-0.6,0.3-1.3,0.1-1.7-0.4
	L1172.1,231.6z"/>
<path id="path3687" class="st1" d="M1184.6,231.6c-0.3-0.6-0.1-1.3,0.4-1.7c0.6-0.3,1.3-0.1,1.7,0.4l4.7,8.2
	c0.3,0.6,0.1,1.3-0.4,1.7c-0.6,0.3-1.3,0.1-1.7-0.4L1184.6,231.6z"/>
<path id="path3689" class="st1" d="M1194.3,234.3c-0.3-0.6-0.1-1.3,0.4-1.7c0.6-0.3,1.3-0.1,1.7,0.4v0.1c0.1-0.9,0.4-1.8,1.5-2.5
	c1-0.6,2-0.6,2.8,0c0.2-1.1,0.7-2,1.8-2.6c1.6-0.9,3.1-0.5,4.1,1.3l2.2,3.9c0.3,0.6,0.1,1.3-0.4,1.7c-0.6,0.3-1.3,0.1-1.7-0.4
	l-1.8-3.2c-0.6-1-1.3-1.3-2.1-0.8s-1,1.2-0.4,2.2l1.8,3.2c0.3,0.6,0.1,1.3-0.4,1.7c-0.6,0.3-1.3,0.1-1.7-0.4l-1.8-3.2
	c-0.6-1-1.3-1.3-2.1-0.8s-1,1.2-0.4,2.2l1.8,3.2c0.3,0.6,0.1,1.3-0.4,1.7c-0.6,0.3-1.3,0.1-1.7-0.4L1194.3,234.3z"/>
<path id="path3691" class="st1" d="M1211.7,234.3c-0.3-0.6-0.1-1.3,0.4-1.7c0.6-0.3,1.3-0.1,1.7,0.4v0.1c0.1-0.9,0.4-1.8,1.5-2.4
	c1.6-0.9,3.1-0.4,4.1,1.3l2.2,3.8c0.3,0.6,0.1,1.3-0.4,1.7c-0.6,0.3-1.3,0.1-1.7-0.4l-1.8-3.2c-0.6-1-1.3-1.2-2.1-0.8
	c-0.8,0.5-1,1.3-0.4,2.3l1.8,3.2c0.3,0.6,0.1,1.3-0.4,1.7c-0.6,0.3-1.3,0.1-1.7-0.4L1211.7,234.3z"/>
<path id="path3693" class="st1" d="M1225.7,238.2L1225.7,238.2c-1.2-2.2-0.5-4.9,1.8-6.2s5-0.6,6.2,1.5l0,0c1.2,2.1,0.5,4.9-1.8,6.2
	C1229.6,241,1226.9,240.3,1225.7,238.2z M1231.7,234.7L1231.7,234.7c-0.6-1.1-2-1.6-3.2-1c-1.2,0.7-1.4,2-0.8,3.1l0,0
	c0.6,1.1,2,1.6,3.1,0.9C1232.1,237.2,1232.3,235.8,1231.7,234.7z"/>
<path id="path3695" class="st1" d="M1237.8,232c-0.3-0.6-0.1-1.3,0.4-1.7c0.6-0.3,1.3-0.1,1.7,0.4l0.1,0.1c0.1-1,0.5-1.9,1.6-2.5
	c1.7-1,4.2-0.6,5.6,1.9l0,0c1.4,2.5,0.6,4.8-1.2,5.8c-1.1,0.6-2.1,0.5-3,0.2l1.3,2.2c0.3,0.6,0.1,1.3-0.4,1.7
	c-0.6,0.3-1.3,0.1-1.7-0.4L1237.8,232z M1245.1,231.5L1245.1,231.5c-0.7-1.3-2-1.6-3-1s-1.3,1.9-0.6,3.1l0,0c0.7,1.2,2,1.6,3,1
	S1245.8,232.8,1245.1,231.5z"/>
<path id="path3697" class="st1" d="M1263.2,238.4c0.3,0.6,0.1,1.3-0.4,1.7c-0.6,0.3-1.3,0.1-1.7-0.4l-1.3-2.3
	c-0.1,1-0.5,1.9-1.6,2.5c-1.7,1-4.2,0.6-5.6-1.9l0,0c-1.4-2.5-0.6-4.8,1.2-5.8c1.1-0.6,2.1-0.5,3-0.2l0,0c-0.3-0.6-0.1-1.3,0.5-1.6
	s1.3-0.1,1.7,0.4L1263.2,238.4z M1254.7,236.7L1254.7,236.7c0.7,1.3,2,1.6,3,1s1.3-1.9,0.6-3.1l0,0c-0.7-1.2-2-1.6-3-1
	C1254.3,234.2,1254,235.5,1254.7,236.7z"/>
<path id="path3699" class="st1" d="M1264.8,234.3c-0.3-0.6-0.1-1.3,0.4-1.7c0.6-0.3,1.3-0.1,1.7,0.4l0.2,0.3c-0.1-0.9,0-1.9,0.6-2.2
	c0.7-0.4,1.3-0.2,1.6,0.4c0.3,0.6,0.2,1.1-0.2,1.4c-0.9,0.9-1,2-0.2,3.5l1.1,2c0.3,0.6,0.1,1.3-0.4,1.7c-0.6,0.3-1.3,0.1-1.7-0.4
	L1264.8,234.3z"/>
<path id="path3701" class="st1" d="M1277.9,240.3c-0.3,0-0.6-0.2-0.8-0.5c-0.3-0.5-0.1-1,0.4-1.3c0.2-0.1,0.3-0.1,0.5-0.1
	c1,0,1.8-0.2,2.4-0.5c0.6-0.4,0.8-0.7,0.6-1.1l0,0c-0.3-0.5-1.1-0.2-2,0c-1.2,0.3-2.7,0.5-3.5-1l0,0c-0.9-1.5-0.1-3.1,1.4-3.9
	c0.8-0.4,1.7-0.7,2.6-0.8c0.4,0,0.7,0.1,1,0.5c0.3,0.5,0.1,1-0.4,1.3c-0.2,0.1-0.3,0.1-0.4,0.1c-0.8,0.1-1.4,0.2-1.9,0.5
	s-0.6,0.7-0.5,1l0,0c0.2,0.4,1.1,0.2,2,0c1.2-0.3,2.7-0.5,3.5,0.9l0,0c1,1.7,0.2,3.1-1.5,4C1280.3,240.1,1279.1,240.4,1277.9,240.3z
	"/>
<path id="path3703" class="st1" d="M1288.8,238.9l-2-3.5h-0.1c-0.5,0.3-1.1,0.1-1.4-0.4s-0.1-1.1,0.4-1.4h0.1l-0.5-0.9
	c-0.3-0.6-0.1-1.3,0.4-1.7c0.6-0.3,1.3-0.1,1.7,0.4l0.5,0.9l0.9-0.5c0.5-0.3,1.1-0.1,1.4,0.4s0.1,1.1-0.4,1.4l-0.9,0.5l1.8,3.2
	c0.3,0.5,0.6,0.6,1.1,0.3c0.1,0,0.2-0.1,0.2-0.2c0.5-0.3,1.1-0.1,1.4,0.4c0.2,0.4,0.1,0.8-0.1,1.1c-0.3,0.4-0.6,0.6-1.1,0.9
	C1290.9,240.6,1289.7,240.6,1288.8,238.9z"/>
<path id="path3705" class="st1" d="M1305.7,236.3c0.3,0.6,0.1,1.3-0.4,1.7c-0.6,0.3-1.3,0.1-1.7-0.4v-0.1c-0.1,0.9-0.4,1.8-1.5,2.4
	c-1.6,0.9-3.1,0.4-4.1-1.3l-2.2-3.8c-0.3-0.6-0.1-1.3,0.4-1.7c0.6-0.3,1.3-0.1,1.7,0.4l1.8,3.2c0.6,1,1.3,1.2,2.1,0.8
	c0.8-0.5,1-1.3,0.4-2.3l-1.8-3.2c-0.3-0.6-0.1-1.3,0.4-1.7c0.6-0.3,1.3-0.1,1.7,0.4L1305.7,236.3z"/>
<path id="path3707" class="st1" d="M1315.6,240.1l-0.1,0.1c-0.6,0.3-1.2,0.2-1.7-0.2l-5.3-3.9c-0.1-0.1-0.3-0.3-0.4-0.4
	c-0.3-0.5-0.1-1.2,0.5-1.6s1.1-0.2,1.5,0.2l4.1,3.4l-0.9-5.3c-0.1-0.4,0-1,0.6-1.3s1.3-0.2,1.6,0.4c0.1,0.2,0.2,0.4,0.2,0.6l0.8,6.6
	C1316.3,239.2,1316.2,239.8,1315.6,240.1z"/>
<path id="path3709" class="st1" d="M1325.5,239.9l-4.8-4.2c-0.1-0.1-0.3-0.3-0.4-0.5c-0.3-0.5-0.2-1.2,0.5-1.5
	c0.5-0.3,1.1-0.2,1.5,0.2l3.3,3.1l-1-4.4c-0.1-0.6,0.1-1.2,0.6-1.5l0.1-0.1c0.5-0.3,1.1-0.2,1.6,0.2l3.4,3.1l-1-4.5
	c-0.1-0.5,0-1.1,0.5-1.4c0.6-0.3,1.2-0.1,1.5,0.4c0.1,0.1,0.1,0.4,0.2,0.5l1.2,6.4c0.2,0.8-0.1,1.3-0.6,1.6h-0.1
	c-0.5,0.3-1.1,0.3-1.7-0.2l-3.3-3.1l1,4.4c0.2,0.7-0.1,1.3-0.6,1.6h-0.1C1326.7,240.5,1326.1,240.4,1325.5,239.9z"/>
<path id="path3711" class="st1" d="M1339.6,238.9l0.6-3.3l-2.9-1c-0.4-0.1-0.7-0.3-0.8-0.6c-0.3-0.6-0.1-1.2,0.4-1.5
	c0.4-0.2,0.8-0.2,1.3,0l2.4,1l0.3-2.6c0.1-0.4,0.2-0.9,0.6-1.1c0.6-0.3,1.2-0.2,1.5,0.3c0.2,0.3,0.2,0.6,0.1,0.9l-0.6,3.1l3.1,1.1
	c0.4,0.1,0.7,0.3,0.8,0.6c0.3,0.6,0.1,1.2-0.4,1.5c-0.4,0.2-0.8,0.2-1.3,0l-2.6-1.1l-0.4,2.8c-0.1,0.4-0.2,0.9-0.6,1.1
	c-0.6,0.3-1.2,0.2-1.5-0.3C1339.5,239.5,1339.5,239.3,1339.6,238.9z"/>
<path id="path3713" class="st1" d="M1354.2,240.3c-0.4,0.1-0.9,0-1.2-0.5c-0.3-0.5-0.1-1.1,0.3-1.3c0.2-0.1,0.3-0.1,0.4-0.1
	c0.2,0,0.3-0.1,0.5-0.2c0.4-0.2,0.5-0.4,0.5-0.9v-0.2l-5.9-4.4c-0.1-0.1-0.3-0.3-0.4-0.4c-0.3-0.6-0.1-1.3,0.5-1.6
	c0.5-0.3,1-0.2,1.5,0.2l4.1,3.4l-0.9-5.2c-0.1-0.5,0-1.1,0.5-1.4c0.5-0.3,1.2-0.2,1.6,0.4c0.1,0.2,0.2,0.4,0.2,0.6l1,7.7
	c0.2,1.9,0,2.8-1.3,3.5C1355,240.1,1354.7,240.3,1354.2,240.3z"/>
<path id="path3715" class="st1" d="M1364.1,239.9L1364.1,239.9c-0.3-0.4-0.3-0.8-0.1-1.3l1.3-5.8l-2.9,1.7c-0.5,0.3-1.1,0.1-1.3-0.3
	s-0.1-1.1,0.4-1.4l4.6-2.7c0.6-0.3,1.2-0.2,1.5,0.3l0,0c0.2,0.4,0.2,0.7,0.1,1.3l-1.3,5.8l3.1-1.8c0.5-0.3,1.1-0.1,1.4,0.4
	s0.1,1.1-0.4,1.3l-4.7,2.7C1365,240.5,1364.4,240.4,1364.1,239.9z"/>
<g id="g3717">
	<path id="path3719" class="st1" d="M1168.3,86.9l-0.9,0.2c-0.1,0-0.3,0.1-0.4,0.1c-0.6,0-1.1-0.5-1.1-1.1c0-0.5,0.3-0.9,0.8-1.1
		l1.6-0.5c0.5-0.1,0.8-0.2,1.2-0.2l0,0c0.7,0,1.2,0.5,1.2,1.2v9c0,0.7-0.5,1.2-1.2,1.2s-1.2-0.5-1.2-1.2V86.9z"/>
	<path id="path3721" class="st1" d="M1173.5,93.3l3.2-2.6c1.4-1.1,1.9-1.8,1.9-2.7c0-0.9-0.6-1.5-1.5-1.5c-0.7,0-1.2,0.3-1.8,1
		c-0.2,0.2-0.4,0.4-0.8,0.4c-0.6,0-1.1-0.5-1.1-1.1c0-0.3,0.1-0.6,0.3-0.8c0.9-1,2-1.6,3.6-1.6c2.3,0,3.9,1.4,3.9,3.5l0,0
		c0,1.9-1,2.8-2.9,4.3l-1.8,1.4h3.9c0.6,0,1.1,0.5,1.1,1.1s-0.5,1.1-1.1,1.1h-6.1c-0.8,0-1.3-0.4-1.3-1.2
		C1172.9,94.1,1173.1,93.7,1173.5,93.3z"/>
	<path id="path3723" class="st1" d="M1183.4,94.6c-0.2-0.2-0.4-0.5-0.4-0.9c0-0.6,0.5-1.2,1.2-1.2c0.4,0,0.6,0.1,0.8,0.3
		c0.6,0.5,1.3,0.8,2.2,0.8c0.9,0,1.6-0.5,1.6-1.4l0,0c0-0.9-0.8-1.4-2.2-1.4h-0.4c-0.6,0-1.1-0.5-1.1-1.1c0-0.3,0.1-0.6,0.5-1
		l2.2-2.2h-3.4c-0.6,0-1.1-0.5-1.1-1.1s0.5-1.1,1.1-1.1h5.5c0.7,0,1.2,0.4,1.2,1.1c0,0.6-0.3,0.9-0.7,1.4l-2.2,2.1
		c1.5,0.3,3,1.1,3,3.1l0,0c0,2.1-1.5,3.7-4,3.7C1185.6,95.9,1184.4,95.4,1183.4,94.6z"/>
	<path id="path3725" class="st1" d="M1198.5,93.3h-4.6c-0.7,0-1.2-0.5-1.2-1.1c0-0.5,0.2-0.9,0.6-1.3l4.9-5.7
		c0.5-0.5,0.8-0.8,1.5-0.8s1.2,0.5,1.2,1.2v5.8h0.6c0.6,0,1,0.4,1,1s-0.4,1-1,1h-0.6v1.3c0,0.7-0.5,1.2-1.2,1.2s-1.2-0.5-1.2-1.2
		L1198.5,93.3L1198.5,93.3z M1198.5,91.3v-3.5l-3,3.5H1198.5z"/>
	<path id="path3727" class="st1" d="M1204.6,94.9c-0.3-0.2-0.5-0.5-0.5-0.9c0-0.6,0.5-1.2,1.2-1.2c0.3,0,0.5,0.1,0.7,0.2
		c0.7,0.5,1.3,0.7,2.1,0.7c1,0,1.8-0.6,1.8-1.6l0,0c0-1-0.8-1.5-2-1.5c-0.9,0-1.4,0.3-1.7,0.3c-0.4,0-0.6-0.1-1.1-0.5
		c-0.3-0.2-0.5-0.6-0.4-1l0.2-3.8c0-0.6,0.5-1.1,1.1-1.1h4.9c0.6,0,1.1,0.5,1.1,1.1s-0.5,1.1-1.1,1.1h-3.8l-0.1,1.9
		c0.4-0.1,0.8-0.2,1.5-0.2c2.2,0,3.9,1.1,3.9,3.6l0,0c0,2.4-1.7,3.9-4.2,3.9C1206.5,95.9,1205.5,95.5,1204.6,94.9z"/>
	<path id="path3729" class="st1" d="M1215.4,94.7c-0.8-0.8-1.3-2-1.3-4.2l0,0c0-3.5,1.6-6.1,4.9-6.1c1.1,0,2,0.3,2.7,0.7
		c0.4,0.2,0.6,0.6,0.6,1.1c0,0.6-0.5,1.1-1.2,1.1c-0.2,0-0.4-0.1-0.6-0.2c-0.5-0.3-1-0.4-1.6-0.4c-1.4,0-2.1,1.1-2.3,2.6
		c0.6-0.4,1.2-0.7,2.3-0.7c2.2,0,3.9,1.2,3.9,3.6l0,0c0,2.3-1.8,3.9-4.3,3.9C1217.2,95.9,1216.2,95.5,1215.4,94.7z M1220.5,92.2
		L1220.5,92.2c0-1-0.7-1.7-2-1.7c-1.2,0-1.9,0.7-1.9,1.6l0,0c0,0.9,0.7,1.7,2,1.7C1219.8,93.8,1220.5,93.1,1220.5,92.2z"/>
	<path id="path3731" class="st1" d="M1225.8,94l4.2-7.3h-4.3c-0.6,0-1.1-0.5-1.1-1.1s0.5-1.1,1.1-1.1h6.1c0.7,0,1.1,0.4,1.1,1.1
		c0,0.4-0.1,0.8-0.4,1.2L1228,95c-0.3,0.6-0.7,0.8-1.2,0.8c-0.7,0-1.3-0.4-1.3-1.1C1225.5,94.5,1225.6,94.2,1225.8,94z"/>
	<path id="path3733" class="st1" d="M1234,92.7L1234,92.7c0-1.4,0.6-2.2,1.8-2.7c-0.9-0.5-1.4-1.2-1.4-2.4l0,0
		c0-1.7,1.6-3.1,3.9-3.1s3.9,1.3,3.9,3.1l0,0c0,1.2-0.6,1.9-1.4,2.4c1.1,0.6,1.8,1.3,1.8,2.6l0,0c0,2.1-1.8,3.3-4.3,3.3
		C1235.9,95.9,1234,94.6,1234,92.7z M1240.3,92.5L1240.3,92.5c0-0.9-0.8-1.4-1.9-1.4s-1.9,0.5-1.9,1.4l0,0c0,0.8,0.7,1.4,1.9,1.4
		C1239.6,93.9,1240.3,93.2,1240.3,92.5z M1240,87.7L1240,87.7c0-0.7-0.6-1.3-1.6-1.3s-1.6,0.6-1.6,1.3l0,0c0,0.8,0.6,1.4,1.6,1.4
		S1240,88.5,1240,87.7z"/>
	<path id="path3735" class="st1" d="M1245.2,95.1c-0.3-0.2-0.6-0.6-0.6-1c0-0.6,0.5-1.1,1.2-1.1c0.2,0,0.4,0.1,0.6,0.2
		c0.6,0.3,1.1,0.5,1.8,0.5c1.4,0,2.1-1,2.3-2.5c-0.5,0.5-1.3,0.8-2.3,0.8c-2.4,0-4-1.3-4-3.6l0,0c0-2.3,1.7-3.9,4.3-3.9
		c1.5,0,2.4,0.4,3.2,1.2c0.8,0.8,1.3,2,1.3,4.2l0,0c0,3.6-1.7,6.1-4.9,6.1C1246.9,95.9,1246,95.6,1245.2,95.1z M1250.5,88.2
		L1250.5,88.2c0-1-0.7-1.7-2-1.7c-1.2,0-1.9,0.7-1.9,1.7l0,0c0,1,0.7,1.7,2,1.7C1249.8,89.9,1250.5,89.1,1250.5,88.2z"/>
	<path id="path3737" class="st1" d="M1254.8,90.2L1254.8,90.2c0-3.3,2-5.8,5-5.8s5,2.5,5,5.8l0,0c0,3.2-2,5.8-5,5.8
		S1254.8,93.4,1254.8,90.2z M1262.2,90.2L1262.2,90.2c0-2.1-1-3.6-2.5-3.6s-2.4,1.5-2.4,3.5l0,0c0,2,1,3.6,2.5,3.6
		C1261.3,93.7,1262.2,92.2,1262.2,90.2z"/>
</g>
<g id="g3739">
	<path id="path3741" class="st1" d="M1004.5,31.8l3.9-8.8c0.3-0.6,0.8-1,1.4-1h0.1c0.7,0,1.2,0.4,1.4,1l3.9,8.8
		c0.1,0.2,0.1,0.3,0.1,0.5c0,0.7-0.5,1.2-1.2,1.2c-0.6,0-1-0.3-1.2-0.8l-0.8-1.8h-4.9l-0.8,1.8c-0.2,0.5-0.6,0.8-1.1,0.8
		c-0.6,0-1.1-0.5-1.1-1.2C1004.3,32.1,1004.4,31.9,1004.5,31.8z M1011.4,28.6l-1.6-3.7l-1.6,3.7H1011.4z"/>
	<path id="path3743" class="st1" d="M1022.2,23.4c0-0.7,0.5-1.2,1.2-1.2h4c1.3,0,2.3,0.4,2.9,1c0.5,0.5,0.8,1.1,0.8,1.9l0,0
		c0,1.3-0.7,2-1.5,2.4c1.3,0.5,2.1,1.2,2.1,2.8l0,0c0,2-1.7,3.1-4.2,3.1h-4.1c-0.7,0-1.2-0.5-1.2-1.2L1022.2,23.4L1022.2,23.4z
		 M1026.8,26.7c1.1,0,1.8-0.4,1.8-1.2l0,0c0-0.7-0.6-1.2-1.6-1.2h-2.4v2.4C1024.6,26.7,1026.8,26.7,1026.8,26.7z M1027.5,31.2
		c1.1,0,1.7-0.4,1.7-1.2l0,0c0-0.8-0.6-1.2-1.8-1.2h-2.8v2.5L1027.5,31.2L1027.5,31.2z"/>
	<path id="path3745" class="st1" d="M1038,27.8L1038,27.8c0-3.2,2.4-5.8,5.8-5.8c1.7,0,2.8,0.4,3.7,1.1c0.3,0.2,0.5,0.5,0.5,1
		c0,0.7-0.5,1.2-1.2,1.2c-0.3,0-0.6-0.1-0.7-0.2c-0.7-0.5-1.4-0.8-2.3-0.8c-1.9,0-3.2,1.6-3.2,3.5l0,0c0,1.9,1.3,3.5,3.2,3.5
		c1,0,1.7-0.3,2.4-0.9c0.2-0.2,0.4-0.3,0.7-0.3c0.6,0,1.2,0.5,1.2,1.1c0,0.4-0.2,0.7-0.4,0.9c-1,0.9-2.2,1.4-4,1.4
		C1040.5,33.5,1038,31,1038,27.8z"/>
	<path id="path3747" class="st1" d="M1055.1,23.4c0-0.7,0.5-1.2,1.2-1.2h3.1c3.5,0,6,2.4,6,5.6l0,0c0,3.2-2.4,5.6-6,5.6h-3.1
		c-0.7,0-1.2-0.5-1.2-1.2V23.4z M1059.5,31.1c2,0,3.4-1.4,3.4-3.3l0,0c0-2-1.4-3.4-3.4-3.4h-1.9v6.8h1.9V31.1z"/>
	<path id="path3749" class="st1" d="M1072.4,32.1v-8.7c0-0.7,0.5-1.2,1.2-1.2h6.2c0.6,0,1.1,0.5,1.1,1.1s-0.5,1.1-1.1,1.1h-5v2.3
		h4.3c0.6,0,1.1,0.5,1.1,1.1s-0.5,1.1-1.1,1.1h-4.3v2.4h5.1c0.6,0,1.1,0.5,1.1,1.1c0,0.6-0.5,1.1-1.1,1.1h-6.3
		C1073,33.3,1072.4,32.8,1072.4,32.1z"/>
	<path id="path3751" class="st1" d="M1088,23.4c0-0.7,0.5-1.2,1.2-1.2h6.3c0.6,0,1.1,0.5,1.1,1.1s-0.5,1.1-1.1,1.1h-5v2.4h4.3
		c0.6,0,1.1,0.5,1.1,1.1s-0.5,1.1-1.1,1.1h-4.3v3.2c0,0.7-0.5,1.2-1.2,1.2s-1.2-0.5-1.2-1.2v-8.8H1088z"/>
	<path id="path3753" class="st1" d="M1102.8,27.8L1102.8,27.8c0-3.2,2.5-5.8,5.9-5.8c1.7,0,2.8,0.4,3.8,1.1c0.2,0.2,0.5,0.5,0.5,1
		c0,0.7-0.5,1.2-1.2,1.2c-0.4,0-0.6-0.1-0.8-0.3c-0.7-0.5-1.4-0.8-2.4-0.8c-1.8,0-3.2,1.6-3.2,3.5l0,0c0,2,1.4,3.6,3.4,3.6
		c0.9,0,1.7-0.2,2.3-0.7V29h-1.7c-0.6,0-1.1-0.5-1.1-1.1s0.5-1.1,1.1-1.1h2.8c0.7,0,1.2,0.5,1.2,1.2v2.7c0,0.7-0.3,1.2-0.9,1.6
		c-0.9,0.6-2.2,1.1-3.9,1.1C1105.2,33.5,1102.8,31.1,1102.8,27.8z"/>
	<path id="path3755" class="st1" d="M1120.6,23.3c0-0.7,0.5-1.2,1.2-1.2s1.2,0.5,1.2,1.2v3.3h4.5v-3.3c0-0.7,0.5-1.2,1.2-1.2
		s1.2,0.5,1.2,1.2v8.9c0,0.7-0.5,1.2-1.2,1.2s-1.2-0.5-1.2-1.2v-3.4h-4.5v3.4c0,0.7-0.5,1.2-1.2,1.2s-1.2-0.5-1.2-1.2V23.3z"/>
	<path id="path3757" class="st1" d="M1137.7,23.3c0-0.7,0.5-1.2,1.2-1.2s1.2,0.5,1.2,1.2v8.9c0,0.7-0.5,1.2-1.2,1.2
		s-1.2-0.5-1.2-1.2V23.3z"/>
	<path id="path3759" class="st1" d="M1147.3,32.5c-0.3-0.2-0.5-0.6-0.5-0.9c0-0.7,0.5-1.2,1.2-1.2c0.3,0,0.5,0.1,0.7,0.3
		c0.5,0.4,0.9,0.6,1.5,0.6c1,0,1.5-0.6,1.5-1.9v-6.1c0-0.7,0.5-1.2,1.2-1.2s1.2,0.5,1.2,1.2v6.2c0,1.3-0.4,2.3-1.1,3s-1.7,1-2.9,1
		C1149,33.5,1148,33.1,1147.3,32.5z"/>
	<path id="path3761" class="st1" d="M1161.6,23.3c0-0.7,0.5-1.2,1.2-1.2s1.2,0.5,1.2,1.2V27l4.5-4.5c0.3-0.3,0.6-0.5,1-0.5
		c0.7,0,1.1,0.5,1.1,1.1c0,0.4-0.2,0.7-0.4,0.9l-3.2,2.9l3.4,4.3c0.2,0.2,0.3,0.5,0.3,0.9c0,0.7-0.5,1.2-1.2,1.2
		c-0.5,0-0.8-0.2-1-0.6l-3.2-4.2L1164,30v2.2c0,0.7-0.5,1.2-1.2,1.2s-1.2-0.5-1.2-1.2L1161.6,23.3L1161.6,23.3z"/>
	<path id="path3763" class="st1" d="M1177.8,23.3c0-0.7,0.5-1.2,1.2-1.2s1.2,0.5,1.2,1.2v7.8h4.6c0.6,0,1.1,0.5,1.1,1.1
		s-0.5,1.1-1.1,1.1h-5.8c-0.7,0-1.2-0.5-1.2-1.2L1177.8,23.3L1177.8,23.3z"/>
	<path id="path3765" class="st1" d="M1192.5,23.3c0-0.7,0.5-1.2,1.2-1.2h0.3c0.5,0,0.9,0.3,1.1,0.6l3,4.8l3-4.9
		c0.3-0.4,0.6-0.6,1.1-0.6h0.3c0.7,0,1.2,0.5,1.2,1.2v8.9c0,0.7-0.5,1.2-1.2,1.2s-1.2-0.6-1.2-1.2v-5.6l-2.2,3.3
		c-0.3,0.4-0.6,0.6-1,0.6s-0.8-0.2-1-0.6l-2.1-3.3v5.6c0,0.7-0.5,1.2-1.2,1.2s-1.2-0.5-1.2-1.2v-8.8H1192.5z"/>
	<path id="path3767" class="st1" d="M1211.1,23.3c0-0.7,0.5-1.2,1.2-1.2h0.3c0.6,0,0.9,0.3,1.3,0.7l4.8,6.2v-5.8
		c0-0.7,0.5-1.2,1.2-1.2s1.2,0.5,1.2,1.2v8.9c0,0.7-0.5,1.2-1.2,1.2h-0.1c-0.6,0-0.9-0.3-1.3-0.7l-4.9-6.5v6c0,0.7-0.5,1.2-1.2,1.2
		s-1.2-0.5-1.2-1.2v-8.8H1211.1z"/>
	<path id="path3769" class="st1" d="M1228.1,27.8L1228.1,27.8c0-3.2,2.5-5.8,6-5.8s5.9,2.6,5.9,5.8l0,0c0,3.2-2.5,5.8-6,5.8
		C1230.6,33.5,1228.1,31,1228.1,27.8z M1237.4,27.8L1237.4,27.8c0-2-1.4-3.6-3.4-3.6s-3.4,1.6-3.4,3.5l0,0c0,1.9,1.4,3.5,3.4,3.5
		C1236,31.3,1237.4,29.7,1237.4,27.8z"/>
	<path id="path3771" class="st1" d="M1247,23.4c0-0.7,0.5-1.2,1.2-1.2h3.3c2.7,0,4.3,1.6,4.3,3.9l0,0c0,2.6-2,3.9-4.5,3.9h-1.9v2.2
		c0,0.7-0.5,1.2-1.2,1.2s-1.2-0.5-1.2-1.2L1247,23.4L1247,23.4z M1251.4,27.8c1.2,0,2-0.7,2-1.7l0,0c0-1.1-0.8-1.7-2-1.7h-1.9v3.4
		C1249.5,27.8,1251.4,27.8,1251.4,27.8z"/>
	<path id="path3773" class="st1" d="M1262,27.8L1262,27.8c0-3.2,2.5-5.8,6-5.8s5.9,2.6,5.9,5.8l0,0c0,1.2-0.4,2.3-1,3.2l0.5,0.4
		c0.3,0.2,0.4,0.5,0.4,0.9c0,0.6-0.5,1.2-1.2,1.2c-0.3,0-0.6-0.1-0.8-0.3l-0.6-0.5c-0.9,0.6-2.1,1-3.3,1
		C1264.5,33.5,1262,31,1262,27.8z M1267.8,29c0-0.6,0.5-1.2,1.2-1.2c0.3,0,0.6,0.1,0.8,0.3l1.2,1.1c0.2-0.4,0.3-1,0.3-1.5l0,0
		c0-1.9-1.4-3.5-3.4-3.5s-3.4,1.6-3.4,3.5l0,0c0,1.9,1.4,3.5,3.4,3.5c0.5,0,1-0.1,1.5-0.3l-1.2-1C1268,29.7,1267.8,29.4,1267.8,29z"
		/>
	<path id="path3775" class="st1" d="M1280.9,23.4c0-0.7,0.5-1.2,1.2-1.2h3.9c1.4,0,2.5,0.4,3.3,1.1c0.6,0.6,1,1.5,1,2.6l0,0
		c0,1.8-0.9,2.8-2.2,3.4l1.7,2.1c0.2,0.3,0.4,0.6,0.4,0.9c0,0.7-0.6,1.1-1.2,1.1s-0.9-0.3-1.2-0.6l-2.4-3h-2v2.4
		c0,0.7-0.5,1.2-1.2,1.2s-1.2-0.5-1.2-1.2v-8.8H1280.9z M1285.8,27.6c1.2,0,1.9-0.6,1.9-1.6l0,0c0-1.1-0.7-1.6-1.9-1.6h-2.4v3.2
		H1285.8z"/>
	<path id="path3777" class="st1" d="M1297,32.2c-0.3-0.2-0.5-0.5-0.5-0.9c0-0.6,0.5-1.1,1.2-1.1c0.3,0,0.5,0.1,0.7,0.2
		c0.8,0.6,1.8,1,2.9,1c1,0,1.6-0.4,1.6-1.1l0,0c0-0.6-0.4-0.9-2.3-1.4c-2.3-0.6-3.7-1.2-3.7-3.4l0,0c0-2,1.6-3.4,3.9-3.4
		c1.4,0,2.5,0.4,3.6,1c0.3,0.2,0.5,0.5,0.5,1c0,0.6-0.5,1.1-1.2,1.1c-0.2,0-0.4-0.1-0.6-0.2c-0.8-0.5-1.6-0.8-2.4-0.8
		c-0.9,0-1.4,0.4-1.4,1l0,0c0,0.7,0.5,1,2.4,1.5c2.3,0.6,3.6,1.4,3.6,3.4l0,0c0,2.2-1.7,3.5-4.1,3.5
		C1299.8,33.5,1298.3,33,1297,32.2z"/>
	<path id="path3779" class="st1" d="M1314.9,24.4h-2.4c-0.6,0-1.1-0.5-1.1-1.1s0.5-1.1,1.1-1.1h7.2c0.6,0,1.1,0.5,1.1,1.1
		s-0.5,1.1-1.1,1.1h-2.4v7.8c0,0.7-0.5,1.2-1.2,1.2s-1.2-0.5-1.2-1.2V24.4z"/>
	<path id="path3781" class="st1" d="M1327.3,28.5v-5.3c0-0.7,0.5-1.2,1.2-1.2s1.2,0.5,1.2,1.2v5.2c0,1.8,0.9,2.8,2.4,2.8
		s2.4-0.9,2.4-2.7v-5.3c0-0.7,0.5-1.2,1.2-1.2s1.2,0.5,1.2,1.2v5.2c0,3.4-1.9,5.1-4.9,5.1C1329.1,33.5,1327.3,31.8,1327.3,28.5z"/>
	<path id="path3783" class="st1" d="M1347.3,32.5l-3.6-8.7c-0.1-0.2-0.1-0.4-0.1-0.6c0-0.7,0.5-1.2,1.2-1.2c0.6,0,1.1,0.4,1.2,0.9
		l2.8,7.3l2.8-7.3c0.2-0.4,0.6-0.8,1.2-0.8c0.7,0,1.2,0.5,1.2,1.2c0,0.2-0.1,0.4-0.1,0.5l-3.7,8.8c-0.3,0.6-0.7,1-1.4,1h-0.2
		C1348.1,33.5,1347.6,33.1,1347.3,32.5z"/>
	<path id="path3785" class="st1" d="M1360.1,23.7c0-0.1-0.1-0.3-0.1-0.5c0-0.7,0.6-1.2,1.3-1.2c0.6,0,1,0.4,1.2,0.9l2.2,6.9l2.2-6.8
		c0.2-0.6,0.6-1,1.2-1h0.2c0.6,0,1.1,0.4,1.2,1l2.2,6.8l2.2-6.9c0.2-0.5,0.6-0.9,1.2-0.9c0.7,0,1.2,0.5,1.2,1.2c0,0.1,0,0.3-0.1,0.5
		l-3.1,8.8c-0.2,0.6-0.7,1-1.3,1h-0.3c-0.6,0-1-0.4-1.3-1l-2.2-6.4l-2.2,6.4c-0.2,0.6-0.7,1-1.3,1h-0.3c-0.6,0-1.1-0.4-1.3-1
		L1360.1,23.7z"/>
	<path id="path3787" class="st1" d="M1382.9,31.4l3-3.7l-2.8-3.5c-0.2-0.2-0.4-0.6-0.4-0.9c0-0.7,0.5-1.2,1.2-1.2
		c0.5,0,0.8,0.2,1.1,0.6l2.4,3.3l2.4-3.2c0.3-0.4,0.7-0.7,1.2-0.7s1.1,0.4,1.1,1.1c0,0.4-0.1,0.6-0.4,0.9l-2.8,3.5l3,3.7
		c0.2,0.2,0.4,0.6,0.4,0.9c0,0.7-0.5,1.2-1.2,1.2c-0.5,0-0.8-0.2-1.1-0.6l-2.6-3.4l-2.6,3.4c-0.3,0.4-0.7,0.7-1.2,0.7
		s-1.1-0.4-1.1-1.1C1382.5,31.9,1382.6,31.7,1382.9,31.4z"/>
	<path id="path3789" class="st1" d="M1402.2,29l-3.6-4.9c-0.2-0.2-0.3-0.5-0.3-0.9c0-0.7,0.5-1.2,1.2-1.2c0.6,0,0.9,0.3,1.2,0.8
		l2.7,3.9l2.8-4c0.3-0.4,0.7-0.7,1.2-0.7c0.8,0,1.2,0.5,1.2,1.2c0,0.3-0.2,0.6-0.3,0.9l-3.6,4.9v3.2c0,0.7-0.5,1.2-1.2,1.2
		s-1.2-0.5-1.2-1.2L1402.2,29L1402.2,29z"/>
	<path id="path3791" class="st1" d="M1414.7,32.2L1414.7,32.2c0-0.5,0.2-0.9,0.4-1.2l5.8-6.8h-5c-0.6,0-1.1-0.5-1.1-1.1
		s0.5-1.1,1.1-1.1h7.2c0.6,0,1.1,0.5,1.1,1.1l0,0c0,0.4-0.2,0.8-0.4,1.2l-5.8,6.8h5.2c0.6,0,1.1,0.5,1.1,1.1s-0.5,1.1-1.1,1.1h-7.3
		C1415.2,33.3,1414.7,32.8,1414.7,32.2z"/>
</g>
<g id="g3793">
	<path id="path3795" class="st1" d="M1034.4,58.8L1034.4,58.8c0-1.9,1.4-2.8,3.5-2.8c0.9,0,1.5,0.1,2.1,0.4v-0.1
		c0-1-0.6-1.6-1.8-1.6c-0.7,0-1.2,0.1-1.7,0.2c-0.1,0-0.2,0.1-0.4,0.1c-0.6,0-1-0.4-1-1c0-0.4,0.3-0.8,0.7-0.9
		c0.8-0.3,1.6-0.4,2.7-0.4c1.3,0,2.3,0.4,2.9,1s0.9,1.6,0.9,2.7v3.9c0,0.7-0.5,1.2-1.2,1.2s-1.2-0.5-1.2-1l0,0
		c-0.6,0.7-1.4,1.1-2.6,1.1C1035.7,61.4,1034.4,60.5,1034.4,58.8z M1040,58.2v-0.4c-0.4-0.2-1-0.3-1.6-0.3c-1,0-1.7,0.4-1.7,1.2l0,0
		c0,0.7,0.5,1,1.3,1C1039.2,59.7,1040,59.1,1040,58.2z"/>
	<path id="path3797" class="st1" d="M1049.2,50.7c0-0.7,0.5-1.2,1.2-1.2s1.2,0.5,1.2,1.2v3.2c0.6-0.8,1.4-1.4,2.7-1.4
		c2,0,3.9,1.6,3.9,4.4l0,0c0,2.9-1.9,4.4-3.9,4.4c-1.3,0-2.1-0.6-2.7-1.3l0,0c0,0.7-0.5,1.2-1.2,1.2s-1.2-0.5-1.2-1.2V50.7z
		 M1055.7,57L1055.7,57c0-1.5-1-2.4-2.1-2.4s-2.1,0.9-2.1,2.4l0,0c0,1.4,0.9,2.4,2.1,2.4C1054.8,59.3,1055.7,58.4,1055.7,57z"/>
	<path id="path3799" class="st1" d="M1064.3,57L1064.3,57c0-2.5,1.9-4.5,4.5-4.5c1.3,0,2.2,0.4,2.9,1c0.2,0.1,0.4,0.4,0.4,0.8
		c0,0.6-0.5,1.1-1.1,1.1c-0.3,0-0.6-0.1-0.7-0.2c-0.4-0.3-0.9-0.5-1.5-0.5c-1.2,0-2.1,1.1-2.1,2.3l0,0c0,1.3,0.8,2.4,2.2,2.4
		c0.6,0,1.1-0.2,1.6-0.6c0.1-0.1,0.4-0.2,0.7-0.2c0.6,0,1,0.5,1,1c0,0.3-0.1,0.6-0.4,0.8c-0.7,0.7-1.6,1.1-3,1.1
		C1066.2,61.4,1064.3,59.4,1064.3,57z"/>
	<path id="path3801" class="st1" d="M1087.3,60.1c0,0.7-0.5,1.2-1.2,1.2s-1.2-0.5-1.2-1.2V60c-0.6,0.8-1.4,1.4-2.7,1.4
		c-2,0-3.9-1.6-3.9-4.4l0,0c0-2.9,1.9-4.4,3.9-4.4c1.3,0,2.1,0.6,2.7,1.3v-3.1c0-0.7,0.5-1.2,1.2-1.2s1.2,0.5,1.2,1.2V60.1z
		 M1080.7,56.9L1080.7,56.9c0,1.5,1,2.4,2.1,2.4s2.1-0.9,2.1-2.4l0,0c0-1.4-0.9-2.4-2.1-2.4C1081.7,54.6,1080.7,55.5,1080.7,56.9z"
		/>
	<path id="path3803" class="st1" d="M1098.4,61.4c-2.6,0-4.5-1.8-4.5-4.4l0,0c0-2.4,1.7-4.5,4.2-4.5c2.9,0,4.1,2.4,4.1,4.1
		c0,0.7-0.5,1.2-1.1,1.2h-4.8c0.2,1.1,1,1.7,2.1,1.7c0.7,0,1.2-0.2,1.7-0.6c0.2-0.1,0.3-0.2,0.6-0.2c0.5,0,0.9,0.4,0.9,1
		c0,0.3-0.1,0.6-0.3,0.7C1100.6,61,1099.6,61.4,1098.4,61.4z M1099.9,56.3c-0.1-1.1-0.8-1.8-1.8-1.8s-1.7,0.7-1.9,1.8H1099.9z"/>
	<path id="path3805" class="st1" d="M1109.3,54.7L1109.3,54.7c-0.7,0-1.1-0.4-1.1-1s0.4-1,1-1h0.1v-0.5c0-0.9,0.2-1.6,0.7-2.1
		c0.4-0.4,1.1-0.7,2-0.7c0.4,0,0.7,0,1,0.1c0.4,0.1,0.8,0.4,0.8,1c0,0.5-0.4,1-1,1h-0.2c-0.6,0-0.9,0.3-0.9,0.9v0.3h1.1
		c0.6,0,1,0.4,1,1s-0.4,1-1,1h-1v5.4c0,0.7-0.5,1.2-1.2,1.2s-1.2-0.5-1.2-1.2v-5.4H1109.3z"/>
	<path id="path3807" class="st1" d="M1120.5,63.2c-0.4-0.2-0.7-0.5-0.7-0.9c0-0.5,0.4-1,1-1c0.2,0,0.3,0,0.4,0.1
		c0.7,0.3,1.5,0.5,2.4,0.5c1.7,0,2.4-0.8,2.4-2.3v-0.4c-0.7,0.9-1.5,1.4-2.8,1.4c-2,0-3.8-1.5-3.8-4l0,0c0-2.6,1.8-4,3.8-4
		c1.3,0,2.1,0.6,2.8,1.3l0,0c0-0.7,0.5-1.2,1.2-1.2s1.2,0.5,1.2,1.2v5.5c0,1.5-0.4,2.7-1.1,3.4c-0.8,0.8-2,1.2-3.7,1.2
		C1122.5,63.8,1121.5,63.6,1120.5,63.2z M1126,56.5L1126,56.5c0-1.2-0.9-2-2.1-2s-2.1,0.8-2.1,2l0,0c0,1.2,0.9,2,2.1,2
		S1126,57.7,1126,56.5z"/>
	<path id="path3809" class="st1" d="M1135.4,50.7c0-0.7,0.5-1.2,1.2-1.2s1.2,0.5,1.2,1.2v3.2c0.6-0.7,1.3-1.4,2.5-1.4
		c1.8,0,2.9,1.2,2.9,3.2v4.4c0,0.7-0.5,1.2-1.2,1.2s-1.2-0.5-1.2-1.2v-3.7c0-1.2-0.5-1.7-1.5-1.7s-1.5,0.6-1.5,1.7v3.7
		c0,0.7-0.5,1.2-1.2,1.2s-1.2-0.5-1.2-1.2L1135.4,50.7L1135.4,50.7z"/>
	<path id="path3811" class="st1" d="M1150.1,50.6c0-0.7,0.6-1.1,1.4-1.1s1.4,0.4,1.4,1.1l0,0c0,0.7-0.6,1.2-1.4,1.2
		S1150.1,51.3,1150.1,50.6L1150.1,50.6z M1150.3,53.8c0-0.7,0.5-1.2,1.2-1.2s1.2,0.5,1.2,1.2v6.3c0,0.7-0.5,1.2-1.2,1.2
		s-1.2-0.5-1.2-1.2V53.8z"/>
	<path id="path3813" class="st1" d="M1159.7,63.8c-0.8,0-1.4-0.3-1.4-1c0-0.6,0.4-1,0.9-1l0,0c0.4,0,0.6-0.2,0.6-0.8v-7.3
		c0-0.7,0.5-1.2,1.2-1.2s1.2,0.5,1.2,1.2V61C1162.3,63,1161.4,63.8,1159.7,63.8L1159.7,63.8z M1159.8,50.6c0-0.7,0.6-1.1,1.4-1.1
		s1.4,0.4,1.4,1.1l0,0c0,0.7-0.6,1.2-1.4,1.2S1159.8,51.3,1159.8,50.6L1159.8,50.6z"/>
	<path id="path3815" class="st1" d="M1169.4,50.7c0-0.7,0.5-1.2,1.2-1.2s1.2,0.5,1.2,1.2V56l3-2.9c0.4-0.3,0.6-0.5,1.1-0.5
		c0.7,0,1.1,0.5,1.1,1.1c0,0.4-0.2,0.7-0.6,1.1l-1.9,1.6l2.3,3.1c0.2,0.3,0.3,0.5,0.3,0.8c0,0.7-0.5,1.1-1.1,1.1
		c-0.5,0-0.8-0.2-1.1-0.6l-2.1-2.9l-1,0.9v1.4c0,0.7-0.5,1.2-1.2,1.2s-1.2-0.5-1.2-1.2L1169.4,50.7L1169.4,50.7z"/>
	<path id="path3817" class="st1" d="M1183.8,50.7c0-0.7,0.5-1.2,1.2-1.2s1.2,0.5,1.2,1.2v9.4c0,0.7-0.5,1.2-1.2,1.2
		s-1.2-0.5-1.2-1.2V50.7z"/>
	<path id="path3819" class="st1" d="M1193.3,53.8c0-0.7,0.5-1.2,1.2-1.2s1.2,0.5,1.2,1.2v0.1c0.6-0.7,1.3-1.4,2.5-1.4
		c1.1,0,2,0.5,2.4,1.4c0.8-0.9,1.6-1.4,2.8-1.4c1.8,0,2.9,1.1,2.9,3.2v4.5c0,0.7-0.5,1.2-1.2,1.2s-1.2-0.5-1.2-1.2v-3.7
		c0-1.2-0.5-1.7-1.4-1.7s-1.5,0.6-1.5,1.7v3.7c0,0.7-0.5,1.2-1.2,1.2s-1.2-0.5-1.2-1.2v-3.7c0-1.2-0.5-1.7-1.4-1.7s-1.5,0.6-1.5,1.7
		v3.7c0,0.7-0.5,1.2-1.2,1.2s-1.2-0.5-1.2-1.2L1193.3,53.8L1193.3,53.8z"/>
	<path id="path3821" class="st1" d="M1213.3,53.8c0-0.7,0.5-1.2,1.2-1.2s1.2,0.5,1.2,1.2v0.1c0.6-0.7,1.3-1.4,2.5-1.4
		c1.8,0,2.9,1.2,2.9,3.2v4.4c0,0.7-0.5,1.2-1.2,1.2s-1.2-0.5-1.2-1.2v-3.7c0-1.2-0.5-1.7-1.5-1.7c-0.9,0-1.5,0.6-1.5,1.7v3.7
		c0,0.7-0.5,1.2-1.2,1.2s-1.2-0.5-1.2-1.2L1213.3,53.8L1213.3,53.8z"/>
	<path id="path3823" class="st1" d="M1227.6,57L1227.6,57c0-2.5,2-4.5,4.7-4.5s4.6,2,4.6,4.4l0,0c0,2.5-2,4.5-4.7,4.5
		C1229.6,61.4,1227.6,59.5,1227.6,57z M1234.5,57L1234.5,57c0-1.3-0.9-2.4-2.3-2.4s-2.2,1.1-2.2,2.3l0,0c0,1.3,0.9,2.4,2.3,2.4
		C1233.7,59.3,1234.5,58.3,1234.5,57z"/>
	<path id="path3825" class="st1" d="M1243.5,53.8c0-0.7,0.5-1.2,1.2-1.2s1.2,0.5,1.2,1.2v0.1c0.6-0.8,1.4-1.4,2.7-1.4
		c2,0,3.9,1.6,3.9,4.4l0,0c0,2.9-1.9,4.4-3.9,4.4c-1.3,0-2.1-0.6-2.7-1.3v2.6c0,0.7-0.5,1.2-1.2,1.2s-1.2-0.5-1.2-1.2V53.8z
		 M1250,57L1250,57c0-1.5-1-2.4-2.1-2.4s-2.1,0.9-2.1,2.4l0,0c0,1.4,0.9,2.4,2.1,2.4S1250,58.4,1250,57z"/>
	<path id="path3827" class="st1" d="M1267.7,62.7c0,0.7-0.5,1.2-1.2,1.2s-1.2-0.5-1.2-1.2V60c-0.6,0.8-1.4,1.4-2.7,1.4
		c-2,0-3.9-1.6-3.9-4.4l0,0c0-2.9,1.9-4.4,3.9-4.4c1.3,0,2.1,0.6,2.7,1.3l0,0c0-0.7,0.5-1.2,1.2-1.2s1.2,0.5,1.2,1.2V62.7z
		 M1261.1,56.9L1261.1,56.9c0,1.5,1,2.4,2.1,2.4s2.1-0.9,2.1-2.4l0,0c0-1.4-0.9-2.4-2.1-2.4S1261.1,55.5,1261.1,56.9z"/>
	<path id="path3829" class="st1" d="M1274.7,53.8c0-0.7,0.5-1.2,1.2-1.2s1.2,0.5,1.2,1.2v0.4c0.4-0.8,0.9-1.6,1.6-1.6
		c0.8,0,1.2,0.5,1.2,1.2c0,0.6-0.4,1-0.9,1.1c-1.2,0.3-1.9,1.2-1.9,3v2.3c0,0.7-0.5,1.2-1.2,1.2s-1.2-0.5-1.2-1.2L1274.7,53.8
		L1274.7,53.8z"/>
	<path id="path3831" class="st1" d="M1285.9,60.4c-0.3-0.2-0.5-0.4-0.5-0.8c0-0.5,0.4-1,1-1c0.2,0,0.4,0,0.5,0.1
		c0.8,0.5,1.6,0.8,2.3,0.8c0.7,0,1-0.3,1-0.6l0,0c0-0.5-0.8-0.7-1.8-1c-1.2-0.4-2.6-0.9-2.6-2.6l0,0c0-1.7,1.4-2.7,3.1-2.7
		c0.9,0,1.8,0.2,2.7,0.7c0.4,0.2,0.6,0.5,0.6,0.9c0,0.5-0.4,1-1,1c-0.2,0-0.3,0-0.4-0.1c-0.7-0.3-1.3-0.5-1.9-0.5s-0.9,0.3-0.9,0.6
		l0,0c0,0.5,0.8,0.7,1.7,1c1.2,0.4,2.6,1,2.6,2.5l0,0c0,1.9-1.4,2.8-3.3,2.8C1288.1,61.4,1287,61.1,1285.9,60.4z"/>
	<path id="path3833" class="st1" d="M1299.4,58.8v-4.1h-0.1c-0.6,0-1-0.5-1-1s0.5-1,1-1h0.1v-1.1c0-0.7,0.5-1.2,1.2-1.2
		s1.2,0.5,1.2,1.2v1.1h1.1c0.6,0,1,0.5,1,1s-0.5,1-1,1h-1.1v3.7c0,0.6,0.2,0.8,0.8,0.8c0.1,0,0.2,0,0.3,0c0.5,0,1,0.4,1,1
		c0,0.4-0.3,0.8-0.6,0.9c-0.4,0.2-0.9,0.2-1.4,0.2C1300.4,61.4,1299.4,60.8,1299.4,58.8z"/>
	<path id="path3835" class="st1" d="M1318.2,60.1c0,0.7-0.5,1.2-1.2,1.2s-1.2-0.5-1.2-1.2V60c-0.6,0.7-1.3,1.4-2.5,1.4
		c-1.8,0-2.9-1.2-2.9-3.2v-4.4c0-0.7,0.5-1.2,1.2-1.2s1.2,0.5,1.2,1.2v3.7c0,1.2,0.5,1.7,1.5,1.7c0.9,0,1.5-0.6,1.5-1.7v-3.7
		c0-0.7,0.5-1.2,1.2-1.2s1.2,0.5,1.2,1.2L1318.2,60.1L1318.2,60.1z"/>
	<path id="path3837" class="st1" d="M1328.9,61.4L1328.9,61.4c-0.8,0-1.2-0.4-1.5-1.1l-2.6-6.1c-0.1-0.2-0.1-0.4-0.1-0.6
		c0-0.6,0.5-1.1,1.2-1.1s1,0.4,1.2,0.9l1.8,5l1.9-5c0.2-0.4,0.5-0.8,1.1-0.8s1.2,0.5,1.2,1.2c0,0.2-0.1,0.5-0.1,0.6l-2.6,6.1
		C1330,61,1329.5,61.4,1328.9,61.4z"/>
	<path id="path3839" class="st1" d="M1341,60.3l-2.1-6.1c0-0.1-0.1-0.4-0.1-0.6c0-0.6,0.4-1.1,1.2-1.1c0.6,0,1,0.4,1.2,0.9l1.3,4.4
		l1.3-4.3c0.2-0.6,0.6-1,1.2-1h0.1c0.6,0,1.1,0.4,1.2,1l1.4,4.4l1.3-4.4c0.2-0.5,0.5-0.9,1.2-0.9s1.1,0.5,1.1,1.1
		c0,0.2,0,0.4-0.1,0.5l-2.2,6.1c-0.3,0.8-0.8,1.1-1.3,1.1h-0.1c-0.6,0-1.1-0.3-1.3-1l-1.4-4.3l-1.4,4.3c-0.2,0.7-0.7,1-1.3,1h-0.1
		C1341.7,61.4,1341.2,61.1,1341,60.3z"/>
	<path id="path3841" class="st1" d="M1357.7,59.5l2.2-2.6l-2-2.3c-0.3-0.3-0.4-0.6-0.4-0.9c0-0.7,0.5-1.1,1.1-1.1
		c0.5,0,0.8,0.2,1.1,0.6l1.6,2.1l1.6-2.1c0.3-0.4,0.6-0.6,1.1-0.6c0.6,0,1.1,0.4,1.1,1.1c0,0.3-0.1,0.6-0.3,0.8l-2.1,2.4l2.1,2.5
		c0.3,0.3,0.4,0.6,0.4,0.9c0,0.7-0.5,1.1-1.1,1.1c-0.5,0-0.8-0.2-1.1-0.6l-1.7-2.3l-1.7,2.3c-0.3,0.4-0.6,0.6-1.1,0.6
		c-0.6,0-1.1-0.4-1.1-1.1C1357.3,60,1357.5,59.7,1357.7,59.5z"/>
	<path id="path3843" class="st1" d="M1372.2,63.6c-0.4-0.1-0.8-0.4-0.8-1s0.5-1,1-1c0.2,0,0.3,0,0.4,0.1c0.2,0.1,0.3,0.1,0.5,0.1
		c0.4,0,0.6-0.1,0.9-0.5l0.1-0.2l-2.9-6.8c-0.1-0.2-0.1-0.4-0.1-0.6c0-0.7,0.5-1.2,1.2-1.2c0.6,0,1,0.3,1.2,0.9l1.9,5l1.8-5
		c0.2-0.5,0.5-0.9,1.2-0.9c0.6,0,1.2,0.5,1.2,1.1c0,0.2-0.1,0.5-0.1,0.6l-3,7.2c-0.7,1.7-1.4,2.4-2.9,2.4
		C1373,63.8,1372.6,63.8,1372.2,63.6z"/>
	<path id="path3845" class="st1" d="M1385.6,60.3L1385.6,60.3c0-0.5,0.2-0.8,0.5-1.2l4-4.4h-3.4c-0.5,0-1-0.4-1-1s0.4-1,1-1h5.3
		c0.7,0,1.2,0.4,1.2,1l0,0c0,0.5-0.2,0.8-0.5,1.2l-4,4.4h3.6c0.5,0,1,0.4,1,1c0,0.5-0.4,1-1,1h-5.5
		C1386.1,61.2,1385.6,60.8,1385.6,60.3z"/>
</g>
<path id="path3847" class="st1" d="M1160.5,442.9l-0.9-0.2c-0.1,0-0.3-0.1-0.4-0.2c-0.5-0.3-0.7-1-0.4-1.5c0.2-0.4,0.7-0.6,1.2-0.5
	l1.6,0.4c0.5,0.1,0.8,0.2,1.1,0.4l0,0c0.6,0.3,0.8,1.1,0.4,1.7l-4.5,7.8c-0.3,0.6-1.1,0.8-1.7,0.4c-0.6-0.3-0.8-1.1-0.4-1.7
	L1160.5,442.9z"/>
<path id="path3849" class="st1" d="M1167.4,445.8l4.1-0.7c1.8-0.3,2.6-0.6,3-1.4c0.5-0.8,0.2-1.6-0.6-2c-0.6-0.4-1.2-0.3-2.1-0.1
	c-0.2,0.1-0.6,0.1-0.9-0.1c-0.5-0.3-0.7-1-0.4-1.5c0.1-0.2,0.4-0.4,0.6-0.5c1.3-0.5,2.5-0.5,4,0.4c2,1.2,2.7,3.1,1.6,4.9l0,0
	c-0.9,1.6-2.2,1.9-4.7,2.3l-2.3,0.3l3.4,2c0.5,0.3,0.7,1,0.4,1.5c-0.3,0.5-0.9,0.7-1.5,0.4l-5.3-3c-0.7-0.4-0.9-1-0.6-1.7
	C1166.5,446.1,1166.9,445.9,1167.4,445.8z"/>
<path id="path3851" class="st1" d="M1177.9,447.8c-0.1-0.3-0.1-0.7,0.1-1c0.3-0.6,1.1-0.8,1.6-0.4c0.3,0.2,0.4,0.4,0.5,0.7
	c0.3,0.8,0.7,1.4,1.5,1.8c0.8,0.5,1.6,0.3,2.1-0.4l0,0c0.5-0.8,0-1.6-1.2-2.3l-0.3-0.2c-0.5-0.3-0.7-0.9-0.4-1.4
	c0.2-0.3,0.4-0.5,1-0.6l3-0.8l-3-1.7c-0.5-0.3-0.7-0.9-0.4-1.4c0.3-0.5,0.9-0.7,1.4-0.4l4.7,2.7c0.6,0.4,0.9,1,0.5,1.6
	c-0.3,0.5-0.7,0.7-1.3,0.8l-2.9,0.7c1.2,1,2.1,2.4,1,4.2l0,0c-1.1,1.8-3.2,2.4-5.3,1.2C1179,450,1178.3,448.9,1177.9,447.8z"/>
<path id="path3853" class="st1" d="M1194.5,448.5l-4-2.3c-0.6-0.3-0.8-1-0.5-1.6c0.3-0.4,0.6-0.7,1.2-0.9l7-2.5
	c0.7-0.2,1.1-0.3,1.7,0s0.8,1,0.4,1.6l-2.9,5l0.5,0.3c0.5,0.3,0.6,0.9,0.4,1.4c-0.3,0.5-0.9,0.6-1.4,0.4l-0.5-0.3l-0.7,1.2
	c-0.3,0.6-1,0.7-1.6,0.4s-0.8-1-0.4-1.6L1194.5,448.5z M1195.5,446.8l1.7-3l-4.3,1.5L1195.5,446.8z"/>
<path id="path3855" class="st1" d="M1201.5,448.1c-0.1-0.3-0.2-0.7,0-1.1c0.3-0.6,1-0.8,1.6-0.4c0.2,0.1,0.4,0.3,0.5,0.5
	c0.3,0.8,0.8,1.3,1.5,1.7c0.9,0.5,1.8,0.4,2.3-0.4l0,0c0.5-0.8,0.1-1.7-1-2.3c-0.8-0.5-1.3-0.4-1.6-0.6c-0.3-0.2-0.5-0.4-0.7-1
	c-0.2-0.4-0.1-0.7,0.1-1.1l2.1-3.2c0.3-0.5,1-0.7,1.5-0.4l4.2,2.4c0.5,0.3,0.7,1,0.4,1.5c-0.3,0.5-1,0.7-1.5,0.4l-3.3-1.9l-1.1,1.6
	c0.4,0.1,0.8,0.3,1.4,0.6c1.9,1.1,2.9,2.9,1.6,5.1l0,0c-1.2,2.1-3.4,2.5-5.6,1.3C1202.7,450,1202,449.1,1201.5,448.1z"/>
<path id="path3857" class="st1" d="M1213.6,448.1c-0.3-1.1-0.1-2.4,1-4.3l0,0c1.7-3,4.4-4.5,7.3-2.8c1,0.6,1.6,1.3,2,1.9
	c0.2,0.4,0.3,0.8,0,1.2c-0.3,0.6-1,0.7-1.6,0.4c-0.2-0.1-0.3-0.3-0.4-0.5c-0.3-0.5-0.6-0.9-1.2-1.2c-1.2-0.7-2.4-0.1-3.3,1.1
	c0.7,0,1.4,0,2.4,0.5c1.9,1.1,2.8,3,1.6,5.1l0,0c-1.1,2-3.5,2.4-5.6,1.2C1214.5,450,1213.9,449.2,1213.6,448.1z M1219.3,448.4
	L1219.3,448.4c0.5-0.8,0.2-1.8-0.9-2.4s-2-0.4-2.5,0.4l0,0c-0.5,0.8-0.2,1.8,0.9,2.4C1217.8,449.5,1218.8,449.2,1219.3,448.4z"/>
<path id="path3859" class="st1" d="M1225.7,449.1l7.3-4.2l-3.7-2.1c-0.5-0.3-0.7-0.9-0.4-1.5s1-0.7,1.5-0.4l5.3,3
	c0.6,0.3,0.8,0.9,0.4,1.5c-0.2,0.3-0.5,0.6-0.9,0.9l-8,4.8c-0.6,0.4-1,0.4-1.4,0.1c-0.6-0.3-0.9-1-0.5-1.6
	C1225.2,449.5,1225.5,449.2,1225.7,449.1z"/>
<path id="path3861" class="st1" d="M1237.5,445.6L1237.5,445.6c0.7-1.2,1.6-1.6,2.9-1.5c-0.5-0.9-0.6-1.8,0-2.8l0,0
	c0.9-1.5,2.9-1.9,4.9-0.7s2.7,3.1,1.9,4.6l0,0c-0.6,1-1.4,1.4-2.5,1.4c0.7,1.1,0.9,2,0.2,3.2l0,0c-1,1.8-3.2,1.9-5.4,0.7
	C1237.4,449.4,1236.5,447.3,1237.5,445.6z M1243,448.6L1243,448.6c0.4-0.8,0-1.6-1-2.2s-1.9-0.5-2.4,0.2l0,0c-0.4,0.7-0.1,1.6,1,2.2
	C1241.7,449.5,1242.6,449.3,1243,448.6z M1245,444.4L1245,444.4c0.4-0.6,0.2-1.5-0.7-2c-0.9-0.5-1.7-0.3-2,0.3l0,0
	c-0.4,0.7-0.1,1.5,0.7,2S1244.7,445,1245,444.4z"/>
<path id="path3863" class="st1" d="M1248.9,448.6c-0.2-0.3-0.2-0.8,0-1.2c0.3-0.6,1-0.7,1.6-0.4c0.2,0.1,0.3,0.3,0.5,0.5
	c0.3,0.6,0.7,1,1.3,1.3c1.2,0.7,2.3,0.2,3.2-1.1c-0.7,0.1-1.5,0-2.4-0.5c-2.1-1.2-2.8-3.2-1.7-5.1l0,0c1.1-2,3.5-2.5,5.7-1.3
	c1.3,0.8,1.9,1.5,2.2,2.7c0.3,1.1,0.1,2.4-1,4.3l0,0c-1.8,3.1-4.5,4.4-7.3,2.8C1250,450.1,1249.4,449.4,1248.9,448.6z M1257,445.2
	L1257,445.2c0.5-0.9,0.2-1.9-0.8-2.5c-1.1-0.6-2-0.3-2.5,0.5l0,0c-0.5,0.9-0.2,1.8,0.9,2.4C1255.5,446.3,1256.5,446.1,1257,445.2z"
	/>
<path id="path3865" class="st1" d="M1261.6,443.3L1261.6,443.3c1.6-2.8,4.7-4,7.2-2.5c2.6,1.5,3,4.7,1.4,7.5l0,0
	c-1.6,2.8-4.6,4-7.2,2.5S1259.9,446.1,1261.6,443.3z M1268,447L1268,447c1-1.8,0.9-3.6-0.3-4.4s-2.9,0.1-3.9,1.8l0,0
	c-1,1.8-0.9,3.6,0.3,4.3C1265.4,449.6,1267,448.8,1268,447z"/>
<path id="path3867" class="st1" d="M1029.8,370.3l7.8-5.7c0.5-0.4,1.2-0.5,1.7-0.1l0.1,0.1c0.6,0.3,0.8,0.9,0.7,1.6l-1,9.6
	c0,0.2-0.1,0.4-0.1,0.5c-0.3,0.6-1,0.8-1.6,0.4c-0.5-0.3-0.7-0.8-0.6-1.3l0.2-1.9l-4.3-2.5l-1.6,1.2c-0.4,0.3-0.9,0.4-1.4,0.1
	c-0.6-0.3-0.7-1-0.4-1.6C1029.5,370.5,1029.6,370.4,1029.8,370.3z M1037.3,371.1l0.5-4l-3.2,2.4L1037.3,371.1z"/>
<path id="path3869" class="st1" d="M1049.3,364.6c0.3-0.6,1.1-0.8,1.7-0.5l3.4,2c1.1,0.6,1.8,1.4,2,2.3c0.2,0.7,0.1,1.4-0.3,2l0,0
	c-0.6,1.1-1.6,1.4-2.5,1.4c0.9,1.1,1.2,2.1,0.4,3.4l0,0c-1,1.8-3,1.8-5.2,0.6l-3.5-2c-0.6-0.3-0.8-1.1-0.5-1.7L1049.3,364.6z
	 M1051.7,369.8c0.9,0.5,1.7,0.6,2.1-0.1l0,0c0.4-0.6,0.1-1.3-0.8-1.8l-2.1-1.2l-1.2,2.1L1051.7,369.8z M1050,374
	c0.9,0.5,1.7,0.5,2.1-0.2l0,0c0.4-0.7,0.1-1.3-1-2l-2.5-1.4l-1.2,2.1L1050,374z"/>
<path id="path3871" class="st1" d="M1060.8,368L1060.8,368c1.6-2.8,5-3.8,8-2.1c1.5,0.8,2.2,1.8,2.7,2.9c0.1,0.3,0.1,0.7-0.1,1.1
	c-0.3,0.6-1.1,0.8-1.7,0.4c-0.3-0.2-0.4-0.4-0.5-0.6c-0.3-0.8-0.8-1.4-1.6-1.8c-1.6-0.9-3.6-0.3-4.6,1.4l0,0c-1,1.7-0.6,3.7,1.1,4.7
	c0.9,0.5,1.7,0.6,2.5,0.5c0.2,0,0.5,0,0.8,0.1c0.5,0.3,0.7,1,0.4,1.6c-0.2,0.3-0.5,0.5-0.8,0.6c-1.3,0.3-2.6,0.1-4.2-0.8
	C1060.1,374.2,1059.2,370.8,1060.8,368z"/>
<path id="path3873" class="st1" d="M1077.8,365.1c0.3-0.6,1.1-0.8,1.7-0.5l2.7,1.6c3,1.8,3.9,5.1,2.4,7.8l0,0
	c-1.6,2.7-4.9,3.6-8,1.9l-2.7-1.6c-0.6-0.3-0.8-1.1-0.5-1.7L1077.8,365.1z M1077.7,374c1.7,1,3.6,0.5,4.6-1.2l0,0
	c1-1.7,0.5-3.6-1.2-4.6l-1.6-1l-3.4,5.8L1077.7,374z"/>
<path id="path3875" class="st1" d="M1088.5,371.8l4.4-7.6c0.3-0.6,1.1-0.8,1.7-0.5l5.4,3.1c0.5,0.3,0.7,1,0.4,1.5s-1,0.7-1.5,0.4
	l-4.3-2.5l-1.1,2l3.7,2.1c0.5,0.3,0.7,1,0.4,1.5s-1,0.7-1.5,0.4l-3.7-2.1l-1.2,2l4.4,2.5c0.5,0.3,0.7,1,0.4,1.5s-1,0.7-1.5,0.4
	l-5.4-3.1C1088.3,373.1,1088.1,372.4,1088.5,371.8z"/>
<path id="path3877" class="st1" d="M1106.3,367.3c0.3-0.6,1.1-0.8,1.7-0.5l5.4,3.1c0.5,0.3,0.7,1,0.4,1.5c-0.3,0.5-1,0.7-1.5,0.4
	l-4.4-2.5l-1.2,2.1l3.7,2.2c0.5,0.3,0.7,1,0.4,1.5c-0.3,0.5-1,0.7-1.5,0.4l-3.7-2.2l-1.6,2.8c-0.3,0.6-1.1,0.8-1.7,0.5
	s-0.8-1.1-0.5-1.7L1106.3,367.3z"/>
<path id="path3879" class="st1" d="M1116.9,367.9L1116.9,367.9c1.6-2.8,5.1-3.8,8-2.1c1.5,0.8,2.2,1.7,2.8,2.9
	c0.1,0.3,0.2,0.7-0.1,1.1c-0.3,0.6-1.1,0.8-1.7,0.4c-0.3-0.2-0.4-0.4-0.5-0.6c-0.3-0.8-0.8-1.4-1.7-1.9c-1.6-0.9-3.6-0.2-4.5,1.4
	l0,0c-1,1.8-0.6,3.8,1.2,4.8c0.8,0.4,1.6,0.7,2.3,0.6l0.8-1.4l-1.4-0.8c-0.5-0.3-0.7-0.9-0.4-1.5s1-0.7,1.5-0.4l2.4,1.4
	c0.6,0.3,0.8,1.1,0.5,1.7l-1.4,2.4c-0.4,0.6-0.8,0.9-1.5,0.9c-1.1,0-2.5-0.2-4-1C1116.1,374,1115.2,370.7,1116.9,367.9z"/>
<path id="path3881" class="st1" d="M1134.6,363.7c0.3-0.6,1.1-0.8,1.7-0.5s0.8,1.1,0.5,1.7l-1.6,2.9l3.9,2.3l1.6-2.9
	c0.3-0.6,1.1-0.8,1.7-0.5s0.8,1.1,0.5,1.7l-4.5,7.7c-0.3,0.6-1.1,0.8-1.7,0.5s-0.8-1.1-0.5-1.7l1.7-2.9l-3.9-2.3l-1.7,2.9
	c-0.3,0.6-1.1,0.8-1.7,0.5s-0.8-1.1-0.5-1.7L1134.6,363.7z"/>
<path id="path3883" class="st1" d="M1149.4,367.2c0.3-0.6,1.1-0.8,1.7-0.5s0.8,1.1,0.5,1.7l-4.5,7.7c-0.3,0.6-1.1,0.8-1.7,0.5
	s-0.8-1.1-0.5-1.7L1149.4,367.2z"/>
<path id="path3885" class="st1" d="M1153.1,373.8c-0.1-0.3-0.1-0.7,0.1-1.1c0.3-0.6,1-0.8,1.6-0.4c0.3,0.2,0.4,0.3,0.5,0.6
	c0.2,0.6,0.5,0.9,1,1.2c0.8,0.5,1.6,0.3,2.3-0.8l3-5.3c0.3-0.6,1.1-0.8,1.7-0.5s0.8,1.1,0.5,1.7l-3.1,5.4c-0.7,1.2-1.5,1.8-2.4,2.1
	c-0.9,0.3-2,0.1-3-0.6C1154.1,375.5,1153.4,374.6,1153.1,373.8z"/>
<path id="path3887" class="st1" d="M1170,363.7c0.3-0.6,1.1-0.8,1.7-0.5s0.8,1.1,0.5,1.7l-1.9,3.3l6.2-1.6c0.4-0.1,0.8-0.1,1.1,0.1
	c0.6,0.3,0.7,1,0.4,1.6c-0.2,0.3-0.5,0.5-0.9,0.6l-4.2,1l0.8,5.5c0,0.3,0,0.6-0.1,0.9c-0.3,0.6-1.1,0.8-1.7,0.4
	c-0.4-0.2-0.5-0.6-0.6-1l-0.7-5.2l-1.9,0.4l-1.1,1.9c-0.3,0.6-1.1,0.8-1.7,0.5s-0.8-1.1-0.5-1.7L1170,363.7z"/>
<path id="path3889" class="st1" d="M1184.1,364.4c0.3-0.6,1.1-0.8,1.7-0.5s0.8,1.1,0.5,1.7l-3.9,6.8l4,2.3c0.5,0.3,0.7,1,0.4,1.5
	c-0.3,0.5-1,0.7-1.5,0.4l-5-2.9c-0.6-0.3-0.8-1.1-0.5-1.7L1184.1,364.4z"/>
<path id="path3891" class="st1" d="M1196.8,362.9c0.3-0.6,1.1-0.8,1.7-0.5l0.2,0.1c0.5,0.3,0.6,0.7,0.6,1.1l0.2,5.7l5-2.7
	c0.4-0.2,0.8-0.2,1.3,0l0.2,0.1c0.6,0.3,0.8,1.1,0.5,1.7l-4.5,7.7c-0.3,0.6-1.1,0.8-1.7,0.5s-0.8-1.1-0.4-1.7l2.8-4.8l-3.5,1.8
	c-0.4,0.2-0.8,0.3-1.2,0c-0.4-0.2-0.5-0.6-0.6-1.1l-0.2-3.9l-2.8,4.8c-0.3,0.6-1.1,0.8-1.7,0.4c-0.6-0.3-0.8-1.1-0.4-1.6
	L1196.8,362.9z"/>
<path id="path3893" class="st1" d="M1213,363.5c0.3-0.6,1.1-0.8,1.7-0.5l0.2,0.1c0.5,0.3,0.7,0.7,0.7,1.3l1,7.8l2.9-5
	c0.3-0.6,1.1-0.8,1.7-0.4c0.6,0.3,0.8,1.1,0.4,1.7l-4.5,7.7c-0.3,0.6-1.1,0.8-1.7,0.5h-0.1c-0.5-0.3-0.7-0.7-0.7-1.3l-1-8.1l-3,5.2
	c-0.3,0.6-1.1,0.8-1.7,0.4c-0.6-0.3-0.8-1.1-0.4-1.7L1213,363.5z"/>
<path id="path3895" class="st1" d="M1225.4,368L1225.4,368c1.6-2.8,5.1-3.8,8.1-2.1c3,1.7,3.9,5.2,2.3,8l0,0c-1.6,2.8-5.1,3.8-8.1,2
	C1224.7,374.2,1223.8,370.7,1225.4,368z M1233.5,372.6L1233.5,372.6c1-1.7,0.6-3.8-1.2-4.8c-1.7-1-3.7-0.3-4.7,1.3l0,0
	c-1,1.7-0.5,3.8,1.2,4.7C1230.6,375,1232.5,374.3,1233.5,372.6z"/>
<path id="path3897" class="st1" d="M1244,367.3c0.3-0.6,1.1-0.8,1.7-0.5l2.9,1.7c2.3,1.3,2.9,3.5,1.8,5.5l0,0
	c-1.3,2.2-3.7,2.4-5.9,1.1l-1.6-0.9l-1.1,1.9c-0.3,0.6-1.1,0.8-1.7,0.5s-0.8-1.1-0.5-1.7L1244,367.3z M1245.6,373.3
	c1.1,0.6,2.1,0.3,2.5-0.5l0,0c0.6-1,0.2-1.9-0.9-2.5l-1.7-1l-1.7,3L1245.6,373.3z"/>
<path id="path3899" class="st1" d="M1254.8,366.4L1254.8,366.4c1.6-2.8,5.1-3.8,8.1-2.1c3,1.7,3.9,5.2,2.3,8l0,0
	c-0.6,1-1.5,1.8-2.5,2.3l0.2,0.6c0.1,0.3,0.1,0.7-0.1,1c-0.3,0.6-1,0.8-1.6,0.4c-0.3-0.2-0.5-0.4-0.5-0.7l-0.3-0.8
	c-1.1,0.1-2.3-0.2-3.4-0.8C1254,372.6,1253.2,369.1,1254.8,366.4z M1259.2,370.4c0.3-0.6,1-0.8,1.6-0.4c0.3,0.2,0.4,0.4,0.5,0.7
	l0.5,1.6c0.4-0.3,0.8-0.7,1-1.2l0,0c1-1.7,0.5-3.8-1.2-4.7c-1.7-1-3.7-0.3-4.7,1.3l0,0c-1,1.7-0.5,3.8,1.2,4.7
	c0.5,0.3,0.9,0.4,1.4,0.5l-0.5-1.4C1259,371.1,1259,370.7,1259.2,370.4z"/>
<path id="path3901" class="st1" d="M1273.3,363.9c0.3-0.6,1.1-0.8,1.7-0.5l3.4,1.9c1.2,0.7,2,1.6,2.3,2.6c0.2,0.9,0.1,1.8-0.4,2.7
	l0,0c-0.9,1.5-2.2,2-3.6,1.8l0.4,2.7c0.1,0.4,0.1,0.7-0.1,1c-0.3,0.6-1.1,0.7-1.6,0.4c-0.5-0.3-0.7-0.7-0.7-1.2l-0.6-3.8l-1.7-1
	l-1.2,2.1c-0.3,0.6-1.1,0.8-1.7,0.5s-0.8-1.1-0.5-1.7L1273.3,363.9z M1275.5,370c1,0.6,2,0.4,2.4-0.4l0,0c0.5-0.9,0.2-1.8-0.9-2.4
	l-2.1-1.2l-1.6,2.8L1275.5,370z"/>
<path id="path3903" class="st1" d="M1282.9,372.8c-0.1-0.3-0.1-0.7,0.1-1c0.3-0.6,1-0.7,1.6-0.4c0.3,0.2,0.4,0.4,0.5,0.5
	c0.4,1,1,1.8,2,2.3c0.9,0.5,1.6,0.5,1.9-0.1l0,0c0.3-0.5,0.1-1-1.2-2.4c-1.7-1.6-2.6-2.9-1.5-4.8l0,0c1-1.8,3.1-2.1,5.1-1
	c1.2,0.7,2,1.6,2.6,2.6c0.2,0.3,0.2,0.7,0,1.1c-0.3,0.6-1,0.7-1.6,0.4c-0.2-0.1-0.3-0.3-0.5-0.5c-0.5-0.8-1-1.4-1.7-1.8
	c-0.8-0.5-1.5-0.3-1.7,0.1l0,0c-0.4,0.6-0.1,1.1,1.4,2.5c1.7,1.6,2.4,3,1.4,4.7l0,0c-1.1,1.9-3.2,2.2-5.3,1
	C1284.6,375.3,1283.5,374.2,1282.9,372.8z"/>
<path id="path3905" class="st1" d="M1302.3,368.2l-2.1-1.2c-0.5-0.3-0.7-1-0.4-1.6c0.3-0.5,1-0.7,1.6-0.4l6.2,3.6
	c0.5,0.3,0.7,1,0.4,1.6c-0.3,0.5-1,0.7-1.6,0.4l-2.1-1.2l-3.9,6.8c-0.3,0.6-1.1,0.8-1.7,0.5s-0.8-1.1-0.5-1.7L1302.3,368.2z"/>
<path id="path3907" class="st1" d="M1310.9,369.2l2.6-4.6c0.3-0.6,1.1-0.8,1.7-0.5s0.8,1.1,0.5,1.7l-2.6,4.5
	c-0.9,1.6-0.6,2.9,0.7,3.6c1.3,0.8,2.5,0.4,3.4-1.1l2.6-4.6c0.3-0.6,1.1-0.8,1.7-0.5s0.8,1.1,0.5,1.7l-2.6,4.5
	c-1.7,2.9-4.2,3.4-6.8,1.9C1310,374.5,1309.3,372.1,1310.9,369.2z"/>
<path id="path3909" class="st1" d="M1326.3,375l1.2-9.3c0-0.2,0.1-0.4,0.2-0.6c0.3-0.6,1.1-0.8,1.7-0.4c0.6,0.3,0.7,0.8,0.6,1.4
	l-1.2,7.7l6.1-4.9c0.3-0.3,0.9-0.4,1.4-0.1c0.6,0.3,0.8,1.1,0.5,1.6c-0.1,0.2-0.3,0.3-0.4,0.4l-7.6,5.8c-0.5,0.4-1.1,0.5-1.7,0.1
	l-0.1-0.1C1326.4,376.2,1326.2,375.6,1326.3,375z"/>
<path id="path3911" class="st1" d="M1341.7,362.2c0-0.1,0.1-0.3,0.1-0.4c0.3-0.6,1.1-0.8,1.7-0.4c0.5,0.3,0.7,0.8,0.6,1.4l-1.5,7.1
	l5.3-4.8c0.5-0.4,1-0.5,1.6-0.2l0.2,0.1c0.5,0.3,0.7,0.9,0.6,1.5l-1.5,7l5.4-4.8c0.4-0.3,0.9-0.5,1.5-0.2s0.8,1.1,0.5,1.6
	c-0.1,0.1-0.2,0.3-0.3,0.4l-7.1,6.1c-0.5,0.4-1.1,0.5-1.6,0.2l-0.2-0.1c-0.5-0.3-0.7-0.8-0.6-1.5l1.3-6.7l-5.1,4.5
	c-0.5,0.4-1.1,0.5-1.6,0.2l-0.2-0.1c-0.5-0.3-0.7-0.9-0.6-1.5L1341.7,362.2z"/>
<path id="path3913" class="st1" d="M1357.7,370.7l4.5-1.7l-0.7-4.4c0-0.3,0-0.7,0.1-1c0.3-0.6,1.1-0.8,1.7-0.4
	c0.5,0.3,0.6,0.6,0.7,1.1l0.5,4.1l3.7-1.6c0.5-0.2,0.9-0.3,1.4,0s0.8,0.9,0.4,1.5c-0.2,0.3-0.4,0.5-0.8,0.6l-4.2,1.6l0.8,4.7
	c0,0.3,0,0.7-0.1,1c-0.3,0.6-1.1,0.8-1.7,0.4c-0.5-0.3-0.6-0.6-0.7-1.1l-0.6-4.3l-3.9,1.6c-0.5,0.2-0.9,0.3-1.4,0s-0.8-0.9-0.4-1.5
	C1357.1,371,1357.3,370.8,1357.7,370.7z"/>
<path id="path3915" class="st1" d="M1375.6,372.2l-0.7-6.1c0-0.3,0-0.6,0.2-0.9c0.3-0.6,1.1-0.8,1.7-0.4c0.5,0.3,0.6,0.7,0.7,1.3
	l0.4,4.8l4.4-2c0.5-0.2,1-0.3,1.4,0c0.7,0.4,0.8,1.1,0.4,1.6c-0.2,0.3-0.5,0.5-0.7,0.6l-5.6,2.4l-1.6,2.8c-0.3,0.6-1.1,0.8-1.7,0.5
	s-0.8-1.1-0.5-1.7L1375.6,372.2z"/>
<path id="path3917" class="st1" d="M1384.8,371.5L1384.8,371.5c0.2-0.4,0.6-0.7,1-0.8l8.4-2.9l-4.3-2.5c-0.5-0.3-0.7-1-0.4-1.5
	c0.3-0.5,1-0.7,1.5-0.4l6.2,3.6c0.5,0.3,0.7,1,0.4,1.5l0,0c-0.2,0.4-0.5,0.6-1,0.8l-8.4,2.9l4.5,2.6c0.5,0.3,0.7,1,0.4,1.5
	c-0.3,0.5-1,0.7-1.5,0.4l-6.4-3.7C1384.6,372.7,1384.5,372,1384.8,371.5z"/>
<path id="path3919" class="st1" d="M1057.7,409.9L1057.7,409.9c1-1.6,2.6-1.7,4.4-0.7c0.7,0.4,1.2,0.9,1.6,1.4l0.1-0.1
	c0.5-0.9,0.2-1.7-0.8-2.3c-0.6-0.3-1.1-0.5-1.6-0.6c-0.1,0-0.2-0.1-0.3-0.1c-0.5-0.3-0.7-0.9-0.4-1.4c0.2-0.4,0.6-0.6,1-0.5
	c0.8,0.1,1.6,0.4,2.6,1c1.2,0.7,1.8,1.4,2,2.3s0,1.8-0.6,2.8l-2,3.4c-0.3,0.6-1,0.7-1.6,0.4c-0.6-0.4-0.8-1-0.5-1.5l0,0
	c-0.8,0.3-1.8,0.2-2.8-0.4C1057.5,412.9,1056.8,411.4,1057.7,409.9z M1062.8,412.2l0.2-0.4c-0.3-0.4-0.7-0.8-1.2-1.1
	c-0.9-0.5-1.7-0.5-2,0.2l0,0c-0.3,0.6,0,1.2,0.6,1.6C1061.4,413.1,1062.3,413,1062.8,412.2z"/>
<path id="path3921" class="st1" d="M1074.5,403.3c0.3-0.6,1.1-0.8,1.7-0.4c0.6,0.3,0.8,1.1,0.4,1.7l-1.6,2.8c0.9-0.4,1.9-0.5,3,0.1
	c1.7,1,2.6,3.3,1.2,5.8l0,0c-1.4,2.5-3.8,2.9-5.6,1.9c-1.1-0.6-1.5-1.6-1.7-2.4l0,0c-0.3,0.6-1.1,0.8-1.7,0.4
	c-0.6-0.3-0.8-1.1-0.4-1.7L1074.5,403.3z M1077.1,412L1077.1,412c0.7-1.3,0.4-2.6-0.6-3.1c-1-0.6-2.3-0.2-3,1l0,0
	c-0.7,1.2-0.4,2.5,0.6,3.1C1075,413.6,1076.3,413.3,1077.1,412z"/>
<path id="path3923" class="st1" d="M1084.5,408.9L1084.5,408.9c1.2-2.1,3.9-3,6.1-1.6c1.1,0.6,1.7,1.4,2.1,2.3
	c0.1,0.2,0.1,0.6-0.1,0.9c-0.3,0.5-1,0.7-1.5,0.4c-0.3-0.2-0.4-0.4-0.5-0.6c-0.2-0.5-0.5-0.9-1-1.2c-1.1-0.6-2.3-0.1-3,1l0,0
	c-0.7,1.1-0.5,2.5,0.7,3.1c0.6,0.3,1.1,0.4,1.7,0.3c0.2,0,0.4,0,0.7,0.1c0.5,0.3,0.7,0.9,0.4,1.4c-0.2,0.3-0.4,0.4-0.7,0.5
	c-1,0.2-2,0.1-3.2-0.6C1083.9,413.7,1083.3,411,1084.5,408.9z"/>
<path id="path3925" class="st1" d="M1102.8,415c-0.3,0.6-1.1,0.8-1.7,0.4s-0.8-1.1-0.4-1.7l0.1-0.1c-0.9,0.4-1.9,0.5-3-0.1
	c-1.7-1-2.6-3.3-1.2-5.8l0,0c1.4-2.5,3.8-2.9,5.6-1.9c1.1,0.6,1.5,1.6,1.7,2.4l1.6-2.7c0.3-0.6,1.1-0.8,1.7-0.4s0.8,1.1,0.4,1.7
	L1102.8,415z M1098.7,409L1098.7,409c-0.7,1.3-0.4,2.6,0.6,3.1c1,0.6,2.3,0.2,3-1l0,0c0.7-1.2,0.4-2.5-0.6-3.1
	S1099.5,407.7,1098.7,409z"/>
<path id="path3927" class="st1" d="M1111.7,415c-2.2-1.3-3-3.8-1.7-6.1l0,0c1.2-2.1,3.7-3,5.9-1.7c2.5,1.4,2.4,4.1,1.5,5.6
	c-0.4,0.6-1,0.8-1.6,0.4l-4.2-2.4c-0.3,1.1,0,2,1,2.5c0.6,0.3,1.2,0.4,1.8,0.4c0.2,0,0.4,0,0.6,0.1c0.5,0.3,0.6,0.8,0.3,1.3
	c-0.2,0.3-0.4,0.4-0.6,0.5C1113.9,415.8,1112.8,415.6,1111.7,415z M1115.7,411.3c0.4-1,0.2-2-0.7-2.5c-0.9-0.5-1.8-0.2-2.5,0.7
	L1115.7,411.3z"/>
<path id="path3929" class="st1" d="M1124.6,409.2L1124.6,409.2c-0.6-0.3-0.7-0.9-0.5-1.4c0.3-0.5,0.9-0.6,1.4-0.4h0.1l0.3-0.5
	c0.5-0.8,1-1.3,1.6-1.5s1.3,0,2,0.4c0.3,0.2,0.6,0.4,0.8,0.6c0.3,0.3,0.5,0.8,0.2,1.3s-0.9,0.6-1.4,0.4l-0.2-0.1
	c-0.5-0.3-0.9-0.2-1.2,0.4l-0.2,0.3l0.9,0.5c0.5,0.3,0.7,0.9,0.4,1.4c-0.3,0.5-0.9,0.6-1.4,0.4l-0.9-0.5l-2.7,4.7
	c-0.3,0.6-1.1,0.8-1.7,0.4c-0.6-0.3-0.8-1.1-0.4-1.7L1124.6,409.2z"/>
<path id="path3931" class="st1" d="M1130,412.6c-0.3-0.3-0.3-0.8-0.1-1.2c0.3-0.5,0.9-0.6,1.4-0.4c0.1,0.1,0.2,0.2,0.3,0.3
	c0.4,0.6,1,1.2,1.8,1.6c1.4,0.8,2.5,0.5,3.3-0.8l0.2-0.4c-1.1,0.4-2,0.5-3.1-0.2c-1.7-1-2.6-3.2-1.3-5.4l0,0
	c1.3-2.2,3.6-2.5,5.3-1.6c1.2,0.7,1.5,1.5,1.8,2.5l0,0c0.3-0.6,1.1-0.8,1.7-0.4c0.6,0.3,0.8,1.1,0.4,1.7l-2.8,4.8
	c-0.8,1.3-1.6,2.1-2.6,2.4c-1.1,0.3-2.3,0-3.8-0.8C1131.5,414.1,1130.7,413.5,1130,412.6z M1138.2,409.6L1138.2,409.6
	c0.6-1,0.2-2.2-0.8-2.8c-1-0.6-2.2-0.3-2.8,0.7l0,0c-0.6,1-0.2,2.2,0.8,2.8C1136.4,410.8,1137.6,410.6,1138.2,409.6z"/>
<path id="path3933" class="st1" d="M1149.2,402.9c0.3-0.6,1.1-0.8,1.7-0.4c0.6,0.3,0.8,1.1,0.4,1.7l-1.6,2.8
	c0.8-0.3,1.8-0.6,2.9,0.1c1.6,0.9,1.9,2.5,0.9,4.2l-2.2,3.8c-0.3,0.6-1.1,0.8-1.7,0.4c-0.6-0.3-0.8-1.1-0.4-1.7l1.8-3.2
	c0.6-1,0.4-1.8-0.4-2.2c-0.8-0.5-1.6-0.2-2.2,0.8l-1.8,3.2c-0.3,0.6-1.1,0.8-1.7,0.4c-0.6-0.3-0.8-1.1-0.4-1.7L1149.2,402.9z"/>
<path id="path3935" class="st1" d="M1162,405.5c0.4-0.6,1.1-0.7,1.7-0.3c0.7,0.4,1,1.1,0.6,1.7l0,0c-0.4,0.6-1.1,0.7-1.8,0.3
	C1161.9,406.8,1161.6,406.2,1162,405.5L1162,405.5z M1160.5,408.3c0.3-0.6,1.1-0.8,1.7-0.4s0.8,1.1,0.4,1.7l-3.2,5.5
	c-0.3,0.6-1.1,0.8-1.7,0.4s-0.8-1.1-0.4-1.7L1160.5,408.3z"/>
<path id="path3937" class="st1" d="M1163.7,415.2c-0.7-0.4-1-1-0.7-1.5s0.9-0.6,1.3-0.4l0,0c0.3,0.2,0.6,0.1,0.9-0.4l3.6-6.3
	c0.3-0.6,1.1-0.8,1.7-0.4c0.6,0.3,0.8,1.1,0.4,1.7l-3.7,6.3C1166.4,415.8,1165.1,416,1163.7,415.2L1163.7,415.2z M1170.3,403.8
	c0.4-0.6,1.1-0.7,1.7-0.3c0.7,0.4,1,1.1,0.6,1.7l0,0c-0.4,0.6-1.1,0.7-1.8,0.3C1170.3,405.1,1170,404.4,1170.3,403.8L1170.3,403.8z"
	/>
<path id="path3939" class="st1" d="M1178.7,403c0.3-0.6,1.1-0.8,1.7-0.4c0.6,0.3,0.8,1.1,0.4,1.7l-2.7,4.6l4.1-1
	c0.5-0.1,0.8-0.2,1.2,0.1c0.6,0.3,0.7,1,0.4,1.5c-0.2,0.4-0.6,0.5-1,0.6l-2.5,0.5l0.4,3.8c0,0.4,0,0.6-0.1,0.8
	c-0.3,0.6-1,0.7-1.5,0.4c-0.4-0.2-0.6-0.5-0.6-1l-0.4-3.6l-1.3,0.3l-0.7,1.2c-0.3,0.6-1.1,0.8-1.7,0.4c-0.6-0.3-0.8-1.1-0.4-1.7
	L1178.7,403z"/>
<path id="path3941" class="st1" d="M1191.1,405.6c0.3-0.6,1.1-0.8,1.7-0.4c0.6,0.3,0.8,1.1,0.4,1.7l-4.7,8.2
	c-0.3,0.6-1.1,0.8-1.7,0.4c-0.6-0.3-0.8-1.1-0.4-1.7L1191.1,405.6z"/>
<path id="path3943" class="st1" d="M1197.8,403c0.3-0.6,1.1-0.8,1.7-0.4c0.6,0.3,0.8,1.1,0.4,1.7v0.1c0.8-0.3,1.8-0.5,2.9,0.1
	c1,0.6,1.5,1.4,1.4,2.4c1.1-0.4,2.1-0.4,3.1,0.2c1.6,0.9,2,2.4,0.9,4.2l-2.2,3.9c-0.3,0.6-1.1,0.8-1.7,0.4c-0.6-0.3-0.8-1.1-0.4-1.7
	l1.8-3.2c0.6-1,0.4-1.8-0.4-2.2s-1.6-0.2-2.1,0.8l-1.8,3.2c-0.3,0.6-1.1,0.8-1.7,0.4c-0.6-0.3-0.8-1.1-0.4-1.7l1.8-3.2
	c0.6-1,0.4-1.8-0.4-2.2s-1.6-0.2-2.1,0.8l-1.8,3.2c-0.3,0.6-1.1,0.8-1.7,0.4c-0.6-0.3-0.8-1.1-0.4-1.7L1197.8,403z"/>
<path id="path3945" class="st1" d="M1215.1,405.6c0.3-0.6,1.1-0.8,1.7-0.4c0.6,0.3,0.8,1.1,0.4,1.7v0.1c0.8-0.3,1.8-0.6,2.9,0.1
	c1.6,0.9,1.9,2.5,0.9,4.2l-2.2,3.8c-0.3,0.6-1.1,0.8-1.7,0.4c-0.6-0.3-0.8-1.1-0.4-1.7l1.8-3.2c0.6-1,0.4-1.8-0.4-2.2
	c-0.8-0.5-1.6-0.2-2.2,0.8l-1.8,3.2c-0.3,0.6-1.1,0.8-1.7,0.4c-0.6-0.3-0.8-1.1-0.4-1.7L1215.1,405.6z"/>
<path id="path3947" class="st1" d="M1225.9,408.8L1225.9,408.8c1.2-2.2,4-2.9,6.3-1.6s3,4,1.8,6.2l0,0c-1.2,2.1-4,2.9-6.3,1.5
	C1225.4,413.7,1224.7,411,1225.9,408.8z M1231.9,412.3L1231.9,412.3c0.6-1.1,0.4-2.5-0.8-3.2c-1.2-0.7-2.5-0.2-3.1,0.9l0,0
	c-0.6,1.1-0.4,2.5,0.8,3.2C1230,413.9,1231.2,413.4,1231.9,412.3z"/>
<path id="path3949" class="st1" d="M1241.2,406c0.3-0.6,1.1-0.8,1.7-0.4c0.6,0.3,0.8,1.1,0.4,1.7l-0.1,0.1c0.9-0.4,1.9-0.5,3,0.1
	c1.7,1,2.6,3.3,1.2,5.8l0,0c-1.4,2.5-3.8,2.9-5.6,1.9c-1.1-0.6-1.5-1.6-1.7-2.4l-1.3,2.2c-0.3,0.6-1.1,0.8-1.7,0.4
	c-0.6-0.3-0.8-1.1-0.4-1.7L1241.2,406z M1245.3,412L1245.3,412c0.7-1.3,0.4-2.6-0.6-3.1c-1-0.6-2.3-0.2-3,1l0,0
	c-0.7,1.2-0.4,2.5,0.6,3.1S1244.6,413.3,1245.3,412z"/>
<path id="path3951" class="st1" d="M1257.8,415c-0.3,0.6-1.1,0.8-1.7,0.4c-0.6-0.3-0.8-1.1-0.4-1.7l1.3-2.3c-0.9,0.4-1.9,0.5-3-0.1
	c-1.7-1-2.6-3.3-1.2-5.8l0,0c1.4-2.5,3.8-2.9,5.6-1.9c1.1,0.6,1.5,1.6,1.7,2.4l0,0c0.3-0.6,1.1-0.8,1.7-0.4c0.6,0.3,0.8,1.1,0.4,1.7
	L1257.8,415z M1254.9,406.8L1254.9,406.8c-0.7,1.3-0.4,2.6,0.6,3.1c1,0.6,2.3,0.2,3-1l0,0c0.7-1.2,0.4-2.5-0.6-3.1
	C1257,405.2,1255.7,405.5,1254.9,406.8z"/>
<path id="path3953" class="st1" d="M1268.3,408.3c0.3-0.6,1.1-0.8,1.7-0.4c0.6,0.3,0.8,1.1,0.4,1.7l-0.2,0.3
	c0.7-0.5,1.6-0.9,2.2-0.6c0.7,0.4,0.8,1,0.4,1.6c-0.3,0.6-0.9,0.7-1.4,0.5c-1.2-0.4-2.3,0.1-3.1,1.6l-1.1,2
	c-0.3,0.6-1.1,0.8-1.7,0.4c-0.6-0.3-0.8-1.1-0.4-1.7L1268.3,408.3z"/>
<path id="path3955" class="st1" d="M1274.7,412.6c-0.1-0.3-0.2-0.6,0-1c0.3-0.5,0.8-0.6,1.3-0.4c0.2,0.1,0.3,0.2,0.4,0.4
	c0.5,0.9,1,1.5,1.6,1.8c0.6,0.4,1,0.3,1.2,0l0,0c0.3-0.5-0.4-1-1-1.7c-0.9-0.9-1.8-2.1-0.9-3.5l0,0c0.9-1.5,2.6-1.7,4.1-0.8
	c0.8,0.4,1.5,1.1,2,1.9c0.2,0.3,0.3,0.7,0,1.1c-0.3,0.5-0.9,0.6-1.3,0.3c-0.2-0.1-0.2-0.2-0.3-0.3c-0.4-0.6-0.9-1.1-1.3-1.4
	c-0.5-0.3-0.9-0.2-1.1,0.1l0,0c-0.2,0.4,0.4,1,1,1.8c0.8,0.9,1.8,2.1,1,3.5l0,0c-1,1.7-2.6,1.7-4.2,0.8
	C1276.1,414.5,1275.3,413.7,1274.7,412.6z"/>
<path id="path3957" class="st1" d="M1287.2,411.7l2-3.5h-0.1c-0.5-0.3-0.7-0.9-0.4-1.4c0.3-0.5,0.9-0.7,1.4-0.4h0.1l0.5-0.9
	c0.3-0.6,1.1-0.8,1.7-0.4c0.6,0.3,0.8,1.1,0.4,1.7l-0.5,0.9l0.9,0.5c0.5,0.3,0.7,0.9,0.4,1.4c-0.3,0.5-0.9,0.7-1.4,0.4l-0.9-0.5
	l-1.8,3.2c-0.3,0.5-0.2,0.8,0.3,1.1c0.1,0,0.2,0.1,0.3,0.1c0.5,0.3,0.6,0.9,0.4,1.4c-0.2,0.4-0.6,0.5-1,0.5
	c-0.5-0.1-0.9-0.2-1.3-0.5C1286.7,414.4,1286.2,413.4,1287.2,411.7z"/>
<path id="path3959" class="st1" d="M1302.8,415c-0.3,0.6-1.1,0.8-1.7,0.4c-0.6-0.3-0.8-1.1-0.4-1.7v-0.1c-0.8,0.3-1.8,0.6-2.9-0.1
	c-1.6-0.9-1.9-2.5-0.9-4.2l2.2-3.8c0.3-0.6,1.1-0.8,1.7-0.4c0.6,0.3,0.8,1.1,0.4,1.7l-1.8,3.2c-0.6,1-0.4,1.8,0.4,2.2
	c0.8,0.5,1.6,0.2,2.2-0.8l1.8-3.2c0.3-0.6,1.1-0.8,1.7-0.4c0.6,0.3,0.8,1.1,0.4,1.7L1302.8,415z"/>
<path id="path3961" class="st1" d="M1311.4,415.5l-0.1-0.1c-0.6-0.3-0.7-0.9-0.7-1.6l0.8-6.6c0-0.2,0.1-0.4,0.2-0.6
	c0.3-0.5,1-0.7,1.6-0.4c0.6,0.3,0.7,0.8,0.6,1.3l-0.9,5.2l4.1-3.4c0.3-0.3,0.8-0.5,1.4-0.2s0.8,1,0.4,1.6c-0.1,0.2-0.3,0.4-0.4,0.4
	l-5.3,3.9C1312.6,415.6,1312,415.8,1311.4,415.5z"/>
<path id="path3963" class="st1" d="M1322.4,411.1l1.2-6.3c0-0.1,0.1-0.4,0.2-0.6c0.3-0.5,0.9-0.7,1.6-0.4c0.5,0.3,0.7,0.8,0.6,1.4
	l-1,4.4l3.3-3.1c0.4-0.4,1-0.5,1.6-0.2l0.1,0.1c0.5,0.3,0.7,0.9,0.6,1.5l-1,4.5l3.4-3.1c0.4-0.4,0.9-0.5,1.5-0.2s0.7,1,0.4,1.5
	c-0.1,0.1-0.2,0.3-0.3,0.4l-4.9,4.2c-0.6,0.5-1.2,0.6-1.7,0.3h-0.1c-0.5-0.3-0.8-0.8-0.6-1.6l1-4.4l-3.4,3.1
	c-0.5,0.5-1.1,0.5-1.7,0.2h-0.1C1322.5,412.4,1322.3,411.9,1322.4,411.1z"/>
<path id="path3965" class="st1" d="M1337.3,410.6l3.2-1.1l-0.6-3c-0.1-0.4,0-0.7,0.1-1c0.3-0.6,1-0.7,1.5-0.4
	c0.4,0.2,0.6,0.6,0.7,1.1l0.3,2.6l2.5-1c0.4-0.2,0.9-0.2,1.2,0c0.6,0.3,0.8,1,0.5,1.5c-0.2,0.3-0.4,0.4-0.7,0.6l-3,1.1l0.6,3.2
	c0.1,0.4,0,0.7-0.1,1c-0.3,0.6-1,0.7-1.5,0.4c-0.4-0.2-0.6-0.6-0.7-1.1l-0.4-2.8l-2.6,1.1c-0.4,0.2-0.9,0.2-1.2,0
	c-0.6-0.3-0.8-1-0.5-1.5C1336.8,410.9,1337,410.7,1337.3,410.6z"/>
<path id="path3967" class="st1" d="M1347.8,414.4c-0.2-0.3-0.5-0.7-0.2-1.3c0.3-0.5,0.9-0.6,1.3-0.4c0.2,0.1,0.2,0.2,0.3,0.3
	c0.1,0.2,0.2,0.3,0.4,0.3c0.4,0.2,0.6,0.3,1,0l0.2-0.1l0.9-7.3c0-0.2,0.1-0.4,0.2-0.5c0.3-0.6,1-0.7,1.6-0.4
	c0.5,0.3,0.7,0.8,0.6,1.4l-0.9,5.3l4-3.4c0.4-0.3,0.9-0.5,1.5-0.2c0.5,0.3,0.8,1,0.4,1.5c-0.1,0.2-0.3,0.4-0.4,0.4l-6.2,4.7
	c-1.5,1.2-2.4,1.4-3.7,0.6C1348.4,415,1348.1,414.7,1347.8,414.4z"/>
<path id="path3969" class="st1" d="M1361.1,411.3L1361.1,411.3c0.3-0.4,0.5-0.6,1.1-0.8l5.7-1.8l-2.9-1.7c-0.5-0.3-0.6-0.9-0.4-1.3
	s0.9-0.6,1.4-0.4l4.6,2.7c0.6,0.3,0.8,0.9,0.5,1.4l0,0c-0.2,0.4-0.5,0.6-1.1,0.8l-5.7,1.8l3.1,1.8c0.5,0.3,0.6,0.9,0.4,1.4
	c-0.3,0.5-0.9,0.6-1.3,0.3l-4.7-2.7C1361,412.4,1360.8,411.8,1361.1,411.3z"/>
<path id="path3971" class="st1" d="M1157.6,264.2l-0.6,0.6c-0.1,0.1-0.2,0.2-0.3,0.3c-0.5,0.3-1.2,0.1-1.5-0.4
	c-0.2-0.4-0.2-1,0.2-1.3l1.1-1.2c0.3-0.3,0.6-0.6,0.9-0.8l0,0c0.6-0.3,1.3-0.1,1.7,0.4l4.5,7.8c0.3,0.6,0.1,1.3-0.4,1.7
	c-0.6,0.3-1.3,0.1-1.7-0.4L1157.6,264.2z"/>
<path id="path3973" class="st1" d="M1169.3,269.6l1.5-3.9c0.6-1.7,0.8-2.5,0.3-3.3s-1.3-0.9-2-0.5c-0.6,0.4-0.9,0.9-1.1,1.8
	c-0.1,0.2-0.2,0.5-0.5,0.7c-0.5,0.3-1.2,0.1-1.5-0.4c-0.1-0.2-0.2-0.5-0.1-0.8c0.3-1.3,0.9-2.4,2.3-3.3c2-1.2,4-0.8,5.1,1.1l0,0
	c0.9,1.6,0.6,2.9-0.4,5.2l-0.9,2.1l3.4-2c0.5-0.3,1.2-0.1,1.5,0.4s0.1,1.2-0.4,1.5l-5.3,3c-0.7,0.4-1.4,0.3-1.7-0.3
	C1169.2,270.5,1169.1,270.1,1169.3,269.6z"/>
<path id="path3975" class="st1" d="M1182.7,271.4c-0.3-0.1-0.6-0.2-0.8-0.6c-0.3-0.6-0.1-1.3,0.4-1.6c0.3-0.2,0.6-0.2,0.8-0.1
	c0.8,0.2,1.6,0.1,2.3-0.4c0.8-0.5,1.1-1.2,0.7-2l0,0c-0.5-0.8-1.4-0.8-2.6-0.1l-0.3,0.2c-0.5,0.3-1.2,0.1-1.4-0.4
	c-0.2-0.3-0.2-0.6,0-1.1l0.8-3l-3,1.7c-0.5,0.3-1.2,0.1-1.4-0.4c-0.3-0.5-0.1-1.2,0.4-1.4l4.7-2.7c0.6-0.4,1.3-0.3,1.6,0.3
	c0.3,0.5,0.2,1,0.1,1.6l-0.9,2.9c1.4-0.5,3.1-0.6,4.2,1.2l0,0c1.1,1.8,0.5,3.9-1.7,5.2C1185.1,271.5,1183.8,271.7,1182.7,271.4z"/>
<path id="path3977" class="st1" d="M1196.6,269l-4,2.3c-0.6,0.3-1.3,0.2-1.6-0.4c-0.3-0.4-0.3-0.9-0.2-1.5l1.4-7.3
	c0.1-0.7,0.3-1.1,0.9-1.5c0.6-0.3,1.3-0.1,1.6,0.4l2.9,5l0.5-0.3c0.5-0.3,1.1-0.1,1.4,0.4s0.1,1.1-0.4,1.4l-0.5,0.3l0.7,1.2
	c0.3,0.6,0.1,1.3-0.4,1.6c-0.6,0.3-1.3,0.1-1.6-0.4L1196.6,269z M1195.6,267.3l-1.7-3l-0.8,4.5L1195.6,267.3z"/>
<path id="path3979" class="st1" d="M1206.6,271.5c-0.4,0-0.7-0.2-0.9-0.6c-0.3-0.6-0.1-1.3,0.4-1.6c0.2-0.1,0.5-0.2,0.7-0.1
	c0.8,0.1,1.5,0,2.2-0.4c0.9-0.5,1.3-1.4,0.8-2.2l0,0c-0.5-0.8-1.5-0.9-2.5-0.3c-0.8,0.5-1,0.9-1.3,1.1s-0.6,0.2-1.2,0.1
	c-0.4,0-0.7-0.3-0.9-0.6l-1.7-3.4c-0.3-0.5-0.1-1.2,0.4-1.5l4.2-2.4c0.5-0.3,1.2-0.1,1.5,0.4s0.1,1.2-0.4,1.5l-3.3,1.9l0.9,1.7
	c0.3-0.3,0.6-0.6,1.2-0.9c1.9-1.1,3.9-1,5.2,1.1l0,0c1.2,2.1,0.5,4.2-1.7,5.4C1208.8,271.4,1207.7,271.6,1206.6,271.5z"/>
<path id="path3981" class="st1" d="M1218.5,271.4c-1.1-0.3-2.2-1.1-3.3-3l0,0c-1.7-3-1.7-6.1,1.2-7.8c1-0.6,1.9-0.8,2.7-0.8
	c0.4,0,0.8,0.2,1.1,0.6c0.3,0.6,0.1,1.2-0.4,1.6c-0.2,0.1-0.4,0.1-0.6,0.2c-0.6,0-1.1,0.1-1.7,0.4c-1.2,0.7-1.3,2-0.7,3.4
	c0.3-0.6,0.7-1.2,1.7-1.8c1.9-1.1,4-0.9,5.2,1.1l0,0c1.1,2,0.3,4.3-1.8,5.5C1220.7,271.5,1219.6,271.7,1218.5,271.4z M1221.6,266.6
	L1221.6,266.6c-0.5-0.8-1.5-1.1-2.5-0.5c-1.1,0.6-1.3,1.5-0.9,2.4l0,0c0.5,0.8,1.5,1.1,2.5,0.5
	C1221.8,268.4,1222.1,267.5,1221.6,266.6z"/>
<path id="path3983" class="st1" d="M1232.6,270.2v-8.4l-3.7,2.1c-0.5,0.3-1.2,0.1-1.5-0.4s-0.1-1.2,0.4-1.5l5.3-3
	c0.6-0.3,1.2-0.2,1.5,0.4c0.2,0.3,0.3,0.8,0.3,1.2l0.2,9.3c0,0.7-0.2,1.1-0.6,1.3c-0.6,0.3-1.3,0.3-1.6-0.3
	C1232.6,270.8,1232.6,270.5,1232.6,270.2z"/>
<path id="path3985" class="st1" d="M1240.4,270.1L1240.4,270.1c-0.7-1.2-0.6-2.2,0.2-3.3c-1,0-1.9-0.4-2.5-1.4l0,0
	c-0.9-1.5-0.2-3.4,1.9-4.6s4.1-0.8,4.9,0.7l0,0c0.6,1,0.5,1.9,0,2.8c1.3-0.1,2.2,0.2,2.9,1.4l0,0c1,1.8,0.1,3.8-2.1,5
	C1243.6,272,1241.4,271.8,1240.4,270.1z M1245.8,266.8L1245.8,266.8c-0.4-0.8-1.4-0.8-2.4-0.3c-1,0.6-1.4,1.4-1,2.2l0,0
	c0.4,0.7,1.3,0.8,2.4,0.2C1245.8,268.4,1246.2,267.5,1245.8,266.8z M1243.1,262.9L1243.1,262.9c-0.4-0.6-1.2-0.9-2.1-0.4
	s-1.1,1.3-0.7,1.9l0,0c0.4,0.7,1.2,0.9,2.1,0.4C1243.2,264.4,1243.5,263.5,1243.1,262.9z"/>
<path id="path3987" class="st1" d="M1254.8,271.5c-0.4,0-0.8-0.2-1-0.6c-0.3-0.6-0.1-1.2,0.5-1.6c0.2-0.1,0.4-0.2,0.7-0.2
	c0.7,0,1.2-0.1,1.8-0.5c1.2-0.7,1.3-2,0.7-3.3c-0.2,0.7-0.7,1.3-1.6,1.8c-2.1,1.2-4.1,0.8-5.3-1.1l0,0c-1.1-2-0.4-4.3,1.7-5.5
	c1.3-0.8,2.3-0.9,3.4-0.6s2.2,1.1,3.3,3l0,0c1.8,3.1,1.6,6.2-1.2,7.7C1256.6,271.4,1255.7,271.5,1254.8,271.5z M1255.9,262.8
	L1255.9,262.8c-0.5-0.9-1.5-1.1-2.6-0.5s-1.3,1.6-0.8,2.4l0,0c0.5,0.9,1.5,1.1,2.5,0.5C1256.1,264.6,1256.4,263.7,1255.9,262.8z"/>
<path id="path3989" class="st1" d="M1262.7,268.4L1262.7,268.4c-1.6-2.8-1.2-6.1,1.4-7.5c2.6-1.5,5.6-0.3,7.2,2.5l0,0
	c1.6,2.8,1.2,6-1.4,7.5C1267.2,272.4,1264.3,271.2,1262.7,268.4z M1269.1,264.7L1269.1,264.7c-1-1.8-2.7-2.6-3.9-1.9
	c-1.3,0.7-1.4,2.5-0.3,4.3l0,0c1,1.8,2.6,2.6,3.9,1.9C1270,268.2,1270.1,266.4,1269.1,264.7z"/>
<g id="g3993" inkscape:export-xdpi="90" inkscape:export-ydpi="90">
	<path id="path3999" class="st2" d="M781.8,87.3l-75.9-43.8l0,0c-0.1-0.1-0.2-0.1-0.3-0.1l0,0l0,0h-0.1h-0.1c-0.1,0-0.2,0-0.3,0
		c0,0,0,0-0.1,0h-0.1c-0.1,0-0.3,0-0.4,0l0,0l0,0l0,0c-0.1,0-0.2,0.1-0.3,0.1l0,0l-74.7,43.1c-0.9,0.5-1.2,1.6-0.7,2.5
		s1.7,1.2,2.5,0.7l66.4-38.3l-28.2,36c-0.6,0.8-0.5,2,0.3,2.6s2,0.5,2.6-0.3l30.8-39.3v38.4c0,1,0.8,1.9,1.9,1.9s1.9-0.8,1.9-1.9
		V50.5l30.8,39.3c0.4,0.5,0.9,0.7,1.5,0.7c0.4,0,0.8-0.1,1.1-0.4c0.8-0.6,0.9-1.8,0.3-2.6l-28.2-36l67.6,39c0.3,0.2,0.6,0.2,0.9,0.2
		c0.6,0,1.3-0.3,1.6-0.9C783,89,782.7,87.8,781.8,87.3z"/>
	<path id="path4001" class="st2" d="M781.3,370.2c-0.5-0.9-1.7-1.2-2.5-0.7l-66.3,38.3l28.2-36c0.6-0.8,0.5-2-0.3-2.6
		s-2-0.5-2.6,0.3L707,408.8v-38.4c0-1-0.8-1.9-1.9-1.9s-1.9,0.8-1.9,1.9v38.4l-30.8-39.3c-0.6-0.8-1.8-0.9-2.6-0.3s-0.9,1.8-0.3,2.6
		l28.2,36l-67.6-39c-0.9-0.5-2-0.2-2.5,0.7c-0.5,0.9-0.2,2,0.7,2.5l75.9,43.8c0,0,0,0,0.1,0s0.1,0.1,0.2,0.1c0,0,0,0,0.1,0
		c0,0,0,0,0.1,0h0.1c0.1,0,0.3,0.1,0.4,0.1l0,0l0,0l0,0l0,0c0.2,0,0.3,0,0.4-0.1h0.1h0.1c0.1,0,0.1-0.1,0.2-0.1c0,0,0,0,0.1,0
		l74.7-43.1C781.5,372.3,781.8,371.1,781.3,370.2z"/>
	<path id="path4013" inkscape:connector-curvature="0" sodipodi:nodetypes="ccccssccsccssccccccc" class="st2" d="M894,117.5
		L708.4,10.4c-2.1-1.2-4.7-1.2-6.8,0L516,117.5c-2.1,1.2-3.4,3.5-3.4,5.9v214.3c0,2.4,1.3,4.7,3.4,5.9l185.6,107.1
		c1.1,0.6,2.2,0.9,3.4,0.9s2.4-0.3,3.4-0.9L894,343.6c2.1-1.2,3.4-3.5,3.4-5.9V123.4C897.4,121,896.1,118.7,894,117.5z M883.9,333.8
		L705,437L526.3,333.8L526,127.3L705,24.1l178.8,103.2"/>
	<path id="path4015" inkscape:connector-curvature="0" class="st2" d="M638.1,119.6c0.8,0,1.4-0.6,1.4-1.4v-7.1l5.8,7.6
		c0.4,0.5,0.8,0.9,1.5,0.9h0.1c0.8,0,1.5-0.6,1.5-1.5v-10.5c0-0.8-0.6-1.4-1.4-1.4c-0.8,0-1.4,0.6-1.4,1.4v6.8L640,107
		c-0.4-0.5-0.8-0.9-1.5-0.9h-0.3c-0.8,0-1.5,0.6-1.5,1.5v10.5C636.7,119,637.3,119.6,638.1,119.6z"/>
	<path id="path4017" inkscape:connector-curvature="0" class="st2" d="M658,119.7c4.1,0,7.1-3.1,7.1-6.8l0,0c0-3.8-2.9-6.8-7-6.8
		s-7.1,3.1-7.1,6.8l0,0C651,116.7,653.9,119.7,658,119.7z M654.1,112.9c0-2.3,1.6-4.1,4-4.1c2.3,0,4,1.9,4,4.2l0,0
		c0,2.3-1.6,4.1-4,4.1C655.7,117,654.1,115.2,654.1,112.9L654.1,112.9z"/>
	<path id="path4019" inkscape:connector-curvature="0" class="st2" d="M669.1,119.5h3.7c4.2,0,7-2.9,7-6.6l0,0c0-3.7-2.9-6.6-7-6.6
		h-3.7c-0.8,0-1.5,0.6-1.5,1.5V118C667.7,118.9,668.3,119.5,669.1,119.5z M670.6,108.9h2.2c2.4,0,4,1.6,4,4l0,0c0,2.3-1.6,4-4,4
		h-2.2V108.9z"/>
	<path id="path4021" inkscape:connector-curvature="0" class="st2" d="M683.9,119.5h7.4c0.7,0,1.3-0.6,1.3-1.3
		c0-0.7-0.6-1.3-1.3-1.3h-6v-2.8h5c0.7,0,1.3-0.6,1.3-1.3c0-0.7-0.6-1.3-1.3-1.3h-5v-2.7h5.9c0.7,0,1.3-0.6,1.3-1.3
		c0-0.7-0.6-1.3-1.3-1.3h-7.3c-0.8,0-1.5,0.6-1.5,1.5V118C682.5,118.9,683.1,119.5,683.9,119.5L683.9,119.5z"/>
	<path id="path4023" inkscape:connector-curvature="0" class="st2" d="M694.9,118.1c1.5,1.1,3.2,1.6,5,1.6c2.9,0,4.9-1.5,4.9-4.1
		l0,0c0-2.3-1.5-3.3-4.2-4c-2.3-0.6-2.9-0.9-2.9-1.7l0,0c0-0.6,0.6-1.2,1.7-1.2c0.9,0,1.8,0.3,2.8,0.9c0.2,0.1,0.5,0.2,0.7,0.2
		c0.8,0,1.4-0.6,1.4-1.3c0-0.6-0.3-1-0.6-1.2c-1.2-0.8-2.6-1.2-4.2-1.2c-2.7,0-4.6,1.6-4.6,4l0,0c0,2.6,1.7,3.4,4.4,4
		c2.2,0.6,2.7,0.9,2.7,1.7l0,0c0,0.8-0.7,1.2-1.9,1.2c-1.3,0-2.4-0.5-3.4-1.2c-0.2-0.1-0.5-0.3-0.8-0.3c-0.8,0-1.4,0.6-1.4,1.3
		C694.3,117.5,694.6,117.9,694.9,118.1L694.9,118.1z"/>
	<path id="path4025" inkscape:connector-curvature="0" class="st2" d="M713.4,119.7c2.1,0,3.5-0.6,4.7-1.7c0.3-0.2,0.5-0.6,0.5-1
		c0-0.7-0.6-1.3-1.4-1.3c-0.3,0-0.6,0.1-0.9,0.3c-0.8,0.7-1.6,1-2.9,1c-2.3,0-3.8-1.9-3.8-4.2l0,0c0-2.3,1.6-4.1,3.8-4.1
		c1,0,1.9,0.3,2.7,0.9c0.2,0.1,0.5,0.3,0.9,0.3c0.8,0,1.4-0.6,1.4-1.4c0-0.5-0.3-0.9-0.6-1.2c-1.1-0.8-2.4-1.3-4.4-1.3
		c-4.1,0-6.9,3.1-6.9,6.8l0,0C706.7,116.7,709.6,119.7,713.4,119.7L713.4,119.7z"/>
	<path id="path4027" inkscape:connector-curvature="0" class="st2" d="M722.7,119.6c0.8,0,1.5-0.6,1.5-1.5v-4h5.4v4
		c0,0.8,0.6,1.5,1.5,1.5c0.8,0,1.5-0.6,1.5-1.5v-10.5c0-0.8-0.6-1.5-1.5-1.5c-0.8,0-1.5,0.6-1.5,1.5v3.9h-5.4v-3.9
		c0-0.8-0.6-1.5-1.5-1.5c-0.8,0-1.5,0.6-1.5,1.5v10.5C721.2,119,721.8,119.6,722.7,119.6z"/>
	<path id="path4029" inkscape:connector-curvature="0" class="st2" d="M742,119.7c4.1,0,7-3.1,7-6.8l0,0c0-3.8-2.9-6.8-7-6.8
		s-7.1,3.1-7.1,6.8l0,0C735,116.7,737.9,119.7,742,119.7z M738,112.9c0-2.3,1.6-4.1,4-4.1c2.3,0,4,1.9,4,4.2l0,0
		c0,2.3-1.6,4.1-4,4.1C739.7,117,738,115.2,738,112.9L738,112.9z"/>
	<path id="path4031" inkscape:connector-curvature="0" class="st2" d="M758.1,119.7c4.1,0,7.1-3.1,7.1-6.8l0,0c0-3.8-2.9-6.8-7-6.8
		s-7.1,3.1-7.1,6.8l0,0C751.1,116.7,754,119.7,758.1,119.7z M754.1,112.9c0-2.3,1.6-4.1,4-4.1c2.3,0,4,1.9,4,4.2l0,0
		c0,2.3-1.6,4.1-4,4.1C755.8,117,754.1,115.2,754.1,112.9L754.1,112.9z"/>
	<path id="path4033" inkscape:connector-curvature="0" class="st2" d="M769.2,119.5h6.8c0.7,0,1.3-0.6,1.3-1.3
		c0-0.7-0.6-1.3-1.3-1.3h-5.4v-9.2c0-0.8-0.6-1.5-1.5-1.5c-0.8,0-1.5,0.6-1.5,1.5V118C767.7,118.9,768.4,119.5,769.2,119.5
		L769.2,119.5z"/>
</g>
<text id="text4035" transform="matrix(1 0 0 1 1185.6284 160.599)" class="st3 st4 st5">Left 30</text>
<text id="text4037" transform="matrix(1 0 0 1 1174.2467 328.599)" class="st3 st4 st5">Right -30</text>
<path id="path3643-0" inkscape:connector-curvature="0" class="st2" d="M660.1,360.8c-0.4-0.5-0.3-1.3,0.2-1.8l2.6-2.1
	c2.1-1.6,4.3-1.5,5.8,0.3l0,0c1.6,2,0.9,4.3-1.1,5.9l-1.4,1.1l1.4,1.7c0.4,0.5,0.3,1.3-0.2,1.8c-0.5,0.5-1.3,0.3-1.8-0.2
	L660.1,360.8L660.1,360.8z M666.3,361.4c1-0.8,1-1.8,0.4-2.5l0,0c-0.7-0.9-1.7-0.9-2.6-0.1l-1.5,1.2l2.1,2.7L666.3,361.4
	L666.3,361.4z"/>
<path id="path3755-9" inkscape:connector-curvature="0" class="st2" d="M700.5,353.2c0-0.7,0.5-1.2,1.2-1.2s1.2,0.5,1.2,1.2v3.3h4.5
	v-3.3c0-0.7,0.5-1.2,1.2-1.2s1.2,0.5,1.2,1.2v8.9c0,0.7-0.5,1.2-1.2,1.2s-1.2-0.5-1.2-1.2v-3.4h-4.5v3.4c0,0.7-0.5,1.2-1.2,1.2
	s-1.2-0.5-1.2-1.2V353.2z"/>
<path id="path3889-8" inkscape:connector-curvature="0" class="st2" d="M746,355.7c0.4-0.6,1.2-0.6,1.8-0.3c0.6,0.4,0.6,1.2,0.3,1.8
	l-4.8,6.2l3.6,2.8c0.5,0.4,0.6,1.1,0.2,1.5c-0.4,0.5-1.1,0.6-1.5,0.2l-4.6-3.6c-0.6-0.4-0.6-1.2-0.3-1.8L746,355.7L746,355.7z"/>
<path id="rect3639" class="st6" d="M210.3,113.9h79.1c2.4,0,4.3,1.9,4.3,4.3V319c0,2.4-1.9,4.3-4.3,4.3h-79.1
	c-2.4,0-4.3-1.9-4.3-4.3V118.2C205.9,115.8,207.9,113.9,210.3,113.9z"/>
<path id="rect3655" class="st6" d="M329.4,124.1h172c2.4,0,4.3,1.9,4.3,4.3v202.3c0,2.4-1.9,4.3-4.3,4.3h-172
	c-2.4,0-4.3-1.9-4.3-4.3V128.4C325,126,327,124.1,329.4,124.1z"/>
<path id="rect3658" class="st6" d="M329.4,124.1h171.4c2.4,0,4.3,1.9,4.3,4.3v202.3c0,2.4-1.9,4.3-4.3,4.3H329.4
	c-2.4,0-4.3-1.9-4.3-4.3V128.4C325,126,327,124.1,329.4,124.1z"/>
<path id="rect3726" class="st6" d="M212.4,114.8h75.1c2.4,0,4.3,1.9,4.3,4.3v94.9c0,2.4-1.9,4.3-4.3,4.3h-75.1
	c-2.4,0-4.3-1.9-4.3-4.3v-94.9C208.1,116.8,210,114.8,212.4,114.8z"/>
<path id="rect3728" class="st6" d="M228,107.3h64.3c2.4,0,4.3,1.9,4.3,4.3v205.2c0,2.4-1.9,4.3-4.3,4.3H228c-2.4,0-4.3-1.9-4.3-4.3
	V111.6C223.7,109.2,225.6,107.3,228,107.3z"/>
<path id="rect3749" class="st6" d="M195.1,239.5h49.7c2.4,0,4.3,1.9,4.3,4.3v70.1c0,2.4-1.9,4.3-4.3,4.3h-49.7
	c-2.4,0-4.3-1.9-4.3-4.3v-70.1C190.8,241.4,192.7,239.5,195.1,239.5z"/>
<path id="rect3751" class="st6" d="M191.8,173.3h53.8c2.4,0,4.3,1.9,4.3,4.3v139.6c0,2.4-1.9,4.3-4.3,4.3h-53.8
	c-2.4,0-4.3-1.9-4.3-4.3V177.6C187.4,175.2,189.4,173.3,191.8,173.3z"/>
<path id="rect3769" class="st6" d="M285.3,258.1H341c2.4,0,4.3,1.9,4.3,4.3v54c0,2.4-1.9,4.3-4.3,4.3h-55.7c-2.4,0-4.3-1.9-4.3-4.3
	v-54C280.9,260.1,282.9,258.1,285.3,258.1z"/>
<path id="rect3795" class="st6" d="M345,193.2h57.1c2.4,0,4.3,1.9,4.3,4.3v78.7c0,2.4-1.9,4.3-4.3,4.3H345c-2.4,0-4.3-1.9-4.3-4.3
	v-78.7C340.7,195.1,342.6,193.2,345,193.2z"/>
<path id="rect3812" class="st6" d="M260.9,178.6h71c2.4,0,4.3,1.9,4.3,4.3v99c0,2.4-1.9,4.3-4.3,4.3h-71c-2.4,0-4.3-1.9-4.3-4.3v-99
	C256.6,180.6,258.5,178.6,260.9,178.6z"/>
<path id="path3344" inkscape:connector-curvature="0" sodipodi:nodetypes="sssscssscsssssssscsssssssssscsscsssscsssssscsssssssssssssscsscscccssss" class="st7" d="
	M811.1,230.2c-0.5-0.1-0.8-0.5-0.6-0.8c0.2-0.3-0.1-0.9-0.6-1.4c-1.9-2,0.3-5.5,2.8-4.4c1.2,0.5,2.3,3.7,1.4,3.9
	c-0.3,0.1-0.9,0.8-1.3,1.5C812.3,230,811.7,230.4,811.1,230.2L811.1,230.2z M817.5,219.7c-2.1,0.2-4.2,0.2-4.7,0.1s-1.2-1.2-1.6-2.5
	c-0.8-2-0.7-2.3,0.4-2.3c4.5-0.1,10.8-1.3,15.3-2.8c5.3-1.9,5.8-1.8,6.5,0.6C834,215.2,825.1,219.1,817.5,219.7L817.5,219.7z
	 M801.5,219.9c-6.1-0.6-10.5-1.6-14.1-3.4c-3.7-1.8-4.2-2.6-3.3-4.7l0.8-1.8l3.3,1.5c3.4,1.5,10.1,3,15.5,3.4
	c4.2,0.3,4.9,0.7,5.2,2.8C809.2,220.1,808.1,220.5,801.5,219.9L801.5,219.9z M815.6,211.8c-6.6,0.4-6.8,0.3-7.9-2.4
	c-1.8-4.2-2.3-6.7-2.3-11.4c0-4.7-0.5-7.7-1.1-6.6c-0.2,0.4-0.5,3.4-0.6,6.8c-0.2,5.4,0,6.6,1.2,9.9l1.5,3.8l-3.4-0.2
	c-3.9-0.2-9.6-1.3-12.2-2.3l-1.8-0.7l1.9-3.4c2.3-4.2,3.1-7.6,4.1-16.1c0.4-3.6,1.1-7.1,1.5-7.8c0.5-0.8,2-1.8,4.2-2.7l3.5-1.4
	l-0.4-2.7c-0.2-1.5-0.4-2.7-0.6-2.8c-0.1-0.1-1.7,0.1-3.6,0.4c-3.7,0.6-4.2,1.1-5.3,6.4c-0.3,1.3-0.9,2.6-1.4,2.7
	c-0.5,0.1-2.9,0.2-5.4,0.2l-4.5-0.1l-0.2-1.9c-0.3-3.3,0.1-4.7,1.2-5c0.9-0.2,1.1-1.4,1-6.7c0-3.5,0.2-6.6,0.5-6.8
	c0.3-0.2,4-0.4,8.1-0.4c6.8,0,7.6-0.1,8.6-1.2c0.9-1.1,1.6-1.2,6.9-1.2c4.9,0,6,0.1,6.5,1.2c0.7,1.3,1,1.3,10.7,1.3
	c4.8,0,6,0.2,6.3,1.1c0.2,0.6,0.3,3.7,0.3,7c0,4.4,0.2,5.9,0.7,6c1,0,1.5,2,1.4,4.6c-0.1,2.2-0.4,2.3-7.3,2.1l-3.4-0.1l-1.1-3.7
	c-0.6-2-1.4-4-1.7-4.3c-0.6-0.6-7.1-2.1-7.2-1.7c0,0.1-0.4,1.3-0.7,2.6l-0.6,2.4l4.4,2.1l4.4,2.1l0.6,6.2c1,10,1.9,13.9,4.1,17.7
	c1.1,1.8,2,3.5,2,3.6C828.6,209.1,818,211.7,815.6,211.8L815.6,211.8z"/>
<g id="kTxtT0.tif">
	<g>
		<path class="st7" d="M607.6,219.4c0-0.7,0-1.3,0-2.2c1,0,2,0,2.9,0c1.5,0,1.9-0.4,1.9-1.8c0.1-7.2,0.1-14.4,0.2-21.6
			c0-1.1-0.7-1.6-1.4-1.6c-2.3-0.1-4.7-0.6-6.9,0.5c-0.8,0.4-1.7,1.2-2,2c-3.1,7.8-6.1,15.7-9.1,23.5c-0.3,0.9-0.7,1.4-1.8,1.3
			c-1-0.1-2.1-0.1-3.1,0c-0.9,0.1-1.3-0.3-1.6-1.2c-2.9-8-5.8-16-8.7-24c-0.6-1.6-1.2-2.7-3.2-2.2c0-1.9,0-3.8,0-5.7
			c0.3,0,0.7-0.1,1-0.1c1.7,0,2.9-1.1,2.9-2.9c0.1-6.5,0.2-13.1,0.2-19.6c0-1.6-1.3-2.8-2.9-2.9c-0.4,0-0.8,0-1.3-0.1
			c0-0.9,0-1.7,0-2.7c5.9,0,11.8,0,17.8,0c0,0.8,0,1.7,0,2.6c-0.2,0-0.4,0.1-0.6,0.1c-2.5,0.1-3.6,1.2-3.7,3.9
			c0,5.7-0.1,11.3-0.1,17c0,1.5,0,2.9,0,4.5c2.3,0,4.6,0,6.9,0c0.1,0,0.3-0.1,0.4-0.2c2.1-2.6,4.8-4.8,5.6-8.2
			c0.3-1.4,0.3-2.9,0.4-4.5c1,0,2,0,3,0c1.1-6.3,4.6-10.8,10.2-13.3c9.3-4.2,18.8,0.4,21.3,10.2c1.4,5.3-2,12.4-6.9,15.7
			c-1.2,0.8-2.5,1.6-3.8,2.2c-1.3,0.5-2.7,0.8-4.1,1.3c5.4,0,10.8,0,16.3,0c0,3.8,0,7.4,0,11.2c-0.6,0-1.2,0-2,0
			c0.2-2.5-1.2-4.3-2.8-6c-1.4-1.5-3-2.5-5.1-2.4c-1.6,0.1-3.3,0-5,0c0,3.7,0,7.2,0,10.8c3.5,0.3,5,0.8,6.8-4.3c0.8,0,1.6,0,2.5,0
			c0,3.8,0,7.7,0,11.6c-0.9,0-1.8,0-2.8,0c0-1.8-0.8-3.5-2.4-4.2c-1.2-0.5-2.8-0.3-4.3-0.4c0,4,0,7.8,0,11.5
			c5.6,1.5,12.5-3.4,13.1-9.6c0.6,0,1.3,0,2,0c0,3.9,0,7.9,0,11.9C627.5,219.4,617.6,219.4,607.6,219.4z M631.3,168
			c-0.3-1.4-0.8-2.6-1.8-3.4c-1.9-1.6-4.1-1.5-6.5,0.4c-4.4,3.5-8.6,7.3-12.1,11.8c-0.9,1.1-1.7,2.4-1.4,4c0.8,3.5,4.7,4.9,7.6,2.6
			c4.8-3.7,8.9-8.1,12.9-12.7C630.6,170,630.9,168.9,631.3,168z M595.8,189.4c-1.7,0-3.2,0-4.8,0c0,0.9,0,1.8,0,2.7
			c-0.6,0-1,0-1.4,0c-1.6,0-2.1,0.6-1.5,2.1c0.9,2.6,1.8,5.2,2.7,7.8c0.8,2.1,1.5,4.3,2.4,6.7c0.7-1.9,1.4-3.4,2-4.9
			c1.2-3.2,2.5-6.5,3.7-9.8c0.5-1.3,0-1.9-1.4-1.9c-0.5,0-1,0-1.7,0C595.8,191.1,595.8,190.3,595.8,189.4z M604.4,189.3
			c4.1,0,8.1,0,12.1,0c-6.2-1.8-10.3-5.7-12.1-11.9C604.4,181.3,604.4,185.3,604.4,189.3z"/>
		<path class="st7" d="M604.4,189.3c0-4,0-8,0-11.9c1.8,6.2,5.9,10.1,12.1,11.9C612.5,189.3,608.5,189.3,604.4,189.3z"/>
	</g>
</g>
<polygon class="st8" points="535.4,132.7 706.5,34 877.6,132.7 877.6,330.3 706.5,429.1 535.4,330.3 "/>
<g>
	<polyline class="st9" points="694.3,168.4 694.3,188.9 714.8,188.9 714.8,168.4 	"/>
	<path class="st9" d="M716.9,169.3v-3c0,0,0-7.8-12.3-7.8s-12.3,7.8-12.3,7.8v2.9"/>
	<path class="st9" d="M707.7,174.6c0,0,0-4-3.1-4s-3.1,4-3.1,4v14.3h6.2V174.6z"/>
	<path class="st9" d="M714.8,172.5c-3.1,0-3.1,3.6-3.1,3.6v12.8h3.1"/>
	<path class="st9" d="M694.3,188.9h3.1v-12.8c0,0,0-3.6-3.1-3.6"/>
	<circle class="st9" cx="704.6" cy="212.8" r="8.5"/>
	<rect x="688" y="196.7" class="st9" width="33.1" height="36.3"/>
	<line class="st9" x1="681" y1="196.7" x2="726.8" y2="196.7"/>
	<line class="st9" x1="673.7" y1="233" x2="735.4" y2="233"/>
	<line class="st9" x1="673.7" y1="255.3" x2="735.4" y2="255.3"/>
	<rect x="680.4" y="233" class="st9" width="47.1" height="37.1"/>
	<polyline class="st9" points="681.5,283 620.5,283 633.5,270.1 775.6,270.1 788.9,283 727.5,283 	"/>
	<line class="st9" x1="775.6" y1="264.5" x2="775.6" y2="270.1"/>
	<line class="st9" x1="633.6" y1="264.5" x2="633.6" y2="270.1"/>
	<path class="st9" d="M728.1,283h51.7v46.8h-59.5l0.1-32.4h-9.8c0,0,0.7-7.6-6-7.6c-6.6,0-5.9,7.6-5.9,7.6h-9.3l0.1,32.4h-60.5V283
		h52.7"/>
	<line class="st9" x1="681.5" y1="307.7" x2="628.9" y2="307.7"/>
	<line class="st9" x1="780.1" y1="307.7" x2="727.4" y2="307.7"/>
	<rect x="637" y="289.8" class="st9" width="6.9" height="10.8"/>
	<rect x="651.4" y="289.8" class="st9" width="6.9" height="10.8"/>
	<rect x="637" y="312.9" class="st9" width="6.9" height="10.8"/>
	<rect x="651.4" y="312.9" class="st9" width="6.9" height="10.8"/>
	<rect x="665.4" y="289.8" class="st9" width="6.9" height="10.8"/>
	<rect x="665.4" y="312.9" class="st9" width="6.9" height="10.8"/>
	<path class="st9" d="M705.7,158.3h-2.2v-13.8c0,0,0-1,1.1-1s1.1,1,1.1,1V158.3z"/>
	<rect x="700.1" y="310.3" class="st9" width="9.4" height="19.5"/>
	<polygon class="st9" points="690.4,255.3 704.6,248.8 718.7,255.3 	"/>
	<circle class="st9" cx="704.3" cy="262.9" r="4"/>
	<line class="st9" x1="689.8" y1="234" x2="689.8" y2="269.1"/>
	<line class="st9" x1="718.7" y1="234" x2="718.7" y2="269.1"/>
	<line class="st9" x1="681" y1="225.8" x2="726.8" y2="225.8"/>
	<polyline class="st10" points="691.5,167.5 699.2,164.6 708.9,164.6 717.6,167.5 	"/>
	<polyline class="st9" points="691.7,169.8 699.3,166.8 708.8,166.8 717.4,169.8 	"/>
	<rect x="736.1" y="289.8" class="st9" width="6.9" height="10.8"/>
	<rect x="750.5" y="289.8" class="st9" width="6.9" height="10.8"/>
	<rect x="736.1" y="312.9" class="st9" width="6.9" height="10.8"/>
	<rect x="750.5" y="312.9" class="st9" width="6.9" height="10.8"/>
	<rect x="764.5" y="289.8" class="st9" width="6.9" height="10.8"/>
	<rect x="764.5" y="312.9" class="st9" width="6.9" height="10.8"/>
	<polyline class="st9" points="726.9,329.8 726.9,270.1 680.9,270.1 680.9,329.8 	"/>
	<rect x="690.9" y="188.9" class="st9" width="27.8" height="7.8"/>
	<line class="st9" x1="685" y1="188.9" x2="723.5" y2="188.9"/>
	<line class="st9" x1="689.4" y1="329.8" x2="720.2" y2="329.8"/>
</g>
<polyline class="st7" points="543.1,334.7 548.5,330.2 858.8,330.2 865.5,335.6 "/>
<g>
	
		<ellipse transform="matrix(0.9813 -0.1925 0.1925 0.9813 -47.0503 114.0922)" class="st7" cx="563.6" cy="299.2" rx="9.4" ry="11.1"/>
	<line class="st7" x1="565.1" y1="303.6" x2="566.8" y2="329.8"/>
</g>
<g>
	
		<ellipse transform="matrix(0.1056 -0.9944 0.9944 0.1056 247.4997 873.5555)" class="st7" cx="609.4" cy="299.2" rx="11.1" ry="9.4"/>
	<line class="st7" x1="609.1" y1="303.6" x2="610.9" y2="329.8"/>
</g>
<g>
	<ellipse class="st7" cx="586.8" cy="299.8" rx="9.4" ry="11.1"/>
	<line class="st7" x1="586.5" y1="304.3" x2="588.2" y2="330.4"/>
</g>
<g>
	
		<ellipse transform="matrix(0.9813 -0.1925 0.1925 0.9813 -42.8581 159.2923)" class="st7" cx="798.4" cy="300.2" rx="9.4" ry="11.1"/>
	<line class="st7" x1="799.8" y1="304.7" x2="801.6" y2="330.8"/>
</g>
<g>
	
		<ellipse transform="matrix(0.1056 -0.9944 0.9944 0.1056 456.4081 1107.8765)" class="st7" cx="844.1" cy="300.2" rx="11.1" ry="9.4"/>
	<line class="st7" x1="843.8" y1="304.7" x2="845.6" y2="330.8"/>
</g>
<g>
	<ellipse class="st7" cx="821.5" cy="300.3" rx="9.4" ry="11.1"/>
	<line class="st7" x1="821.2" y1="304.8" x2="823" y2="331"/>
</g>
<line class="st7" x1="557.5" y1="335.6" x2="852.8" y2="335.6"/>
</svg>
